<svg xmlns="http://www.w3.org/2000/svg" width="176.23" height="225.117" viewBox="0 0 176.23 225.117">
  <g id="Group_10843" data-name="Group 10843" transform="translate(-650.486 -356)">
    <path id="Path_11793" data-name="Path 11793" d="M826.64,531.3c-2.28-10.15-4.89-20.38-8.93-29.92-2.1-4.96-6.76-9.62-11.44-12.56-6.55-4.119-13.281-7.94-20.073-11.641-3.4-1.853-6.816-3.674-10.235-5.49-2.664-1.414-5.583-3.839-8.717-3.668a16.221,16.221,0,0,0-5.419,1.56q-5.16,2.213-10.09,4.917a21.949,21.949,0,0,0-6.77,5.084c-1.819,2.254-2.726,5.033-3.632,7.74-.428,1.279-3.333,6.443-2.894,7.608-2.13-5.65-3.57-10.26-5.64-14.569-1.42-2.958-4.256-4.589-7.132-5.823q-5.687-2.439-11.175-5.308c-3.807-1.987-5.907-1.894-9.659.268q-13.9,8.012-28.214,15.287a41.8,41.8,0,0,0-18.915,19.055c-2.963,6.193-4.568,12.928-5.986,19.612-1.254,5.914-2.777,11.467,2.3,16.058,3.55,3.21,7.17,6.73,11.42,8.7,7.94,3.67,16.14,7.27,24.63,9.1,7.78,1.69,13.84,4.19,18.83,10.85,8.734,11.658,26.243,15.6,39.815,11.212a47.871,47.871,0,0,0,15.042-8.246c5.466-4.294,10.752-9.382,17.335-11.915,7.3-2.809,15.075-3.84,22.328-6.868,7.111-2.97,14.065-6.627,19.19-12.533C824.64,537.47,827.19,533.75,826.64,531.3ZM738.47,575a35.635,35.635,0,1,1,35.67-35.34A35.385,35.385,0,0,1,738.47,575Z" fill="#333"/>
    <path id="Path_11794" data-name="Path 11794" d="M784.13,388.07c-2.87-16.71-12.65-26.97-29.39-30.38-2.91-.6-5.83-1.13-8.74-1.69H731c-1.61.32-3.21.78-4.83.94-17.66,1.8-30.12,12.57-33.05,30.14a164.835,164.835,0,0,0-2.02,30.27c.38,18.88,8.18,34.47,23.57,45.68,10.77,7.85,22.46,12.4,35.89,6.56,17.26-7.5,28.63-20.26,33.39-38.45C787.68,416.88,786.59,402.41,784.13,388.07Zm-40.5,76.57c-10.76,3.06-19.43-2.73-27.27-9.05-15.36-12.41-19.81-29.22-18.38-48.84,5.94,5.85,6.38,5.87,12.16.89,17.14-14.75,39.03-14.84,56.37-.24,6.27,5.28,6.48,5.28,12.05-.22C782.79,434.15,766.93,458.02,743.63,464.64Z" fill="#f8ba1a"/>
    <path id="Path_11795" data-name="Path 11795" d="M732.95,513.34c.59,7.53,1.06,13.44,1.51,19.14-4.8-3.17-9.88-6.52-15.92-10.49C723.3,519.13,727.78,516.44,732.95,513.34Zm-19.14,18.35c5.92,2.78,11.37,5.34,16.47,7.73-4.94,2.28-10.28,4.75-16.47,7.6Zm19.08,33.54c-4.93-2.8-9.39-5.32-14.92-8.46,3.91-2.24,6.65-3.61,9.17-5.31,2.59-1.75,4.96-3.83,7.4-5.74C734.03,551.7,733.53,557.59,732.89,565.23Zm11.18-51.79c5.05,2.96,9.61,5.63,14.53,8.52-6.01,3.9-11.12,7.22-16.09,10.44C742.97,526.8,743.45,520.97,744.07,513.44Zm.01,52.06c-.63-7.7-1.11-13.6-1.57-19.3,4.73,3.17,9.73,6.52,15.84,10.62C753.62,559.69,749.23,562.37,744.08,565.5Zm19.19-18.46c-6.14-2.82-11.61-5.34-16.58-7.62,4.87-2.29,10.34-4.85,16.58-7.78Z" fill="#fff"/>
    <path id="Path_11797" data-name="Path 11797" d="M732.947,513.335c.595,7.531,1.062,13.44,1.512,19.144l-15.917-10.494Z" fill="#f8ba1a"/>
    <path id="Path_11798" data-name="Path 11798" d="M744.074,513.439,758.6,521.96l-16.087,10.445C742.973,526.8,743.453,520.97,744.074,513.439Z" fill="#f8ba1a"/>
    <path id="Path_11799" data-name="Path 11799" d="M732.885,565.233l-14.912-8.467c3.9-2.238,6.647-3.608,9.164-5.309,2.59-1.751,4.96-3.825,7.4-5.739C734.033,551.7,733.533,557.591,732.885,565.233Z" fill="#f8ba1a"/>
    <path id="Path_11800" data-name="Path 11800" d="M744.081,565.5c-.629-7.7-1.11-13.6-1.575-19.3l15.845,10.616C753.623,559.693,749.227,562.368,744.081,565.5Z" fill="#f8ba1a"/>
    <path id="Path_11801" data-name="Path 11801" d="M730.278,539.423l-16.465,7.6V531.688Z" fill="#f8ba1a"/>
    <path id="Path_11802" data-name="Path 11802" d="M746.692,539.419l16.579-7.781v15.4Z" fill="#f8ba1a"/>
  </g>
</svg>
