<svg xmlns="http://www.w3.org/2000/svg" width="143.585" height="191.371" viewBox="0 0 143.585 191.371">
  <g id="Group_10842" data-name="Group 10842" transform="translate(-451.415 -368.545)">
    <path id="Path_11787" data-name="Path 11787" d="M594.787,548.721a11.96,11.96,0,0,1-6.715,9.658c-2.905,1.3-6.2,1.338-9.384,1.35-13.677.048-27.372.3-41.046.126h-.29c-4.706-.09-9.412-.18-14.027-.271l-31.493.271H479.616c-4.618-.09-9.231-.452-13.756-.09-5.266.422-10.39-1.711-12.962-6.508a12.523,12.523,0,0,1-1.42-7.155c.339-3.344,3.568-6.745,6.251-8.507,3.483-2.286,8.025-1.922,11.993-1.92,4.622,0,9.235.345,13.855.426,6.757.117,13.53-.051,20.3-.032q8.333.024,16.665.062l2.787.014c13.818,0,27.638-.123,41.456-.185l10.208-.045a64.241,64.241,0,0,1,9.464.158,12.339,12.339,0,0,1,10.155,9.306A10.973,10.973,0,0,1,594.787,548.721Z" fill="#f8ba1a"/>
    <path id="Path_11788" data-name="Path 11788" d="M562.42,535.331H523.234c-2.081-.091-4.253-.091-6.334-.091h6.334C536.265,535.331,549.3,535.331,562.42,535.331Z" fill="#a3a3a3"/>
    <path id="Path_11789" data-name="Path 11789" d="M595,381.938c-2.987,8.416-5.974,10.5-14.933,10.5q-28.373-.135-56.742-.18c-16.379,0-32.671,0-48.959.09-1.449.09-2.9.453-4.343.633-2.806-.18-5.7-.18-8.6-.633-6.063-1.085-10.5-6.7-9.954-12.579a12.235,12.235,0,0,1,11.947-11.131c11.581-.09,23.256-.09,34.84-.09h12.218c4.253.09,8.506.09,12.85.18,10.859-.09,21.72-.18,32.67-.18h12.216c4.253,0,8.508.09,12.761.09C589.932,368.635,594.456,372.888,595,381.938Z" fill="#f8ba1a"/>
    <path id="Path_11790" data-name="Path 11790" d="M562.42,535.331H523.234v-.091C536.265,535.331,549.3,535.331,562.42,535.331Z" fill="#ececec"/>
    <path id="Path_11791" data-name="Path 11791" d="M523.234,535.24v.091c-2.081-.091-4.253-.091-6.334-.091Z" fill="#fefefe"/>
    <path id="Path_11792" data-name="Path 11792" d="M561.443,491.32a149.018,149.018,0,0,0-16.391-14.372c-6.355-4.945-14.321-12.47-6.343-20.44l1.9-1.9c8.594-8.61,19.413-13.53,26.44-23.887,7.053-10.4,9.4-21.765,9.4-34.122,0-2.444-.906-3.711-3.622-3.711-9.862.181-19.818.09-29.681.181H485.407c-5.159,0-10.227,0-15.384-.091-.211,0-.065,11.72.034,12.719a52.756,52.756,0,0,0,3.165,13.46,54.965,54.965,0,0,0,12.385,18.754c4.8,4.932,10.474,8.88,15.79,13.22,4.3,3.513,10.645,8.108,9.544,14.485-1.454,8.412-12.377,12.866-18.183,17.926-7.171,6.251-13.67,13.862-17.783,22.633-4.394,9.371-5.117,18.964-4.862,29.156,11.491,0,22.985-.091,34.571-.091h18.55c13.031.091,26.064.091,39.186.091,4.616-.091,9.231-.091,13.846-.091a22.172,22.172,0,0,0,.182-2.436c.008-12.5-1.734-25.122-9.585-35.227A80.994,80.994,0,0,0,561.443,491.32ZM498.6,437.462c-.5-.463-.988-.954-1.464-1.484-1.277-1.423-2.57-2.834-3.832-4.269a12.105,12.105,0,0,1-2.1-4.251c-.9-2.624-.27-4.344,2.534-5.068,2.353.091,4.706.091,7.059.181h12.85c12.643,0,25.274-.09,37.92-.09,2.353-.091,3.891.814,4.434,3.258.206.927-.942,2.934-1.338,3.764A20.574,20.574,0,0,1,552.6,432.9a27.212,27.212,0,0,1-5.559,5.583c-5.576,4.124-11.193,8.193-16.79,12.289-2.511,1.838-4.266,4.039-6.384,6.282-.362.181-.724.362-1.177.543-3.438-3.349-6.7-7.059-10.5-10.136-2.351-1.91-4.837-3.643-7.342-5.342A51.043,51.043,0,0,1,498.6,437.462Zm57.035,86.376c-20.413.335-40.862,0-61.281.155l-.311,0a18.2,18.2,0,0,1-5.616-.544,6.145,6.145,0,0,1-4.1-3.606c-.735-2.164.238-4.51,1.315-6.525,4.8-8.976,11.979-16.481,19.825-22.964,3.184-2.632,6.49-5.117,9.6-7.837a59.353,59.353,0,0,0,4.444-4.258c1.138-1.223,2.581-4.372,4.266-3.111,5.485,4.808,11.054,9.541,16.424,14.484a168.088,168.088,0,0,1,12.181,11.947,76.622,76.622,0,0,1,8.862,13.116C563.958,519.494,561.152,523.747,555.633,523.838Z" fill="#333"/>
  </g>
</svg>
