<svg xmlns="http://www.w3.org/2000/svg" width="175.711" height="225.518" viewBox="0 0 175.711 225.518">
  <g id="Group_10841" data-name="Group 10841" transform="translate(-229.666 -347.482)">
    <g id="Group_10838" data-name="Group 10838">
      <path id="Path_11783" data-name="Path 11783" d="M397.392,438.914a63.434,63.434,0,0,1-6.063-5.857,25.866,25.866,0,0,1-5.348-22.293c1.445-6.116,5.149-11.715,5.349-17.995a16.956,16.956,0,0,0-4.662-12.1,17.418,17.418,0,0,0-11.867-5.279c-4.343-.146-8.575,1.324-12.9,1.692-8.936.761-17.711-3.643-23.406-10.388-2.784-3.3-4.045-7.33-6.572-10.734A21.952,21.952,0,0,0,321.011,348c-6.034-1.971-12.974,1.962-16.654,6.508-3.6,4.444-5.878,9.869-9.693,14.13a25.833,25.833,0,0,1-20.693,8.4c-4.824-.332-9.549-2.037-14.374-1.712-9.086.612-16.757,9.534-16,18.609.484,5.8,3.832,10.942,5.237,16.586a25.647,25.647,0,0,1-5.045,22.183c-3.762,4.544-9.109,7.769-12.051,12.883-4.455,7.74-1.443,18.839,6.312,23.267,3.984,2.274,8.695,2.846,12.974,4.5a27.536,27.536,0,0,1,16.768,19.993c1.123,5.716.417,11.843,2.717,17.2a16.828,16.828,0,0,0,17.92,9.61c7.135-1.3,12.547-7.085,19.193-9.987a25.362,25.362,0,0,1,21.054.488c5.524,2.723,10.043,7.478,15.968,9.155,8.28,2.343,17.948-2.877,20.531-11.085,1.331-4.233.935-8.8,1.547-13.19,1.33-9.543,8.024-17.913,16.622-22.049,4.282-2.06,9.126-1.952,13.174-4.323a16.83,16.83,0,0,0,8.332-11.031c1.514-6.463-.272-12.053-4.859-16.755C399.157,440.53,398.28,439.716,397.392,438.914ZM318.15,495.83c-32.09.46-58.06-25.38-58.55-58.26-.44-30.1,25.38-56.55,54.92-57.73,32.37-1.29,60.8,24.41,60.82,57.89C375.81,468.86,349.7,495.38,318.15,495.83Z" fill="#f8ba1a"/>
      <path id="Path_11784" data-name="Path 11784" d="M310.64,522.08q-10.74,23.8-21.56,47.56A30.134,30.134,0,0,1,287,573h-2c-2.02-3.59-4.13-7.13-6.04-10.78-3.78-7.19-9.5-9.84-17.33-7.79-2.73.71-5.38,1.75-8.13,2.29-1.31.26-3.32.18-4.03-.62s-.63-2.89-.11-4.06c4.48-10.16,9.14-20.23,13.87-30.59,16.25,15.19,31.86,12.13,47.44-2.23C310.67,520.97,310.85,521.61,310.64,522.08Z" fill="#333"/>
      <path id="Path_11785" data-name="Path 11785" d="M381.57,556.79c-2.91-.69-5.71-1.79-8.61-2.5-7.56-1.88-13.33.93-16.92,7.9-1.89,3.67-4.02,7.21-6.04,10.81h-2c-5.31-11.25-10.66-22.49-15.91-33.77-2.83-6.1-5.5-12.28-8.84-19.77,2.83,1.67,4.43,2.44,5.83,3.47,16.11,11.86,27.18,11.56,42.71-1.42,4.72,10.33,9.51,20.55,14.04,30.88C387.41,556,385.59,557.76,381.57,556.79Z" fill="#333"/>
      <path id="Path_11786" data-name="Path 11786" d="M315.62,390.93c-24.51.3-45.35,21.92-45.01,46.7.36,26.6,21.3,47.55,47.2,47.23,25.77-.32,46.75-21.47,46.54-46.91C364.12,410.74,343.24,390.59,315.62,390.93Zm24.19,43.68c-8.74,6.33-17.4,12.75-26.15,19.06-4.52,3.25-6.61,2.86-9.94-1.69q-3.81-5.22-7.45-10.58c-2.12-3.11-1.87-6.1,1.35-8.2,3.11-2.02,5.68-.67,7.68,2.09,1.64,2.27,3.26,4.56,5.15,7.22,7.95-5.8,15.34-11.14,22.67-16.55,3.16-2.34,6.47-4.3,9.51-.36C345.69,429.56,343.06,432.26,339.81,434.61Z" fill="#333"/>
    </g>
  </g>
</svg>
