<svg xmlns="http://www.w3.org/2000/svg" width="16.204" height="20.1" viewBox="0 0 16.204 20.1">
  <g id="place" transform="translate(-48.784 0.05)">
    <g id="Group_33" data-name="Group 33" transform="translate(48.886)">
      <g id="Group_32" data-name="Group 32">
        <path id="Path_44" data-name="Path 44" d="M63.45,3.477a7.934,7.934,0,0,0-13.129,0,8.154,8.154,0,0,0-.93,7.441,6.375,6.375,0,0,0,1.159,1.935l5.809,6.9a.686.686,0,0,0,1.053,0l5.807-6.9a6.381,6.381,0,0,0,1.159-1.933A8.155,8.155,0,0,0,63.45,3.477Zm-.367,6.956a5,5,0,0,1-.912,1.511l0,0-5.282,6.274L51.6,11.944a5,5,0,0,1-.914-1.515,6.744,6.744,0,0,1,.772-6.156,6.56,6.56,0,0,1,10.853,0A6.746,6.746,0,0,1,63.083,10.433Z" transform="translate(-48.886)" stroke="#000" stroke-width="0.1"/>
      </g>
    </g>
    <g id="Group_35" data-name="Group 35" transform="translate(52.949 4.135)">
      <g id="Group_34" data-name="Group 34">
        <path id="Path_45" data-name="Path 45" d="M159.691,106.219a3.937,3.937,0,1,0,3.937,3.937A3.941,3.941,0,0,0,159.691,106.219Zm0,6.467a2.531,2.531,0,1,1,2.531-2.531A2.534,2.534,0,0,1,159.691,112.686Z" transform="translate(-155.754 -106.219)" stroke="#000" stroke-width="0.1"/>
      </g>
    </g>
  </g>
</svg>
