<svg xmlns="http://www.w3.org/2000/svg" xmlns:xlink="http://www.w3.org/1999/xlink" viewBox="0 0 98 98">
  <defs>
    <style>
      .cls-1 {
        fill: #282c3f;
      }

      .cls-2 {
        fill: #fff;
        stroke: #fff;
      }

      .cls-3 {
        filter: url(#Rectangle_1);
      }
    </style>
    <filter id="Rectangle_1" x="0" y="0" width="98" height="98" filterUnits="userSpaceOnUse">
      <feOffset dy="3" input="SourceAlpha"/>
      <feGaussianBlur stdDeviation="3" result="blur"/>
      <feFlood flood-opacity="0.161"/>
      <feComposite operator="in" in2="blur"/>
      <feComposite in="SourceGraphic"/>
    </filter>
  </defs>
  <g id="Group_1765" data-name="Group 1765" transform="translate(2731 -1662)">
    <g id="Group_1764" data-name="Group 1764" transform="translate(40 1589)">
      <g class="cls-3" transform="matrix(1, 0, 0, 1, -2771, 73)">
        <rect id="Rectangle_1-2" data-name="Rectangle 1" class="cls-1" width="80" height="80" transform="translate(9 6)"/>
      </g>
    </g>
    <path id="Union_4" data-name="Union 4" class="cls-2" d="M13.5,39.8V35.511a2.081,2.081,0,0,1-.374-.246C6.062,29.4,2.808,23.983,1.323,20.466a13.811,13.811,0,0,1-.965-2.837,4.787,4.787,0,0,1-.1-.482,14.615,14.615,0,0,1-.19-4.117A14.454,14.454,0,0,1,13.922.007C14.09,0,14.265,0,14.433,0A14.434,14.434,0,0,1,28.626,17.176c-.023.139-.051.285-.1.461a14.128,14.128,0,0,1-.973,2.858c-1.477,3.488-4.73,8.914-11.786,14.771a2.083,2.083,0,0,1-.273.19V39.8Zm.489-38A12.666,12.666,0,0,0,1.85,13.206a12.868,12.868,0,0,0,.168,3.633c0,.015.007.03.007.044.007.037.03.154.074.344a12.6,12.6,0,0,0,.855,2.516c1.411,3.34,4.5,8.459,11.2,14.057h.567c6.709-5.591,9.785-10.71,11.189-14.028a13.145,13.145,0,0,0,.862-2.537c.051-.227.073-.351.073-.365a13.092,13.092,0,0,0,.234-2.427A12.662,12.662,0,0,0,14.435,1.791C14.287,1.791,14.137,1.794,13.988,1.8ZM11.5,14.8a3,3,0,1,1,3,3A3,3,0,0,1,11.5,14.8Z" transform="translate(-2696.5 1688.5)"/>
  </g>
</svg>
