<svg xmlns="http://www.w3.org/2000/svg" viewBox="0 0 32.982 32.982">
  <defs>
    <style>
      .cls-1 {
        fill: #3d4152;
        stroke: #3d4152;
        stroke-width: 0.2px;
      }
    </style>
  </defs>
  <path id="help_1_" data-name="help (1)" class="cls-1" d="M28,28A16.42,16.42,0,0,0,4.779,4.779,16.42,16.42,0,0,0,28,28ZM10.417,29.6l2.393-5.263a8.849,8.849,0,0,0,7.161,0L22.363,29.6A14.575,14.575,0,0,1,10.417,29.6Zm1.154-18.03a6.815,6.815,0,0,1,9.638,9.638,6.815,6.815,0,0,1-9.638-9.638ZM26.642,26.642A14.482,14.482,0,0,1,24.061,28.7l-2.422-5.328a8.4,8.4,0,0,0,.928-.8,8.64,8.64,0,0,0,.8-.927L28.7,24.061A14.482,14.482,0,0,1,26.642,26.642Zm2.959-4.28-5.255-2.389a8.949,8.949,0,0,0,0-7.169L29.6,10.417A14.577,14.577,0,0,1,29.6,22.363ZM28.7,8.719,23.37,11.139a8.592,8.592,0,0,0-.8-.927,8.375,8.375,0,0,0-.928-.8l2.422-5.328A14.566,14.566,0,0,1,28.7,8.719Zm-6.332-5.54L19.97,8.442a8.848,8.848,0,0,0-7.161,0L10.417,3.179A14.564,14.564,0,0,1,22.363,3.179ZM6.138,6.138A14.49,14.49,0,0,1,8.719,4.085l2.422,5.328a8.377,8.377,0,0,0-.928.8,8.616,8.616,0,0,0-.8.927L4.085,8.719A14.5,14.5,0,0,1,6.138,6.138Zm-2.959,4.28,5.255,2.389a8.947,8.947,0,0,0,0,7.169L3.179,22.363A14.573,14.573,0,0,1,3.179,10.417Zm.906,13.644L9.41,21.641a8.646,8.646,0,0,0,.8.927,8.374,8.374,0,0,0,.928.8L8.719,28.7a14.56,14.56,0,0,1-4.634-4.634Zm0,0" transform="translate(0.101 0.101)"/>
</svg>
