<svg xmlns="http://www.w3.org/2000/svg" viewBox="0 0 34.721 33.082">
  <defs>
    <style>
      .cls-1 {
        fill: #3d4152;
        stroke: #3d4152;
        stroke-width: 0.3px;
      }
    </style>
  </defs>
  <g id="profile_1_" data-name="profile (1)" transform="translate(0.15 -13.265)">
    <path id="Path_3135" data-name="Path 3135" class="cls-1" d="M139.2,31.813a9.2,9.2,0,1,0-9.213-9.213A9.214,9.214,0,0,0,139.2,31.813Zm0-16a6.782,6.782,0,1,1-6.783,6.782A6.8,6.8,0,0,1,139.2,15.817Z" transform="translate(-122.046 0)"/>
    <path id="Path_3136" data-name="Path 3136" class="cls-1" d="M1.215,353.7H33.206a1.206,1.206,0,0,0,1.215-1.215,11.572,11.572,0,0,0-11.559-11.559h-11.3A11.572,11.572,0,0,0,0,352.485,1.206,1.206,0,0,0,1.215,353.7Zm10.343-10.343h11.3a9.122,9.122,0,0,1,9.043,7.913H2.515A9.146,9.146,0,0,1,11.558,343.356Z" transform="translate(0 -307.503)"/>
  </g>
</svg>
