<svg xmlns="http://www.w3.org/2000/svg" viewBox="0 0 31.438 36.667">
  <defs>
    <style>
      .cls-1 {
        fill: #3d4152;
        stroke: #3d4152;
        stroke-width: 0.7px;
      }
    </style>
  </defs>
  <path id="Subtraction_17" data-name="Subtraction 17" class="cls-1" d="M12.831,35.967H.871A.872.872,0,0,1,0,35.1V12.49a.87.87,0,0,1,.223-.582h0a.88.88,0,0,1,.1-.094L14.824.191a.871.871,0,0,1,1.089,0l14.5,11.619a.867.867,0,0,1,.1.094h0v0a.872.872,0,0,1,.223.582V35.1a.872.872,0,0,1-.871.871H17.911V34.222h0v-2s0-.01,0-.015V25.356h-5.08v6.852c0,.007,0,.014,0,.021v2h0v1.742Zm-.873-12.353H18.78a.872.872,0,0,1,.871.871v9.74H29V12.908L15.369,1.987,1.742,12.908V34.225h9.345v-9.74A.872.872,0,0,1,11.958,23.614Z" transform="translate(0.35 0.35)"/>
</svg>
