<svg xmlns="http://www.w3.org/2000/svg" viewBox="0 0 43 32.837">
  <defs>
    <style>
      .cls-1 {
        fill: #282c3f;
      }
    </style>
  </defs>
  <path id="Subtraction_7" data-name="Subtraction 7" class="cls-1" d="M40.313,32.837H2.687A2.69,2.69,0,0,1,0,30.149V14.024H43V30.149A2.69,2.69,0,0,1,40.313,32.837ZM16.718,22.087a1.344,1.344,0,0,0,0,2.687h8.063a1.344,1.344,0,0,0,0-2.687Zm-11.227,0a1.367,1.367,0,0,0,0,2.687h6.7a1.367,1.367,0,0,0,0-2.687ZM43,8.668H0V4.334C0,1.944,1.206,0,2.687,0H40.313C41.795,0,43,1.944,43,4.334V8.667Z"/>
</svg>
