<svg xmlns="http://www.w3.org/2000/svg" viewBox="0 0 43 33">
  <defs>
    <style>
      .cls-1 {
        fill: #686b78;
      }
    </style>
  </defs>
  <path id="Subtraction_2" data-name="Subtraction 2" class="cls-1" d="M39,33H4a4,4,0,0,1-4-4V4A4,4,0,0,1,4,0H39a4,4,0,0,1,4,4V29A4.005,4.005,0,0,1,39,33ZM31.5,21A2.5,2.5,0,1,0,34,23.5,2.5,2.5,0,0,0,31.5,21Zm-7,0A2.5,2.5,0,1,0,27,23.5,2.5,2.5,0,0,0,24.5,21ZM9,17v2l6,7h2.5l-6-7h.7v-.04A5.559,5.559,0,0,0,17,14h2l1-2H16.79a5.471,5.471,0,0,0-1.05-2H19l1-2H10L9,10h2.5a3.514,3.514,0,0,1,3.16,2H10L9,14h5.96a3.506,3.506,0,0,1-3.46,3Z"/>
</svg>
