<svg xmlns="http://www.w3.org/2000/svg" viewBox="0 0 73.704 64.642">
  <defs>
    <style>
      .cls-1 {
        fill: #282c3f;
      }
    </style>
  </defs>
  <path id="Union_19" data-name="Union 19" class="cls-1" d="M10.585,64.511a1.714,1.714,0,0,1-1.058-1.584V48.089H6.012A6.019,6.019,0,0,1,0,42.077V6.012A6.019,6.019,0,0,1,6.012,0H67.693A6.018,6.018,0,0,1,73.7,6.012V42.077a6.018,6.018,0,0,1-6.011,6.012H28.5L12.452,64.139a1.713,1.713,0,0,1-1.868.372ZM3.428,6.012V42.077a2.587,2.587,0,0,0,2.584,2.584h5.227a1.715,1.715,0,0,1,1.706,1.555,1.359,1.359,0,0,1,.009.158V58.789L26.571,45.173c.02-.021.041-.039.062-.059l.009-.007a1.7,1.7,0,0,1,1.15-.446h39.9a2.587,2.587,0,0,0,2.584-2.584V6.012a2.587,2.587,0,0,0-2.584-2.584H6.012A2.587,2.587,0,0,0,3.428,6.012ZM15.269,35.571a1.714,1.714,0,0,1,0-3.428H30.791a1.714,1.714,0,0,1,0,3.428Zm32.386-1.245L36.912,23.583a8.033,8.033,0,1,1,11.361-11.36l.338.338.338-.338A8.044,8.044,0,1,1,60.32,23.6L49.547,34.336a1.333,1.333,0,0,1-1.892-.01ZM38.794,14.1a5.359,5.359,0,0,0,.01,7.576l9.8,9.8L58.418,21.7a5.327,5.327,0,0,0,1.573-3.793,5.354,5.354,0,0,0-5.347-5.357,5.323,5.323,0,0,0-3.793,1.573l-1.284,1.284a1.341,1.341,0,0,1-1.9,0l-1.294-1.294a5.36,5.36,0,0,0-7.577-.01ZM15.269,25.758a1.714,1.714,0,0,1,0-3.428h6.2a1.714,1.714,0,1,1,0,3.428Zm-.214-9.813a1.714,1.714,0,0,1,0-3.428h9.991a1.714,1.714,0,0,1,0,3.428Z"/>
</svg>
