<svg xmlns="http://www.w3.org/2000/svg" viewBox="0 0 42.661 32.837">
  <defs>
    <style>
      .cls-1 {
        fill: #282c3f;
      }
    </style>
  </defs>
  <path id="Union_10" data-name="Union 10" class="cls-1" d="M11.649,32.837h-8A3.647,3.647,0,0,1,0,29.189V3.649A3.649,3.649,0,0,1,3.649,0H37.188a3.649,3.649,0,0,1,3.649,3.649V5.473H24.419A3.647,3.647,0,0,0,20.77,9.122V23.716a3.649,3.649,0,0,0,3.649,3.649H40.837v1.824a3.648,3.648,0,0,1-3.649,3.648Zm12.77-9.121V9.122H42.661V23.716Zm4.56-7.3a2.736,2.736,0,1,0,2.737-2.737A2.736,2.736,0,0,0,28.979,16.419Z"/>
</svg>
