<svg xmlns="http://www.w3.org/2000/svg" xmlns:xlink="http://www.w3.org/1999/xlink" viewBox="0 0 60 60">
  <defs>
    <style>
      .cls-1 {
        clip-path: url(#clip-Favourites);
      }

      .cls-2 {
        fill: none;
        stroke: #000;
        stroke-miterlimit: 10;
        stroke-width: 3px;
      }
    </style>
    <clipPath id="clip-Favourites">
      <rect width="60" height="60"/>
    </clipPath>
  </defs>
  <g id="Favourites" class="cls-1">
    <g id="cyUUTS.tif_2_" transform="translate(-344.556 1.512)">
      <g id="Group_1760" data-name="Group 1760">
        <g id="Group_1759" data-name="Group 1759">
          <path id="Path_3540" data-name="Path 3540" class="cls-2" d="M401,19.8a28.758,28.758,0,0,1-6.4,13.8,105.826,105.826,0,0,1-19.5,18.3,1.483,1.483,0,0,1-1.3,0c-7.5-5.7-14.6-11.8-20.3-19.4-3.4-4.5-5.8-9.5-5.5-15.3a10.357,10.357,0,0,1,8.9-10.3,13.059,13.059,0,0,1,9.6,2.2c2.2,1.5,4.2,3.2,6.3,4.9a13.72,13.72,0,0,1,1.6,1.8c1.4-1.3,2.4-2.4,3.5-3.4a24.565,24.565,0,0,1,8-5C394.5,4.3,402.3,10.8,401,19.8Z"/>
        </g>
      </g>
    </g>
  </g>
</svg>
