<svg xmlns="http://www.w3.org/2000/svg" xmlns:xlink="http://www.w3.org/1999/xlink" viewBox="0 0 60 60">
  <defs>
    <style>
      .cls-1 {
        clip-path: url(#clip-my_orders);
      }

      .cls-2, .cls-3 {
        fill: none;
      }

      .cls-2 {
        stroke: #000;
        stroke-miterlimit: 10;
        stroke-width: 3px;
      }
    </style>
    <clipPath id="clip-my_orders">
      <rect width="60" height="60"/>
    </clipPath>
  </defs>
  <g id="my_orders" data-name="my orders" class="cls-1">
    <g id="Group_1780" data-name="Group 1780" transform="translate(3.5 3)">
      <path id="Path_3550" data-name="Path 3550" class="cls-2" d="M20.9,8.5H31.3"/>
      <path id="Path_3551" data-name="Path 3551" class="cls-2" d="M40.1,8.2h8.6a3.348,3.348,0,0,1,3.5,3.1V49.4a3.348,3.348,0,0,1-3.5,3.1H5a3.348,3.348,0,0,1-3.5-3.1V11.3A3.348,3.348,0,0,1,5,8.2h7.4"/>
      <path id="Path_3552" data-name="Path 3552" d="M17.1,14.8h-.9a2.647,2.647,0,0,1-2.6-2.6V2.6A2.647,2.647,0,0,1,16.2,0h.9a2.647,2.647,0,0,1,2.6,2.6v9.6A2.647,2.647,0,0,1,17.1,14.8Z"/>
      <path id="Path_3553" data-name="Path 3553" d="M36.4,14.8h-.9a2.647,2.647,0,0,1-2.6-2.6V2.6A2.5,2.5,0,0,1,35.4,0h.9A2.669,2.669,0,0,1,39,2.6v9.6A2.647,2.647,0,0,1,36.4,14.8Z"/>
      <line id="Line_231" data-name="Line 231" class="cls-3" y1="4.4" transform="translate(12.4 8.2)"/>
      <line id="Line_232" data-name="Line 232" class="cls-3" y2="7.1" transform="translate(40.1 4.9)"/>
      <circle id="Ellipse_496" data-name="Ellipse 496" cx="3.1" cy="3.1" r="3.1" transform="translate(9.4 20.2)"/>
      <circle id="Ellipse_497" data-name="Ellipse 497" cx="3.1" cy="3.1" r="3.1" transform="translate(19 20.2)"/>
      <circle id="Ellipse_498" data-name="Ellipse 498" cx="3.1" cy="3.1" r="3.1" transform="translate(28.5 20.2)"/>
      <circle id="Ellipse_499" data-name="Ellipse 499" cx="3.1" cy="3.1" r="3.1" transform="translate(38.1 20.2)"/>
      <circle id="Ellipse_500" data-name="Ellipse 500" cx="3.1" cy="3.1" r="3.1" transform="translate(9.4 28.9)"/>
      <circle id="Ellipse_501" data-name="Ellipse 501" cx="3.1" cy="3.1" r="3.1" transform="translate(19 28.9)"/>
      <circle id="Ellipse_502" data-name="Ellipse 502" cx="3.1" cy="3.1" r="3.1" transform="translate(28.5 28.9)"/>
      <circle id="Ellipse_503" data-name="Ellipse 503" cx="3.1" cy="3.1" r="3.1" transform="translate(38.1 28.9)"/>
      <circle id="Ellipse_504" data-name="Ellipse 504" cx="3.1" cy="3.1" r="3.1" transform="translate(9.4 37.5)"/>
      <circle id="Ellipse_505" data-name="Ellipse 505" cx="3.1" cy="3.1" r="3.1" transform="translate(19 37.5)"/>
      <circle id="Ellipse_506" data-name="Ellipse 506" cx="3.1" cy="3.1" r="3.1" transform="translate(28.5 37.5)"/>
      <circle id="Ellipse_507" data-name="Ellipse 507" cx="3.1" cy="3.1" r="3.1" transform="translate(38.1 37.5)"/>
    </g>
  </g>
</svg>
