<svg xmlns="http://www.w3.org/2000/svg" xmlns:xlink="http://www.w3.org/1999/xlink" viewBox="0 0 60 60">
  <defs>
    <style>
      .cls-1 {
        clip-path: url(#clip-offer);
      }

      .cls-2 {
        fill: none;
        stroke-width: 3px;
      }

      .cls-2, .cls-3 {
        stroke: #000;
        stroke-miterlimit: 10;
      }

      .cls-3 {
        stroke-linecap: round;
      }
    </style>
    <clipPath id="clip-offer">
      <rect width="60" height="60"/>
    </clipPath>
  </defs>
  <g id="offer" class="cls-1">
    <g id="Group_1763" data-name="Group 1763" transform="translate(2490 2844)">
      <g id="Group_1743" data-name="Group 1743" transform="translate(-2488.556 -2843.488)">
        <g id="Group_1742" data-name="Group 1742">
          <path id="Path_3526" data-name="Path 3526" class="cls-2" d="M55.8,52.9c0,.9,0,.9-1,.9H2.9c-.3,0-.6.1-.8,0a1.205,1.205,0,0,1-.5-.5c-.1-.2,0-.5,0-.7V5.5c0-.5.2-.8.7-.7h45a1.769,1.769,0,0,1,1.7.8c2.1,2.6,4.3,5.2,6.4,7.8a1.746,1.746,0,0,1,.4,1.2C55.8,27.4,55.8,40.2,55.8,52.9Z"/>
        </g>
      </g>
      <g id="Group_1745" data-name="Group 1745" transform="translate(-2488.556 -2843.488)">
        <g id="Group_1744" data-name="Group 1744">
          <path id="Path_3527" data-name="Path 3527" class="cls-2" d="M19.5,25.1a5.124,5.124,0,0,1-5.2-5,5.061,5.061,0,0,1,4.9-5A4.894,4.894,0,0,1,24.3,20,5,5,0,0,1,19.5,25.1Z"/>
        </g>
      </g>
      <g id="Group_1747" data-name="Group 1747" transform="translate(-2488.556 -2843.488)">
        <g id="Group_1746" data-name="Group 1746">
          <path id="Path_3528" data-name="Path 3528" class="cls-2" d="M38,43.6a5.124,5.124,0,0,1-5.2-5,5.061,5.061,0,0,1,4.9-5,5,5,0,0,1,.3,10Z"/>
        </g>
      </g>
      <g id="Group_1749" data-name="Group 1749" transform="translate(-2488.556 -2843.488)">
        <g id="Group_1748" data-name="Group 1748">
          <rect id="Rectangle_625" data-name="Rectangle 625" class="cls-3" width="34.2" height="2.1" transform="translate(15.691 40.538) rotate(-44.599)"/>
        </g>
      </g>
    </g>
  </g>
</svg>
