<svg xmlns="http://www.w3.org/2000/svg" viewBox="0 0 33.112 33.447">
  <defs>
    <style>
      .cls-1 {
        fill: #3d4152;
        stroke: #3d4152;
        stroke-width: 0.5px;
      }
    </style>
  </defs>
  <g id="discount_2_" data-name="discount (2)" transform="translate(0.373 0.415)">
    <g id="Group_1750" data-name="Group 1750" transform="translate(0 0)">
      <g id="Group_1749" data-name="Group 1749" transform="translate(0)">
        <path id="Path_3130" data-name="Path 3130" class="cls-1" d="M41.164,16.814a.937.937,0,0,1,0-.849l1.258-2.5a2.808,2.808,0,0,0-1.263-3.779l-2.53-1.3a.963.963,0,0,1-.514-.687L37.62,4.95a2.919,2.919,0,0,0-3.308-2.336L31.476,3a1.007,1.007,0,0,1-.831-.262L28.586.807a2.989,2.989,0,0,0-4.089,0L22.439,2.742A1.007,1.007,0,0,1,21.608,3l-2.836-.39a2.919,2.919,0,0,0-3.308,2.336l-.495,2.742a.963.963,0,0,1-.514.687l-2.53,1.3a2.808,2.808,0,0,0-1.263,3.779l1.258,2.5a.936.936,0,0,1,0,.849l-1.258,2.5a2.808,2.808,0,0,0,1.263,3.779l2.53,1.3a.963.963,0,0,1,.514.687l.495,2.742a2.9,2.9,0,0,0,2.887,2.365,3.094,3.094,0,0,0,.421-.029l2.836-.39a1.006,1.006,0,0,1,.831.262L24.5,31.972a2.989,2.989,0,0,0,4.089,0l2.059-1.936a1.008,1.008,0,0,1,.831-.262l2.836.39a2.919,2.919,0,0,0,3.308-2.336l.495-2.742a.963.963,0,0,1,.514-.687l2.53-1.3a2.808,2.808,0,0,0,1.263-3.779Zm-.917,4.61-2.53,1.3a2.846,2.846,0,0,0-1.518,2.03L35.7,27.5a.988.988,0,0,1-1.119.79l-2.836-.39a2.974,2.974,0,0,0-2.456.776l-2.059,1.936a1.011,1.011,0,0,1-1.383,0l-2.059-1.936a2.963,2.963,0,0,0-2.037-.8,3.072,3.072,0,0,0-.419.029l-2.836.39a.988.988,0,0,1-1.119-.79l-.495-2.742a2.846,2.846,0,0,0-1.518-2.03l-2.53-1.3a.95.95,0,0,1-.427-1.279l1.258-2.5a2.768,2.768,0,0,0,0-2.51l-1.258-2.5a.95.95,0,0,1,.427-1.279l2.53-1.3a2.846,2.846,0,0,0,1.518-2.03l.495-2.742a.988.988,0,0,1,1.119-.79l2.836.39A2.975,2.975,0,0,0,23.791,4.1L25.85,2.166a1.011,1.011,0,0,1,1.383,0L29.292,4.1a2.975,2.975,0,0,0,2.456.776l2.836-.39a.988.988,0,0,1,1.119.79L36.2,8.019a2.846,2.846,0,0,0,1.518,2.03l2.53,1.3a.95.95,0,0,1,.427,1.279l-1.258,2.5a2.768,2.768,0,0,0,0,2.51l1.258,2.5A.95.95,0,0,1,40.247,21.424Z" transform="translate(-10.359 0.002)"/>
      </g>
    </g>
    <g id="Group_1752" data-name="Group 1752" transform="translate(8.791 9.207)">
      <g id="Group_1751" data-name="Group 1751" transform="translate(0)">
        <path id="Path_3131" data-name="Path 3131" class="cls-1" d="M158.291,144.068a.993.993,0,0,0-1.376,0l-12.839,12.478a.927.927,0,0,0,0,1.337.993.993,0,0,0,1.376,0l12.839-12.478A.927.927,0,0,0,158.291,144.068Z" transform="translate(-143.791 -143.791)"/>
      </g>
    </g>
    <g id="Group_1754" data-name="Group 1754" transform="translate(8.725 7.883)">
      <g id="Group_1753" data-name="Group 1753">
        <path id="Path_3132" data-name="Path 3132" class="cls-1" d="M146.369,123.116a3.468,3.468,0,1,0,3.567,3.466A3.522,3.522,0,0,0,146.369,123.116Zm0,5.042a1.576,1.576,0,1,1,1.621-1.576A1.6,1.6,0,0,1,146.369,128.158Z" transform="translate(-142.802 -123.116)"/>
      </g>
    </g>
    <g id="Group_1756" data-name="Group 1756" transform="translate(16.507 17.967)">
      <g id="Group_1755" data-name="Group 1755">
        <path id="Path_3133" data-name="Path 3133" class="cls-1" d="M264.489,280.61a3.468,3.468,0,1,0,3.567,3.466A3.522,3.522,0,0,0,264.489,280.61Zm0,5.042a1.576,1.576,0,1,1,1.621-1.576A1.6,1.6,0,0,1,264.489,285.652Z" transform="translate(-260.922 -280.61)"/>
      </g>
    </g>
  </g>
</svg>
