<svg id="cart" xmlns="http://www.w3.org/2000/svg" viewBox="0 0 41.844 38.296">
  <g id="Group_37" data-name="Group 37" transform="translate(27.914 27.861)">
    <g id="Group_36" data-name="Group 36">
      <path id="Path_16" data-name="Path 16" d="M346.764,362.612a5.217,5.217,0,1,0,5.217,5.217A5.223,5.223,0,0,0,346.764,362.612Zm0,7.3a2.087,2.087,0,1,1,2.087-2.087A2.089,2.089,0,0,1,346.764,369.916Z" transform="translate(-341.547 -362.612)"/>
    </g>
  </g>
  <g id="Group_39" data-name="Group 39" transform="translate(0 0)">
    <g id="Group_38" data-name="Group 38">
      <path id="Path_17" data-name="Path 17" d="M41.511,29.4a1.563,1.563,0,0,0-1.232-.6H9.662L8.253,22.907a1.566,1.566,0,0,0-1.522-1.2H1.565a1.565,1.565,0,1,0,0,3.13H5.5l5.087,21.285a1.565,1.565,0,0,0,1.522,1.2H36.47a1.565,1.565,0,0,0,1.519-1.189L41.8,30.742A1.568,1.568,0,0,0,41.511,29.4ZM35.246,44.192H13.34L10.41,31.931H38.279Z" transform="translate(0 -21.705)"/>
    </g>
  </g>
  <g id="Group_41" data-name="Group 41" transform="translate(8.974 27.861)">
    <g id="Group_40" data-name="Group 40">
      <path id="Path_18" data-name="Path 18" d="M115.023,362.612a5.217,5.217,0,1,0,5.217,5.217A5.223,5.223,0,0,0,115.023,362.612Zm0,7.3a2.087,2.087,0,1,1,2.087-2.087A2.089,2.089,0,0,1,115.023,369.916Z" transform="translate(-109.806 -362.612)"/>
    </g>
  </g>
</svg>
