<svg xmlns="http://www.w3.org/2000/svg" viewBox="0 0 20 20">
  <defs>
    <style>
      .cls-1 {
        fill: #fff;
      }
    </style>
  </defs>
  <path id="cart-outline" class="cls-1" d="M17,18a2,2,0,1,1-2,2,2,2,0,0,1,2-2M1,2H4.27l.94,2H20a1,1,0,0,1,1,1,1.265,1.265,0,0,1-.12.5L17.3,11.97A2.011,2.011,0,0,1,15.55,13H8.1l-.9,1.63-.03.12a.25.25,0,0,0,.25.25H19v2H7a2,2,0,0,1-2-2,2.038,2.038,0,0,1,.24-.96L6.6,11.59,3,4H1V2M7,18a2,2,0,1,1-2,2,2,2,0,0,1,2-2m9-7,2.78-5H6.14L8.5,11Z" transform="translate(-1 -2)"/>
</svg>
