<svg xmlns="http://www.w3.org/2000/svg" width="264.958" height="186.407" viewBox="0 0 264.958 186.407">
  <g id="Group_4501" data-name="Group 4501" transform="translate(1145.564 -3312.61)">
    <g id="Group_2378" data-name="Group 2378" transform="translate(-1145.564 3312.61)">
      <path id="Path_3173" data-name="Path 3173" d="M-1095.943,3394.33c-1.09.011-2.158.011-3.237.011h3.237c1.377-.011,2.766,0,4.155,0C-1093.177,3394.341-1094.566,3394.33-1095.943,3394.33Z" transform="translate(1152.419 -3300.533)" fill="#fdfdfd"/>
      <path id="Path_3174" data-name="Path 3174" d="M-917.049,3424.429c-.562.011-1.136.011-1.7.023a33.845,33.845,0,0,0-20.384,6.37,33.35,33.35,0,0,0-12.844,17.71,1.965,1.965,0,0,1-2,1.527c-6.129.287-12.258.585-18.4.849-2.7.126-5.395.2-8.1.253-1.779.046-3.558.011-5.417.011.08.218.172.494.287.838-.184-.046-.344-.023-.4-.1a3.173,3.173,0,0,0-2.7-1.021c-6.267-.31-12.534-.631-18.789-1.056-3.971-.276-7.931-.758-11.9-1.125a9.186,9.186,0,0,1-6.083-3.042c.746,0,1.5,0,2.25.011a1.017,1.017,0,0,0,1.182-1.171c-.1-7.552.034-15.128-.4-22.669a18.7,18.7,0,0,0-3.742-10.2c-1.251-1.653-2.123-3.627-3.535-5.108a37.675,37.675,0,0,0-6.542-5.785,29.608,29.608,0,0,0-15.036-4.993,31.135,31.135,0,0,0-17.159,3.9c-1.745.964-3.524.826-5.349.872a.9.9,0,0,0-.057.207q.086,1.257.172,2.514l-5.165,6.026c3.661.011,7.334-.069,11,.115a7.814,7.814,0,0,1,3.65,1.228,3.468,3.468,0,0,1,1.32,3.926,3.987,3.987,0,0,1-2.915,3.018,10.173,10.173,0,0,1-2.582.276c-4.947.034-9.894.034-14.841.046-3.57,9.194-7.151,18.376-10.824,27.822h1.837c3.845,0,7.7-.011,11.547.011a10.753,10.753,0,0,1,1.584.229l10.238.034c.8-.08,1.619-.172,2.422-.252h21.28c.815.057,1.641.126,2.468.195,1.354-.08,2.72-.195,4.075-.218,2.055-.034,4.109-.011,6.164-.011a15.451,15.451,0,0,1,2.066.034,1.82,1.82,0,0,1,1.148.585c2.938,4.625,7.162,6.519,12.591,7.07a359.036,359.036,0,0,0,47.908,1.813c6.129-.206,12.247-.78,18.376-1.136,1.687-.1,3.386.011,5.085-.011.746-.011.953.379.941,1.01.367-.356.677-.941,1.1-1.044a8.38,8.38,0,0,0,4.5-3.122c1.113-1.309,2.3-2.559,3.443-3.845a15.719,15.719,0,0,0,1.021-1.285c1.481-2.261,3.616-2,5.808-1.5.562-.08,1.136-.161,1.71-.253,1.481-.057,2.973-.172,4.465-.172,4.109-.023,8.23-.034,12.339.023a27.764,27.764,0,0,1,3.34.448c.034-.034.069-.092.1-.092,3.719.034,7.438.057,11.168.092a4.5,4.5,0,0,1,1.194-.322c1.94-.034,3.88-.023,5.923-.023C-892.12,3434.437-903.161,3425.347-917.049,3424.429Zm-158.256,18.342a1.607,1.607,0,0,1-1.228.218c-.321-.149-.448-.7-.631-1.021.252-.562.425-.987.643-1.389,2.261-4.029,4.534-8.057,6.784-12.086.918-1.641,1.79-3.294,2.709-4.936a3.469,3.469,0,0,1,.93-1.331,4.158,4.158,0,0,1,1.6-.252c.057.482.321,1.079.138,1.446-1.3,2.525-2.663,5.016-4.052,7.495-2.032,3.638-4.1,7.254-6.164,10.881A2.528,2.528,0,0,1-1075.305,3442.77Zm5.831-.539a2.226,2.226,0,0,1-1.5.792c-.218.035-.54-.665-.781-.987a9.577,9.577,0,0,1,.448-1.217q5.1-9.09,10.215-18.181c.448-.792,1.056-1.217,1.894-.631.8.563.413,1.309.057,1.963q-1.739,3.185-3.512,6.359C-1064.906,3434.311-1067.156,3438.294-1069.474,3442.231Zm3.788.734c-.253.011-.528-.688-.769-1.033.689-1.32,1.24-2.468,1.871-3.57q4.339-7.73,8.735-15.415c.2-.356.413-.815.734-.941.413-.161,1.148-.2,1.343.046a1.591,1.591,0,0,1,.126,1.423c-1.7,3.237-3.466,6.439-5.245,9.641-1.722,3.076-3.443,6.152-5.257,9.171A2.119,2.119,0,0,1-1065.687,3442.965Zm7.047-.746c-.54.31-1.194.849-1.653.723-.9-.253-.815-1.125-.436-1.825.907-1.7,1.848-3.375,2.8-5.05,2.33-4.144,4.683-8.287,7.024-12.43a5.55,5.55,0,0,1,.976-1.469,1.671,1.671,0,0,1,1.366-.229c.3.092.471.643.7.987-.6,1.159-1.09,2.192-1.653,3.191q-4.39,7.765-8.8,15.518C-1058.421,3441.829-1058.479,3442.127-1058.639,3442.219Zm5.36.149a3.147,3.147,0,0,1-.907.78c-1.3-.046-1.676-.953-1.09-2.066.976-1.825,2-3.615,3-5.418,2.422-4.327,4.855-8.631,7.231-12.97.471-.838,1.033-1.24,1.859-.792.918.494.643,1.171.2,1.963-2.468,4.4-4.878,8.826-7.311,13.234C-1051.282,3438.868-1052.246,3440.635-1053.279,3442.369Zm15.713-18.663c-1.687,3.2-3.5,6.324-5.257,9.481-1.538,2.766-3.065,5.521-4.614,8.275a4.167,4.167,0,0,1-.826,1.251,1.539,1.539,0,0,1-1.217.322c-.333-.1-.528-.62-.746-.9a5.108,5.108,0,0,1,.3-1.079q5.2-9.228,10.4-18.434c.425-.769,1.044-1.228,1.733-.666A1.863,1.863,0,0,1-1037.566,3423.706Z" transform="translate(1153.175 -3300.331)" fill="#f8ba1a"/>
      <path id="Path_3175" data-name="Path 3175" d="M-921.355,3428.924a33.843,33.843,0,0,0-20.385,6.371A33.349,33.349,0,0,0-954.583,3453a1.965,1.965,0,0,1-2,1.527c-6.129.287-12.258.585-18.4.849-2.7.126-5.395.2-8.1.253-1.779.046-3.558.011-5.418.011.08.218.172.494.287.838-.184-.046-.344-.023-.4-.1a3.174,3.174,0,0,0-2.7-1.021c-6.267-.31-12.534-.631-18.789-1.056-3.971-.276-7.931-.758-11.9-1.125a9.184,9.184,0,0,1-6.083-3.042c.746,0,1.5,0,2.25.011a1.017,1.017,0,0,0,1.182-1.171c-.1-7.552.034-15.128-.4-22.669a18.7,18.7,0,0,0-3.742-10.2c-1.251-1.653-2.123-3.627-3.535-5.108a37.684,37.684,0,0,0-6.542-5.785,29.608,29.608,0,0,0-15.036-4.993,31.136,31.136,0,0,0-17.159,3.9c-1.745.964-3.524.826-5.349.872v-3.569c.654-.173,1.481-.138,1.917-.528,1.573-1.4,3.019-2.938,4.5-4.43,1.262-1.274,1.274-1.515.195-3.03,1.917-.092,3.822-.2,5.739-.287l1.94.31a14.969,14.969,0,0,0,3.156.734q20.4.069,40.8,0a17.631,17.631,0,0,0,3.443-.746c.184-.011.367-.011.562-.023-.023,4.35-.207,8.712-.023,13.062a22.766,22.766,0,0,1-1.653,8.551c-1.526,4.362-3.122,8.7-4.58,13.085-1.366,4.132-.758,7.9,2.594,10.915a9.849,9.849,0,0,0,5.337,2.342c.654.333,1.274.734,1.951,1.01,5.555,2.307,11.443,3.053,17.354,3.638a74.41,74.41,0,0,0,19.03-.861,35.839,35.839,0,0,0,12.258-3.787c4.97-.769,8.207-3.478,9.194-8.494a8.967,8.967,0,0,0-.08-3.788c-2.353-9.228-4.809-18.445-7.231-27.661-.241-.93-.493-1.86-.746-2.789l-.551-1.928a2.757,2.757,0,0,1,.046-.3c-.1-.184-.207-.355-.31-.539q-1-3.96-1.986-7.92-1.1-4.15-2.2-8.275c-.367-1.3-.723-2.594-1.09-3.88l.035-.861a1.625,1.625,0,0,1-.23-.046l-.276-1.343c-.712-2.628-1.412-5.245-2.135-7.977h2.64l5.5-.069.367-.034a3.773,3.773,0,0,1,4.052,2.043,23.52,23.52,0,0,0,2.169,2.777q1.98,2.721,3.96,5.452c1.377,1.825,2.743,3.65,4.12,5.475.367.471.735.93,1.1,1.389-.287.379-.585.769-.872,1.148a8.577,8.577,0,0,0,.62,1.618c2.674,4.086,5.36,8.172,8.08,12.224.884,1.32,1.917,2.525,2.869,3.788a2.113,2.113,0,0,1-.069.539c-1.573,5.658.2,8.953,4.189,11.948a6.641,6.641,0,0,0,2.674,1.205c.631.115,1.377-.344,2.077-.539.172.287.344.573.505.861-.6.218-1.194.425-1.756.62.6,1.561,1.09,3.053,1.733,4.476.918,2.077,1.917,4.121,2.915,6.164C-922.2,3427.432-921.768,3428.167-921.355,3428.924Z" transform="translate(1155.782 -3304.803)" fill="#eaeaea"/>
      <path id="Path_3176" data-name="Path 3176" d="M-1040.579,3318.294q-13.687.017-27.375,0a11.215,11.215,0,0,1-1.745-.264q-.017,27.013-.011,54.015a17.576,17.576,0,0,1,2.031-.264c4.075-.023,8.149-.011,12.212-.023,1.217,0,2.433,0,3.65-.011.93-1.813,1.377-1.882,2.8-.654a2.94,2.94,0,0,0,1.7.631c2.25.08,4.5.034,6.749.046.011-.551.046-1.1.046-1.653V3324.2C-1040.522,3322.23-1040.557,3320.268-1040.579,3318.294Zm-13.7,46.3c-.448.539-.184,1.653-.287,2.513-.126,1.1.39,1.607,1.572,1.55v.379c-.379.161-.826.54-1.125.437a1.824,1.824,0,0,1-1.113-.976,9.109,9.109,0,0,1-.161-2.319c-.011-1.939,0-1.939-1.871-2.158a5.621,5.621,0,0,1-.723-.207c.172-1.48,1.308-1.836,2.365-2.146,1.48-.425,2.8.321,3.879,2.077C-1052.688,3364.021-1053.825,3364.033-1054.284,3364.6Zm10.192-.344c-1.779,1.194-1.412,2.766-1.125,4.4a2.554,2.554,0,0,1-.092.563h-1.3a3.581,3.581,0,0,0-.31-4.385,4.8,4.8,0,0,1-.826-1.262c-.528-1.24-.069-1.928,1.263-2a4.31,4.31,0,0,1,1.09.012c.585.126,1.584.252,1.641.539C-1043.621,3362.8-1043.655,3363.964-1044.092,3364.251Z" transform="translate(1156.774 -3311.809)" fill="#fefefe"/>
      <path id="Path_3177" data-name="Path 3177" d="M-1079.125,3372.044a15.382,15.382,0,0,0-2.032-.264q-13.567.12-27.134.264,0-17.216-.023-34.445c.861-.069,1.71-.184,2.571-.184,2.238.023,4.488.23,6.714.1a5.129,5.129,0,0,0,5.05-4.522c.287-3.248-2.4-5.257-5.337-5.291-6.233-.092-12.453-.046-18.686-.057,2.56-.069,5.119-.138,7.69-.184,1.963-.034,1.986-.046,2-2.009q.017-3.581.057-7.162,13.687.017,27.375,0a11.21,11.21,0,0,0,1.745-.264Q-1079.119,3345.043-1079.125,3372.044Z" transform="translate(1149.637 -3311.809)" fill="#fefefe"/>
      <path id="Path_3178" data-name="Path 3178" d="M-1067.566,3318.831q-.017,27.013-.011,54.014a6.73,6.73,0,0,1-1.32.264q-6.956.017-13.911,0a6.728,6.728,0,0,1-1.32-.264q0-27.013-.011-54.014c.011-2.02.023-4.04.023-6.049q7.937-.1,15.862-.172a2.722,2.722,0,0,1,.654.16Z" transform="translate(1154.641 -3312.61)" fill="#f8ba1a"/>
      <path id="Path_3179" data-name="Path 3179" d="M-910.92,3461.078c-2.973,9.079-9.09,15.094-18.273,18-3.673,1.148-7.392,1.125-11.145.987-2.812-.884-5.67-1.618-8.4-2.7a34.4,34.4,0,0,1-4.809-2.789,72.314,72.314,0,0,1-6-6.9c-1.481-2.146-2.341-4.729-3.478-7.127l-.482-2.273-.379-1.859c-.08-1.01-.149-2.02-.23-3.03.2-1.653.39-3.294.585-4.947.367-.355.677-.941,1.1-1.044a8.382,8.382,0,0,0,4.5-3.122c1.113-1.309,2.3-2.559,3.443-3.845.746,1.182,1.928.252,2.846.6a1.066,1.066,0,0,0-.046.264,40.532,40.532,0,0,0-3.065,5.785,17.806,17.806,0,0,0,1.159,14.772,18.2,18.2,0,0,0,14.588,9.974,18.2,18.2,0,0,0,16.918-6.91,18.156,18.156,0,0,0,4.052-13.865,21.185,21.185,0,0,0-3.638-9.5c.964-.1,1.94-.229,2.9-.287,2.078-.115,4.155-.195,6.233-.287A26.051,26.051,0,0,1-910.92,3461.078Z" transform="translate(1172.378 -3293.721)" fill="#fefefe"/>
      <path id="Path_3180" data-name="Path 3180" d="M-1015.138,3391.029c-.2.012-.379.012-.562.023q-15.461-.017-30.921-.035c-5.486,0-10.984.035-16.482.046l-1.94-.31c-.367-.184-.735-.356-1.1-.54a7.038,7.038,0,0,0-3.225-3.639,5.565,5.565,0,0,1-.034-4.373l3-.551c-.333.941-.643,1.894-.987,2.835a3.269,3.269,0,0,0,1.859,3.787,1.044,1.044,0,0,0,.838-.264c.93-.884,1.848-1.779,2.709-2.72.184-.2.1-.62.149-.941a3.036,3.036,0,0,0-1.194-.046c-.39.172-.62.677-1.01.907a10.465,10.465,0,0,1-1.481.585,8.887,8.887,0,0,1,.046-1.664c.184-.838.494-1.642.758-2.468h3.443c.126.792.218,1.3.3,1.8a6.955,6.955,0,0,0,1.469-.62,7.881,7.881,0,0,0,1.1-1.205q24.362,0,48.712.011C-1008.147,3386-1010.512,3390.065-1015.138,3391.029Z" transform="translate(1156.755 -3302.409)" fill="#f8ba1a"/>
      <path id="Path_3181" data-name="Path 3181" d="M-966.393,3342.792v20.04c-1.871.011-3.753.081-5.613.011-1.1-.034-1.584.287-1.5,1.458.092,1.5.034,3.007.046,4.522l-.367.034c.023-1.63.08-3.271.035-4.913,0-.344-.39-.987-.608-.987-2.112.011-4.224.126-6.336.218a10.845,10.845,0,0,0-1.446-.31,9.815,9.815,0,0,1-8.253-4.866,9.611,9.611,0,0,0-1.033-1.251c1.607-.551,3.2-1.09,4.809-1.641a1.559,1.559,0,0,0,1.194-2.112c-.333-1.045-1.171-1.205-2.112-.918-1.4.425-2.789.9-4.178,1.343-.126-4.775,2.181-8.379,6.324-9.894a3.388,3.388,0,0,1,.723.608c1.928,2.938,3.857,5.888,5.75,8.849,1,1.538,1.791,1.676,3.191.505a27,27,0,0,0-1.515-3.547c-1.423-2.433-2.984-4.786-4.5-7.162Q-974.089,3342.78-966.393,3342.792Z" transform="translate(1168.292 -3308.152)" fill="#f8ba1a"/>
      <path id="Path_3182" data-name="Path 3182" d="M-1061.223,3412.789a3.988,3.988,0,0,1-2.915,3.019,10.184,10.184,0,0,1-2.583.275c-4.947.034-9.894.034-14.841.046-6.324-.023-12.66.011-18.984-.115a6.18,6.18,0,0,1-3.374-1.125,3.857,3.857,0,0,1-1.1-4.717,4.138,4.138,0,0,1,4.029-2.594h21.877c.643,0,1.286-.046,1.928-.058,3.661.011,7.334-.069,11,.115a7.812,7.812,0,0,1,3.65,1.228A3.468,3.468,0,0,1-1061.223,3412.789Z" transform="translate(1151.5 -3298.585)" fill="#fefefe"/>
      <path id="Path_3183" data-name="Path 3183" d="M-1028.238,3457.776a26.361,26.361,0,0,1-7.3,14.347c-.769.781-1.561,1.538-2.342,2.307a71.574,71.574,0,0,1-6.5,3.7,47.679,47.679,0,0,1-6.118,1.847c-.3.081-.608.172-.918.264-1.905,0-3.811,0-5.716.011a25.265,25.265,0,0,1-9.871-2.686c-.574-.264-1.125-.574-1.687-.861-.207-.16-.413-.321-.62-.47h-.23l-.551-.344c-.367-.264-.734-.517-1.1-.769-.08-.115-.161-.241-.252-.356a25.668,25.668,0,0,1-7.633-9,26.623,26.623,0,0,1-2.961-9.94c-.482-.023-.964-.08-1.446-.08-4.12,0-8.253.034-12.373-.034a3.864,3.864,0,0,1-2.238-.735,2.012,2.012,0,0,1-.689-2.571,2.606,2.606,0,0,1,2.456-1.664c4.3.046,8.62-.011,12.924.046.987.011,1.4-.126,1.538-1.274a24.309,24.309,0,0,1,3.5-10.009l10.238.034a34.069,34.069,0,0,0-2.284,2.721,18.61,18.61,0,0,0-2.743,16.3,20.989,20.989,0,0,0,5.073,8.494c.436.287.872.574,1.3.861a1.618,1.618,0,0,0,.046.229c1.01.643,2.02,1.274,3.019,1.906a19.709,19.709,0,0,0,10.732,2.02c2.537-.413,5.062-.872,7.174-2.514.172-.011.344-.011.517-.023.448-.379.907-.746,1.366-1.125a1.512,1.512,0,0,0,.057-.218,2.774,2.774,0,0,0,.872-.3,18.538,18.538,0,0,0,6.519-10.7,18.751,18.751,0,0,0-5.475-17.71c1.354-.08,2.72-.195,4.075-.218,2.055-.034,4.109-.011,6.164-.011A27.018,27.018,0,0,1-1028.238,3457.776Z" transform="translate(1152.444 -3293.896)" fill="#fefefe"/>
      <path id="Path_3184" data-name="Path 3184" d="M-1092.675,3331.763a5.129,5.129,0,0,1-5.05,4.522c-2.227.126-4.476-.081-6.714-.1-.861,0-1.71.115-2.571.184-4.476-.023-8.953-.034-13.429-.069a12.247,12.247,0,0,1-2.055-.115,4.847,4.847,0,0,1-4.293-5.28,4.9,4.9,0,0,1,5.016-4.5c1.688-.046,3.386,0,5.073.012,6.232.011,12.453-.035,18.686.057C-1095.074,3326.506-1092.388,3328.514-1092.675,3331.763Z" transform="translate(1148.336 -3310.575)" fill="#fefefe"/>
      <path id="Path_3185" data-name="Path 3185" d="M-1048.6,3366.949c-.827.907-1.664,1.8-2.491,2.709q-5.217.051-10.445.092c-.93,0-1.848,0-2.778.011q-9.486-.017-18.984-.011h-3.053c-3.317-.023-6.646-.058-9.974-.035a2.348,2.348,0,0,1-2.491-1.5c-.4-1.068.229-1.722.93-2.353a10.99,10.99,0,0,1,1.986-.379c7.254.011,14.5.08,21.75.08,8.069.011,16.138-.023,24.218-.046.161.115.321.229.493.344C-1049.161,3366.226-1048.874,3366.582-1048.6,3366.949Z" transform="translate(1152.454 -3304.797)" fill="#373737"/>
      <path id="Path_3186" data-name="Path 3186" d="M-1059.409,3377.82c.861.4,1.366.654,1.894.849a2.039,2.039,0,0,0,.976.126,16.513,16.513,0,0,1,2.95-.677c12.431-.058,24.849-.058,37.269-.069a6.4,6.4,0,0,1,5.153,4.166q-24.362,0-48.712-.011C-1058.239,3381.125-1058.767,3379.645-1059.409,3377.82Z" transform="translate(1158.226 -3302.973)" fill="#fefefe"/>
      <path id="Path_3187" data-name="Path 3187" d="M-993.637,3332.526l-.482,1.928a6.491,6.491,0,0,1-6.68,3.593c-2.009-.115-4.04.011-6.049-.034a5.876,5.876,0,0,1-5.509-7.254,5.845,5.845,0,0,1,5.5-4.384c2.25-.058,4.5-.023,6.737-.012,3.283.023,5.188,1.389,6.29,4.5C-993.763,3331.413-993.694,3331.963-993.637,3332.526Z" transform="translate(1165.223 -3310.581)" fill="#f8ba1a"/>
      <path id="Path_3188" data-name="Path 3188" d="M-1040.576,3312.7v6.381q-13.687.018-27.375,0a11.24,11.24,0,0,1-1.744-.264l-.035-6.061q10.881-.034,21.739-.057C-1045.569,3312.689-1043.147,3312.7-1040.576,3312.7Z" transform="translate(1156.771 -3312.597)" fill="#f8ba1a"/>
      <path id="Path_3189" data-name="Path 3189" d="M-1080.356,3312.773c0,2.009-.011,4.029-.023,6.049a11.209,11.209,0,0,1-1.745.264q-13.687.017-27.375,0c-.023-1.561.023-3.122-.08-4.671-.092-1.32.356-1.756,1.7-1.745,5.682.069,11.375.023,17.068.034C-1087.323,3312.7-1083.834,3312.75-1080.356,3312.773Z" transform="translate(1150.88 -3312.601)" fill="#f8ba1a"/>
      <path id="Path_3190" data-name="Path 3190" d="M-970.126,3431.6a35.845,35.845,0,0,1-12.258,3.787,74.421,74.421,0,0,1-19.03.861c-5.911-.585-11.8-1.331-17.354-3.638-.677-.275-1.3-.677-1.951-1.01q20.832-.017,41.653-.034C-976.083,3431.57-973.11,3431.593-970.126,3431.6Z" transform="translate(1164.014 -3295.03)" fill="#fefefe"/>
      <path id="Path_3191" data-name="Path 3191" d="M-1107.1,3432.217a1.854,1.854,0,0,1-1.286,1.148,21.339,21.339,0,0,1-3.432.1h-31.243a6.994,6.994,0,0,1-1.1-.046,1.494,1.494,0,0,1-1.4-1.721c.057-.93.494-1.584,1.527-1.607,1.148-.023,2.284-.023,3.432-.023h14.324c5.636,0,11.283-.011,16.93.012.574,0,1.343,0,1.676.333A2.289,2.289,0,0,1-1107.1,3432.217Z" transform="translate(1145.564 -3295.252)" fill="#fefefe"/>
      <path id="Path_3192" data-name="Path 3192" d="M-1114.994,3355.214a1.935,1.935,0,0,1-2.192,1.8c-3.765-.011-7.53,0-11.294,0-3.673,0-7.346.012-11.007,0-1.5-.011-2.272-.654-2.341-1.905-.057-1.332.539-2.02,2.089-2.169,1.045-.1,2.112-.08,3.168-.08q8.867-.018,17.756,0a11.842,11.842,0,0,1,1.917.126C-1115.545,3353.217-1114.834,3354.043-1114.994,3355.214Z" transform="translate(1146.115 -3306.663)" fill="#fefefe"/>
      <path id="Path_3193" data-name="Path 3193" d="M-992.754,3346.983c0,1.114-.677,1.756-2,1.768-3.57.023-7.151.011-10.72.011-3.386,0-6.783.011-10.169,0-1.389-.011-2.353-.723-2.4-1.733-.046-1.033,1-1.848,2.41-1.848q10.244-.017,20.488-.011c.138,0,.276,0,.413.011C-993.454,3345.262-992.743,3345.9-992.754,3346.983Z" transform="translate(1164.409 -3307.798)" fill="#fefefe"/>
      <path id="Path_3194" data-name="Path 3194" d="M-965.23,3362.044c-1.263,1.458-2.938.62-4.43.792V3342.8a19.155,19.155,0,0,1,2.7.011c.425.046.8.482,1.205.746a3.462,3.462,0,0,0-.264.918c-.023,5.5-.035,11,.011,16.494C-966.01,3361.321-965.505,3361.677-965.23,3362.044Z" transform="translate(1171.559 -3308.156)" fill="#373737"/>
      <path id="Path_3195" data-name="Path 3195" d="M-1076.641,3392.27c-.838.1-1.676.2-2.514.3q-1.636-4.373-3.271-8.735l-5.544-14.634h3.053q2.1,5.871,4.2,11.73Q-1078.684,3386.594-1076.641,3392.27Z" transform="translate(1154.075 -3304.247)" fill="#fefefe"/>
      <path id="Path_3196" data-name="Path 3196" d="M-1086.43,3393.037c-.034,1.044-.872,1.745-2.215,1.756-.815.012-1.618.012-2.433.012-1.389,0-2.778-.012-4.155,0h-3.237c-1.067,0-2.146,0-3.225-.012-1.446-.011-2.284-.677-2.284-1.79-.011-1.159.746-1.791,2.261-1.791q6.525-.035,13.05-.012C-1087.222,3391.212-1086.407,3391.924-1086.43,3393.037Z" transform="translate(1151.709 -3300.997)" fill="#fefefe"/>
      <path id="Path_3197" data-name="Path 3197" d="M-975.072,3355.122c-1.4,1.171-2.192,1.033-3.191-.505-1.894-2.961-3.822-5.911-5.75-8.849a3.4,3.4,0,0,0-.723-.608c-2.537-4.43-4.545-9.366-10.02-11.145a14.976,14.976,0,0,0-1.733-.356l.482-1.928a13.069,13.069,0,0,1,9.194,6.164c3.409,5.039,6.6,10.215,9.928,15.311A15.815,15.815,0,0,0-975.072,3355.122Z" transform="translate(1167.594 -3309.784)" fill="#f8ba1a"/>
      <path id="Path_3198" data-name="Path 3198" d="M-944.375,3409.563c-5.659.034-9.71-6.095-7.782-11.467a12.766,12.766,0,0,0,.344-2c1.6,1.928,3.283,3.776,4.752,5.8A15.682,15.682,0,0,1-944.375,3409.563Z" transform="translate(1174.074 -3300.271)" fill="#f8ba1a"/>
      <path id="Path_3199" data-name="Path 3199" d="M-965.523,3357.51c-.8.677-.643,3.317.069,4.132-.08.1-.161.2-.241.3-.275-.367-.78-.723-.78-1.079-.046-5.5-.035-11-.011-16.494a3.464,3.464,0,0,1,.264-.918,9.651,9.651,0,0,1,5.177,7.782A17.854,17.854,0,0,1-965.523,3357.51Z" transform="translate(1172.025 -3308.053)" fill="#fefefe"/>
      <path id="Path_3200" data-name="Path 3200" d="M-1075.787,3393.478c.012,1.366.023,2.72.023,4.086,0,.1-.011.218-.011.333v3.569a.9.9,0,0,0-.057.207c-.826,0-1.653-.023-2.479.023-1.021.046-1.377-.425-1.366-1.412.046-2.2.034-4.407,0-6.611-.011-.8-.161-1.618-.253-2.422l-.849-.069c.815-.3.7-.941.562-1.583.838-.1,1.676-.2,2.514-.3v.012c-.838,1.538-1.963,3.03-.792,4.981-.2-1.676-.3-3.328,1.32-4.407l1.412.035c-.011.252-.023.516-.034.769C-1075.787,3391.618-1075.787,3392.548-1075.787,3393.478Z" transform="translate(1155.138 -3301.277)" fill="#f8ba1a"/>
      <path id="Path_3201" data-name="Path 3201" d="M-1045.2,3365.254c-1.182.138-2.169.241-3.168.356-8.08.023-16.149.057-24.218.046-7.254,0-14.5-.069-21.75-.08a10.99,10.99,0,0,0-1.986.379,9.65,9.65,0,0,0-1.687-.31c-3.375-.034-6.749,0-10.123-.034a4.907,4.907,0,0,1-1.412-.482q13.567-.138,27.134-.264a15.382,15.382,0,0,1,2.032.264,6.728,6.728,0,0,0,1.32.264q6.956.017,13.911,0a6.727,6.727,0,0,0,1.32-.264,17.578,17.578,0,0,1,2.032-.264c4.075-.023,8.149-.011,12.212-.023,1.217,0,2.433,0,3.65-.011C-1045.723,3364.956-1045.517,3365.071-1045.2,3365.254Z" transform="translate(1150.888 -3304.893)" fill="#838383"/>
      <path id="Path_3202" data-name="Path 3202" d="M-917.472,3441.334c-2.077.092-4.155.172-6.233.287-.964.057-1.94.184-2.9.287-.184-.092-.367-.2-.551-.287a.8.8,0,0,0-.092-.23c-1.159-1.113-2.33-2.226-3.489-3.34.034-.034.069-.092.1-.092,3.719.034,7.438.057,11.168.092C-918.8,3439.142-918.137,3440.232-917.472,3441.334Z" transform="translate(1177.311 -3294.086)" fill="#fefefe"/>
      <path id="Path_3203" data-name="Path 3203" d="M-950.557,3398.1c-.344.367-.689.723-1.033,1.079-.953-1.263-1.986-2.468-2.869-3.788-2.72-4.052-5.406-8.138-8.08-12.224a8.583,8.583,0,0,1-.62-1.619c.287-.378.585-.769.872-1.148Q-956.417,3389.25-950.557,3398.1Z" transform="translate(1172.52 -3302.592)" fill="#fefefe"/>
      <path id="Path_3204" data-name="Path 3204" d="M-985.912,3353.926c-1.607.551-3.2,1.09-4.809,1.641-1.251.436-2.514.826-3.753,1.32a1.589,1.589,0,0,1-2.238-.953,1.568,1.568,0,0,1,1.148-2.146c1.5-.551,3.03-1.033,4.557-1.549,1.389-.448,2.778-.918,4.178-1.343.941-.287,1.779-.126,2.112.918A1.559,1.559,0,0,1-985.912,3353.926Z" transform="translate(1167.541 -3306.97)" fill="#373737"/>
      <path id="Path_3205" data-name="Path 3205" d="M-975.25,3366.26l-5.5.069-1.412-5.75c2.112-.092,4.224-.207,6.336-.218.218,0,.608.643.608.987C-975.17,3362.988-975.227,3364.63-975.25,3366.26Z" transform="translate(1169.712 -3305.554)" fill="#373737"/>
      <path id="Path_3206" data-name="Path 3206" d="M-975.109,3355.336a15.8,15.8,0,0,1-1.813-1.917c-3.329-5.1-6.519-10.272-9.928-15.311a13.069,13.069,0,0,0-9.194-6.164c-.057-.562-.126-1.113-.2-1.664a5.6,5.6,0,0,0,1.274.711,15.212,15.212,0,0,1,9.71,7.507c1.251,2.112,2.743,4.086,4.132,6.129,1.515,2.376,3.076,4.729,4.5,7.162A27.011,27.011,0,0,1-975.109,3355.336Z" transform="translate(1167.631 -3309.999)" fill="#fefefe"/>
      <path id="Path_3207" data-name="Path 3207" d="M-1079.477,3391.009q0,5.234-.023,10.468c-2.709-.528-3.971-2-4.109-4.74-.046-.9-.161-1.791-.241-2.686a4.486,4.486,0,0,1,3.524-3.111Z" transform="translate(1154.684 -3301.034)" fill="#fefefe"/>
      <path id="Path_3208" data-name="Path 3208" d="M-938.865,3422.468c-.562.011-1.136.011-1.7.023-.413-.757-.849-1.492-1.228-2.261-1-2.043-2-4.086-2.915-6.164-.643-1.423-1.136-2.915-1.733-4.476.562-.2,1.159-.4,1.756-.62Z" transform="translate(1174.99 -3298.37)" fill="#fefefe"/>
      <path id="Path_3209" data-name="Path 3209" d="M-965.512,3360.64c-.712-.815-.872-3.455-.069-4.132a17.851,17.851,0,0,0,4.477-6.278C-960.657,3354.511-961.931,3358.069-965.512,3360.64Z" transform="translate(1172.083 -3307.05)" fill="#f8ba1a"/>
      <path id="Path_3210" data-name="Path 3210" d="M-944.125,3410.052c-.7.2-1.446.654-2.077.539a6.641,6.641,0,0,1-2.674-1.205c-3.994-3-5.762-6.29-4.189-11.948a2.109,2.109,0,0,0,.069-.539c.344-.356.689-.712,1.033-1.079.1.115.2.218.3.321a12.77,12.77,0,0,1-.344,2c-1.928,5.372,2.123,11.5,7.782,11.466Z" transform="translate(1173.927 -3300.313)" fill="#fefefe"/>
      <path id="Path_3211" data-name="Path 3211" d="M-1075.659,3403.935a4.775,4.775,0,0,0-1.664-.253,3.68,3.68,0,0,1-3.466-1.354c.275-.287.562-.574.838-.861q.017-5.234.023-10.468c.092.8.241,1.618.253,2.422.034,2.2.046,4.407,0,6.611-.011.987.344,1.457,1.366,1.412.826-.046,1.653-.023,2.479-.023Z" transform="translate(1155.136 -3301.025)" fill="#fefefe"/>
      <path id="Path_3212" data-name="Path 3212" d="M-1042.558,3365.319h-9.6c.149.126.218.218.276.218l9.32.035a10.44,10.44,0,0,1-1.561.275c-2.4.046-4.8.046-7.2.057l-4.431.241c-.172-.115-.333-.23-.493-.344,1-.115,1.986-.218,3.168-.356-.321-.184-.528-.3-.735-.425.93-1.814,1.377-1.883,2.8-.655a2.941,2.941,0,0,0,1.7.632c2.25.08,4.5.034,6.749.046Z" transform="translate(1158.764 -3305.084)" fill="#9e9e9e"/>
      <path id="Path_3213" data-name="Path 3213" d="M-1079.467,3401.076c-.275.287-.562.574-.838.861a4.5,4.5,0,0,1-3.765-4.5c-.023-1.262.161-2.525.252-3.788.08.9.2,1.791.241,2.686C-1083.438,3399.079-1082.176,3400.548-1079.467,3401.076Z" transform="translate(1154.651 -3300.634)" fill="#f8ba1a"/>
      <path id="Path_3214" data-name="Path 3214" d="M-1043.084,3365.09a.474.474,0,0,1,0,.252l-9.32-.034c-.057,0-.126-.092-.276-.218Z" transform="translate(1159.291 -3304.854)" fill="#7e7e7e"/>
      <path id="Path_3215" data-name="Path 3215" d="M-1045.181,3439.475c-.826-.069-1.653-.137-2.468-.195h-21.28c-.8.08-1.618.172-2.422.252a34.071,34.071,0,0,0-2.284,2.721,18.61,18.61,0,0,0-2.743,16.3,20.989,20.989,0,0,0,5.073,8.494c.436.287.872.574,1.3.861a1.618,1.618,0,0,0,.046.229c1.01.643,2.02,1.274,3.019,1.906a19.709,19.709,0,0,0,10.732,2.02c2.537-.413,5.062-.872,7.173-2.514.172-.011.344-.011.517-.023.448-.379.907-.746,1.366-1.125a1.512,1.512,0,0,0,.057-.218,2.772,2.772,0,0,0,.872-.3,18.538,18.538,0,0,0,6.519-10.7A18.751,18.751,0,0,0-1045.181,3439.475Zm-13.314,20.958a7.231,7.231,0,0,1-7.059-7.185,7.433,7.433,0,0,1,7.116-7.346,7.267,7.267,0,0,1,7.449,7.369C-1051,3457.552-1054.008,3460.433-1058.5,3460.433Z" transform="translate(1155.671 -3293.891)" fill="#373737"/>
      <path id="Path_3216" data-name="Path 3216" d="M-924.27,3441.443c-1.366.069-2.732.2-4.109.207q-6.869.034-13.75,0c-1.917-.023-3.833-.149-5.739-.23H-950.7c-.069-.138-.138-.287-.207-.436,1.308-1.01,2.617-2.02,3.994-3.076-.367-.034-.677-.069-.987-.1,1.481-.057,2.973-.172,4.465-.172,4.109-.023,8.23-.034,12.339.023a27.764,27.764,0,0,1,3.34.448C-926.6,3439.216-925.429,3440.33-924.27,3441.443Z" transform="translate(1174.33 -3294.136)" fill="#373737"/>
      <path id="Path_3217" data-name="Path 3217" d="M-1059.147,3439.8c-1.29-.051-1.677-.958-1.085-2.071.969-1.823,1.989-3.618,3-5.42,2.414-4.319,4.855-8.624,7.232-12.963.462-.842,1.025-1.248,1.857-.8.914.493.635,1.18.189,1.972-2.47,4.389-4.872,8.817-7.306,13.228-.976,1.766-1.945,3.538-2.976,5.271A3.269,3.269,0,0,1-1059.147,3439.8Z" transform="translate(1158.134 -3296.981)" fill="#fefefe"/>
      <path id="Path_3218" data-name="Path 3218" d="M-1052.122,3419.557c-.6,1.159-1.09,2.192-1.652,3.186q-4.383,7.766-8.8,15.516c-.114.2-.162.5-.328.592-.532.3-1.2.851-1.647.724-.894-.251-.818-1.126-.443-1.832.9-1.7,1.855-3.37,2.8-5.046q3.507-6.217,7.03-12.427a5.119,5.119,0,0,1,.979-1.472,1.677,1.677,0,0,1,1.359-.233C-1052.516,3418.657-1052.35,3419.21-1052.122,3419.557Z" transform="translate(1157.432 -3296.96)" fill="#fefefe"/>
      <path id="Path_3219" data-name="Path 3219" d="M-1055.868,3438.792a5.356,5.356,0,0,1,.3-1.087c3.459-6.144,6.94-12.277,10.391-18.425.433-.77,1.048-1.227,1.733-.664a1.845,1.845,0,0,1,.235,1.744c-1.688,3.2-3.5,6.326-5.261,9.483-1.54,2.756-3.066,5.519-4.606,8.274a4.286,4.286,0,0,1-.828,1.247,1.543,1.543,0,0,1-1.219.323C-1055.451,3439.586-1055.654,3439.07-1055.868,3438.792Z" transform="translate(1158.819 -3296.982)" fill="#fefefe"/>
      <path id="Path_3220" data-name="Path 3220" d="M-1074.631,3438.69a9.442,9.442,0,0,1,.452-1.22q5.1-9.094,10.214-18.178c.45-.8,1.052-1.226,1.889-.636.8.568.417,1.3.059,1.96-1.163,2.127-2.325,4.253-3.517,6.364-2.247,3.981-4.491,7.965-6.811,11.9a2.249,2.249,0,0,1-1.508.789C-1074.071,3439.7-1074.395,3439-1074.631,3438.69Z" transform="translate(1156.047 -3296.979)" fill="#fefefe"/>
      <path id="Path_3221" data-name="Path 3221" d="M-1070.014,3438.568c.689-1.322,1.246-2.47,1.872-3.581q4.349-7.713,8.735-15.408c.2-.351.419-.817.741-.942.4-.157,1.145-.2,1.341.04a1.571,1.571,0,0,1,.125,1.423c-1.7,3.238-3.464,6.447-5.245,9.643-1.716,3.08-3.446,6.153-5.258,9.175a2.1,2.1,0,0,1-1.539.675C-1069.49,3439.6-1069.771,3438.909-1070.014,3438.568Z" transform="translate(1156.729 -3296.96)" fill="#fefefe"/>
      <path id="Path_3222" data-name="Path 3222" d="M-1079.343,3438.583c.258-.559.424-.987.646-1.384,2.258-4.033,4.53-8.058,6.786-12.092.916-1.636,1.791-3.3,2.7-4.935a3.581,3.581,0,0,1,.936-1.333,4.169,4.169,0,0,1,1.586-.251c.057.489.325,1.085.139,1.448-1.295,2.529-2.662,5.02-4.048,7.5-2.033,3.636-4.1,7.254-6.16,10.873a2.64,2.64,0,0,1-.726.98,1.561,1.561,0,0,1-1.23.216C-1079.026,3439.46-1079.157,3438.91-1079.343,3438.583Z" transform="translate(1155.35 -3296.948)" fill="#fefefe"/>
      <path id="Path_3223" data-name="Path 3223" d="M-952.886,3441.435c-.915-.353-2.1.578-2.841-.6.34-.427.716-.831,1.015-1.285,1.489-2.266,3.617-2,5.811-1.5Q-950.893,3439.74-952.886,3441.435Z" transform="translate(1173.618 -3294.123)" fill="#fefefe"/>
      <path id="Path_3224" data-name="Path 3224" d="M-950.352,3441.4h2.835l-3.627.276c-.712,0-1.435.011-2.146.011a1.065,1.065,0,0,1,.046-.264c1.331-1.125,2.651-2.249,3.983-3.386.562-.08,1.136-.16,1.71-.253.31.035.62.069.987.1-1.377,1.056-2.686,2.066-3.994,3.076C-950.489,3441.108-950.421,3441.258-950.352,3441.4Z" transform="translate(1173.978 -3294.112)" fill="#373737"/>
      <path id="Path_3225" data-name="Path 3225" d="M-1016.567,3389.844a17.612,17.612,0,0,1-3.443.746q-20.4.069-40.8,0a14.955,14.955,0,0,1-3.156-.735c5.5-.011,11-.046,16.482-.046Q-1032.027,3389.81-1016.567,3389.844Z" transform="translate(1157.622 -3301.201)" fill="#656565"/>
      <path id="Path_3226" data-name="Path 3226" d="M-1070,3392.86c-1.481,1.492-2.927,3.03-4.5,4.43-.436.39-1.262.356-1.917.528,0-.115.012-.229.012-.333.838.31,1.515.115,1.71-.781a5.075,5.075,0,0,1,4.086-4.212c1.228-.287,1.446-1.056.631-1.986-.218-.229-.448-.447-.677-.677h.849C-1068.73,3391.345-1068.741,3391.586-1070,3392.86Z" transform="translate(1155.782 -3301.198)" fill="#f8ba1a"/>
      <path id="Path_3227" data-name="Path 3227" d="M-1053.262,3358.144c-.937.278-2.067.284-2.527.843s-.186,1.658-.286,2.515c-.131,1.107.383,1.609,1.567,1.552v.374c-.379.165-.83.543-1.121.445a1.85,1.85,0,0,1-1.118-.979,8.875,8.875,0,0,1-.153-2.318c-.02-1.941-.01-1.937-1.874-2.159a5.025,5.025,0,0,1-.724-.212c.167-1.471,1.3-1.834,2.365-2.14C-1055.653,3355.637-1054.332,3356.383-1053.262,3358.144Z" transform="translate(1158.283 -3306.206)" fill="#f8ba1a"/>
      <path id="Path_3228" data-name="Path 3228" d="M-1048.114,3363.606h-1.294a3.562,3.562,0,0,0-.313-4.383,4.96,4.96,0,0,1-.816-1.259c-.529-1.238-.076-1.931,1.257-2a4.234,4.234,0,0,1,1.094.007c.584.125,1.584.257,1.637.535.132.69.088,1.848-.342,2.137-1.783,1.2-1.408,2.774-1.127,4.4A2.244,2.244,0,0,1-1048.114,3363.606Z" transform="translate(1159.575 -3306.207)" fill="#f8ba1a"/>
      <path id="Path_3229" data-name="Path 3229" d="M-1058.662,3382.175a7.874,7.874,0,0,1-1.1,1.205,6.956,6.956,0,0,1-1.469.62c-.08-.5-.172-1.01-.3-1.8h-3.443c-.092-.2-.2-.39-.287-.574-.953-.562-1.905-1.113-2.858-1.676.861-.436,1.722-.884,2.594-1.32.448-.207.884-.4,1.332-.608.62.034,1.24.069,2.215.126a9.1,9.1,0,0,0-1.2,1.412,2.666,2.666,0,0,0-.1,1.067,3.626,3.626,0,0,0,1.079-.115c.264-.115.4-.574.666-.666.574-.207,1.331-.574,1.779-.356.792.367.528,1.113.046,1.722a9.072,9.072,0,0,0-.459.8C-1059.569,3382.083-1059.122,3382.129-1058.662,3382.175Z" transform="translate(1157.009 -3302.944)" fill="#f8ba1a"/>
      <path id="Path_3230" data-name="Path 3230" d="M-1065.309,3381.156c.1.193.192.386.288.579-.26.821-.576,1.629-.76,2.466a8.508,8.508,0,0,0-.045,1.661,9.221,9.221,0,0,0,1.487-.584c.382-.228.617-.732,1.01-.9.326-.143.786.021,1.187.049-.04.317.036.741-.14.934-.864.944-1.779,1.844-2.714,2.718a1.071,1.071,0,0,1-.833.274,3.282,3.282,0,0,1-1.861-3.8c.342-.938.655-1.888.981-2.833Z" transform="translate(1157.054 -3302.48)" fill="#f8ba1a"/>
      <path id="Path_3231" data-name="Path 3231" d="M-1065.064,3381.375c-.471.184-.941.367-1.4.562l-3,.551c.516-.93,1.022-1.859,1.538-2.789C-1066.969,3380.262-1066.016,3380.813-1065.064,3381.375Z" transform="translate(1156.811 -3302.695)" fill="#757575"/>
      <path id="Path_3232" data-name="Path 3232" d="M-1066.2,3389.578a6.164,6.164,0,0,1-3.225-3.639A7.038,7.038,0,0,1-1066.2,3389.578Z" transform="translate(1156.815 -3301.773)" fill="#f8ba1a"/>
      <path id="Path_3233" data-name="Path 3233" d="M-1062.411,3379.036c-.562.092-1.125.2-1.687.287-.448.207-.884.4-1.332.608-.482-1.779-.9-3.57-1.446-5.326-.574-1.825-1.263-3.6-1.894-5.394.93-.011,1.848-.011,2.778-.011.918,2.376,1.836,4.74,2.755,7.116Z" transform="translate(1156.913 -3304.247)" fill="#fefefe"/>
      <path id="Path_3234" data-name="Path 3234" d="M-1055.941,3369.469h-1.309c.826-.906,1.664-1.8,2.491-2.709C-1054.254,3368.057-1054.9,3368.849-1055.941,3369.469Z" transform="translate(1158.615 -3304.608)" fill="#5f5f5f"/>
      <path id="Path_3235" data-name="Path 3235" d="M-1070.609,3392.492a5.075,5.075,0,0,0-4.086,4.212c-.2.9-.872,1.091-1.71.781,0-1.366-.012-2.72-.023-4.086,1.389.723,2.571.551,3.053-.516a1.7,1.7,0,0,0-1.01-2.353c-.551-.252-1.354.035-2.054.081.011-.253.023-.517.034-.769,1.917-.011,3.834-.011,5.75-.011.23.229.459.448.677.677C-1069.163,3391.437-1069.381,3392.206-1070.609,3392.492Z" transform="translate(1155.779 -3301.198)" fill="#f8ba1a"/>
      <path id="Path_3236" data-name="Path 3236" d="M-1076.435,3390.538c.691-.048,1.495-.342,2.05-.09a1.7,1.7,0,0,1,1.008,2.355c-.476,1.071-1.659,1.246-3.049.52Q-1076.431,3391.932-1076.435,3390.538Z" transform="translate(1155.78 -3301.122)" fill="#f8ba1a"/>
      <path id="Path_3237" data-name="Path 3237" d="M-1078.725,3394.291c-1.171-1.951-.046-3.443.792-4.981.172.195.344.378.528.573C-1079.024,3390.963-1078.92,3392.615-1078.725,3394.291Z" transform="translate(1155.367 -3301.275)" fill="#fefefe"/>
      <path id="Path_3238" data-name="Path 3238" d="M-919.1,3450.973a21.185,21.185,0,0,0-3.638-9.5c-.184-.092-.367-.2-.551-.287a.8.8,0,0,0-.092-.229c-1.366.069-2.732.2-4.109.207q-6.869.034-13.75,0c-1.917-.023-3.834-.149-5.739-.229l-3.627.275c-.712,0-1.435.011-2.146.011a40.532,40.532,0,0,0-3.065,5.785,17.806,17.806,0,0,0,1.159,14.772,18.2,18.2,0,0,0,14.588,9.974,18.2,18.2,0,0,0,16.918-6.91A18.156,18.156,0,0,0-919.1,3450.973Zm-26,1.986a7.043,7.043,0,0,1,7.3-7.254,7.482,7.482,0,0,1,7.288,7.323,7.358,7.358,0,0,1-7.334,7.2C-942.036,3460.293-945.445,3456.781-945.1,3452.958Z" transform="translate(1173.444 -3293.647)" fill="#373737"/>
      <path id="Path_3239" data-name="Path 3239" d="M-1052.485,3452.418c-.012,4.281-3.019,7.162-7.506,7.162a7.231,7.231,0,0,1-7.059-7.185,7.433,7.433,0,0,1,7.116-7.346A7.267,7.267,0,0,1-1052.485,3452.418Z" transform="translate(1157.167 -3293.038)" fill="#fefefe"/>
      <path id="Path_3240" data-name="Path 3240" d="M-932.029,3452.413a7.358,7.358,0,0,1-7.334,7.2c-4.19.069-7.6-3.443-7.254-7.265a7.043,7.043,0,0,1,7.3-7.254A7.482,7.482,0,0,1-932.029,3452.413Z" transform="translate(1174.961 -3293.032)" fill="#fefefe"/>
    </g>
    <path id="Path_3241" data-name="Path 3241" d="M-1053.75,3377.76" transform="translate(13.568 9.628)" fill="#fefefe"/>
    <path id="Path_3242" data-name="Path 3242" d="M-1069.46,3382.845s1.762-8.251,17.285-4.648-1.262,4.086-1.262,4.086Z" transform="translate(11.247 9.558)" fill="#fefefe"/>
  </g>
</svg>
