<svg id="Group_69" data-name="Group 69" xmlns="http://www.w3.org/2000/svg" viewBox="0 0 302.548 243.137">
  <defs>
    <style>
      .cls-1 {
        fill: #5f580c;
      }

      .cls-2 {
        fill: #f26b3c;
      }

      .cls-3 {
        fill: #f2ca22;
      }

      .cls-4 {
        fill: #cf4c30;
      }

      .cls-5 {
        fill: #ffce00;
        opacity: 0.656;
      }

      .cls-16, .cls-6 {
        fill: none;
      }

      .cls-7 {
        fill: #49505a;
      }

      .cls-8 {
        fill: #e8e6dd;
        stroke: #c1a017;
      }

      .cls-16, .cls-8 {
        stroke-linecap: round;
        stroke-linejoin: round;
        stroke-miterlimit: 10;
        stroke-width: 1.563px;
      }

      .cls-9 {
        fill: #cea90f;
      }

      .cls-10 {
        fill: #fdab10;
      }

      .cls-11 {
        fill: #eac113;
      }

      .cls-12 {
        fill: #c2412d;
      }

      .cls-13 {
        fill: #ad8f10;
      }

      .cls-14 {
        fill: #59364c;
      }

      .cls-15 {
        fill: #846600;
      }

      .cls-16 {
        stroke: #e8e6dd;
      }
    </style>
  </defs>
  <path id="Path_120" data-name="Path 120" class="cls-1" d="M131.349,81.076H132.7a4.1,4.1,0,0,0,4.046-4.046V58.146A4.1,4.1,0,0,0,132.7,54.1H35.246A4.1,4.1,0,0,0,31.2,58.146V77.03a4.1,4.1,0,0,0,4.046,4.046Z" transform="translate(21.404 37.113)"/>
  <path id="Path_121" data-name="Path 121" class="cls-2" d="M130.577,84.114V7.57a6.044,6.044,0,0,0-6.07-6.07H39.87A6.044,6.044,0,0,0,33.8,7.57V84.114a6.044,6.044,0,0,0,6.07,6.07h84.638A6.044,6.044,0,0,0,130.577,84.114Z" transform="translate(23.187 1.029)"/>
  <g id="Group_62" data-name="Group 62" transform="translate(35.565 7.924)">
    <path id="Path_122" data-name="Path 122" class="cls-3" d="M288,160.825c-1.855-12.476-10.285-45.354-48.389-46.871a4.009,4.009,0,0,1-3.709-2.7L208.588,36.734a3.288,3.288,0,0,1-.169-2.192l4.046-3.372a4.319,4.319,0,0,0,4.215-4.384l-.843-18.04A4.375,4.375,0,0,0,211.623,4.7H193.246a4.394,4.394,0,0,0-3.709,2.192l-9.779,17.2a4.489,4.489,0,0,0-.506,2.023l-2.866,127.462a4.035,4.035,0,0,1-4.215,4.046H142.5a4.174,4.174,0,0,1-4.215-4.215V114.628a4.174,4.174,0,0,0-4.215-4.215H63.929c-4.046.674-40.97,8.43-42.825,61.2A4.212,4.212,0,0,0,25.319,176H29.7c0-1.012-.169-2.192-.169-3.2a52.1,52.1,0,0,1,104.2,0,20.405,20.405,0,0,1-.169,3.2h43.33c0-1.012-.169-2.192-.169-3.2a52.086,52.086,0,0,1,103.69-7.081h3.541A4.293,4.293,0,0,0,288,160.825Z" transform="translate(-21.094 -4.7)"/>
    <path id="Path_123" data-name="Path 123" class="cls-4" d="M78.1,73.4A52.024,52.024,0,0,0,26,125.5a20.4,20.4,0,0,0,.169,3.2H130.027c0-1.012.169-2.192.169-3.2A52.024,52.024,0,0,0,78.1,73.4Z" transform="translate(-17.729 42.429)"/>
    <path id="Path_124" data-name="Path 124" class="cls-5" d="M78.1,73.4A52.024,52.024,0,0,0,26,125.5a20.4,20.4,0,0,0,.169,3.2H130.027c0-1.012.169-2.192.169-3.2A52.024,52.024,0,0,0,78.1,73.4Z" transform="translate(-17.729 42.429)"/>
    <path id="Path_125" data-name="Path 125" class="cls-4" d="M165.4,73.4a52.024,52.024,0,0,0-52.1,52.1,20.406,20.406,0,0,0,.169,3.2H208.9a4.174,4.174,0,0,0,4.215-4.215v-2.023a4.225,4.225,0,0,1,3.878-4.215A52.165,52.165,0,0,0,165.4,73.4Z" transform="translate(42.16 42.429)"/>
    <path id="Path_126" data-name="Path 126" class="cls-5" d="M165.4,73.4a52.024,52.024,0,0,0-52.1,52.1,20.406,20.406,0,0,0,.169,3.2H208.9a4.174,4.174,0,0,0,4.215-4.215v-2.023a4.225,4.225,0,0,1,3.878-4.215A52.165,52.165,0,0,0,165.4,73.4Z" transform="translate(42.16 42.429)"/>
  </g>
  <g id="Group_65" data-name="Group 65" transform="translate(0 108.659)">
    <g id="Group_64" data-name="Group 64" transform="translate(0 19.646)">
      <path id="Path_127" data-name="Path 127" class="cls-6" d="M28.53,107.2Z" transform="translate(19.521 -54.765)"/>
      <path id="Path_128" data-name="Path 128" class="cls-6" d="M30.174,94.969V94.8H29.5C29.837,94.8,30.006,94.969,30.174,94.969Z" transform="translate(20.237 -63.272)"/>
      <g id="Group_63" data-name="Group 63">
        <path id="Path_129" data-name="Path 129" class="cls-7" d="M94.621,76.269c-.337,0-.674-.169-1.18-.169H56.518a5.374,5.374,0,0,0-1.18,10.622H60.4a2.138,2.138,0,0,1,1.012.169h.169a5.418,5.418,0,0,1,4.215,5.227,5.5,5.5,0,0,1-3.541,5.058,6.061,6.061,0,0,1-1.855.337H28.867a5.331,5.331,0,0,0-3.541,5.058A5.126,5.126,0,0,0,28.7,107.46H44.041a6.061,6.061,0,0,1,1.855.337h.843v.169a5.334,5.334,0,0,1,2.866,4.721,5.517,5.517,0,0,1-5.227,5.4H11a5.4,5.4,0,0,0,0,10.79H49.6a5.4,5.4,0,1,1,0,10.79H44.041a5.4,5.4,0,1,0,0,10.79H67.982a5.433,5.433,0,0,1,5.4,5.4,5.5,5.5,0,0,1-5.058,5.4H56.686a5.259,5.259,0,0,0-5.058,5.4,5.433,5.433,0,0,0,5.4,5.4H90.069a2.869,2.869,0,0,0,1.18-.169h.337a47.418,47.418,0,0,0,47.377-47.377C138.795,98.524,119.406,77.955,94.621,76.269Z" transform="translate(3.842 -76.1)"/>
        <path id="Path_130" data-name="Path 130" class="cls-7" d="M37.438,118.7a5.433,5.433,0,0,0-5.4-5.4H7.6a5.4,5.4,0,1,0,0,10.79H32.211A5.517,5.517,0,0,0,37.438,118.7Z" transform="translate(1.509 -50.58)"/>
        <path id="Path_131" data-name="Path 131" class="cls-7" d="M32.931,126.2H24a5.4,5.4,0,1,0,0,10.79h8.936a5.433,5.433,0,0,0,5.4-5.4A5.326,5.326,0,0,0,32.931,126.2Z" transform="translate(12.76 -41.731)"/>
        <path id="Path_132" data-name="Path 132" class="cls-7" d="M16.515,86.722H38.6A5.272,5.272,0,0,0,42.648,81.5a5.433,5.433,0,0,0-5.4-5.4H17.7a5.433,5.433,0,0,0-5.4,5.4A5.569,5.569,0,0,0,16.515,86.722Z" transform="translate(8.438 -76.1)"/>
        <path id="Path_133" data-name="Path 133" class="cls-7" d="M13.151,99.122h6.07a6.061,6.061,0,0,0,1.855-.337A5.292,5.292,0,0,0,24.447,93.9a5.433,5.433,0,0,0-5.4-5.4H5.4a5.4,5.4,0,1,0,0,10.79h7.756Z" transform="translate(0 -67.593)"/>
      </g>
    </g>
    <circle id="Ellipse_13" data-name="Ellipse 13" class="cls-7" cx="47.545" cy="47.545" r="47.545" transform="translate(28.711 67.239) rotate(-45)"/>
    <circle id="Ellipse_14" data-name="Ellipse 14" class="cls-8" cx="21.244" cy="21.244" r="21.244" transform="translate(74.69 45.948)"/>
  </g>
  <circle id="Ellipse_15" data-name="Ellipse 15" class="cls-7" cx="47.545" cy="47.545" r="47.545" transform="matrix(0.233, -0.973, 0.973, 0.233, 185.858, 211.073)"/>
  <circle id="Ellipse_16" data-name="Ellipse 16" class="cls-8" cx="21.244" cy="21.244" r="21.244" transform="translate(221.879 154.607)"/>
  <path id="Path_134" data-name="Path 134" class="cls-9" d="M149.377,37.586a18.293,18.293,0,1,1,0-36.586" transform="translate(89.867 0.686)"/>
  <g id="Group_66" data-name="Group 66" transform="translate(234.018 1.686)">
    <path id="Path_135" data-name="Path 135" class="cls-10" d="M142,4.372a15.175,15.175,0,0,1,11.971,14.837A15.349,15.349,0,0,1,142,34.046V4.372M138.8,1V37.586A18.293,18.293,0,1,0,138.8,1Z" transform="translate(-138.8 -1)"/>
  </g>
  <rect id="Rectangle_154" data-name="Rectangle 154" class="cls-11" width="9.947" height="40.633" transform="translate(231.321)"/>
  <g id="Group_67" data-name="Group 67" transform="translate(169.107 16.186)">
    <line id="Line_1" data-name="Line 1" class="cls-12" x1="35.069" transform="translate(4.215 4.215)"/>
    <path id="Path_136" data-name="Path 136" class="cls-13" d="M139.584,18.03H104.515a4.215,4.215,0,0,1,0-8.43h35.069a4.174,4.174,0,0,1,4.215,4.215A4.4,4.4,0,0,1,139.584,18.03Z" transform="translate(-100.3 -9.6)"/>
  </g>
  <g id="Group_68" data-name="Group 68" transform="translate(168.095 14.331)">
    <line id="Line_2" data-name="Line 2" class="cls-14" x1="13.657" transform="translate(5.901 6.07)"/>
    <path id="Path_137" data-name="Path 137" class="cls-15" d="M119.258,20.639H105.77a6.07,6.07,0,0,1,0-12.139h13.488a6.07,6.07,0,1,1,0,12.139Z" transform="translate(-99.7 -8.5)"/>
  </g>
  <path id="Path_138" data-name="Path 138" class="cls-16" d="M88.79,14.3H66.029L49,42.794l20.232-5.4L54.058,68.252l40.8-42.15H73.279Z" transform="translate(33.614 9.81)"/>
</svg>
