<?xml version="1.0" encoding="iso-8859-1"?>
<!-- Generator: Adobe Illustrator 19.0.0, SVG Export Plug-In . SVG Version: 6.00 Build 0)  -->
<svg version="1.1" id="Layer_1" xmlns="http://www.w3.org/2000/svg" xmlns:xlink="http://www.w3.org/1999/xlink" x="0px" y="0px"
	 viewBox="0 0 469.335 469.335" style="enable-background:new 0 0 469.335 469.335;" xml:space="preserve">
<g>
	<g>
		<g>
			<path d="M469.331,181.335c-0.003-3.298-1.521-6.409-4.133-8.427c0,0-25.895-18.247-59.865-44.906V85.335
				c0-23.531-19.469-42.667-43-42.667h-61.792c-15.199-12.413-28.389-23.387-37.198-31.198c-8.57-7.575-18.803-11.55-29.013-11.469
				c-9.993,0.08-19.963,4.055-28.331,11.469c-8.809,7.811-21.997,18.785-37.207,31.198h-62.46
				c-23.531,0-42.333,19.135-42.333,42.667v42.667c-33.622,26.397-59.854,44.896-59.865,44.906c-2.612,2.018-4.13,5.129-4.133,8.427
				H0.001v245.333c0,23.531,19.135,42.667,42.667,42.667h384c23.531,0,42.667-19.135,42.667-42.667V181.335H469.331z
				 M405.334,153.013c15.076,11.803,27.861,21.766,36.271,28.311c-8.398,6.518-21.206,16.48-36.271,28.259V153.013z M220.48,27.439
				c5.667-5,18.75-9.115,29.052,0.01c4.801,4.246,10.855,9.406,17.81,15.219h-64.674C209.624,36.854,215.679,31.69,220.48,27.439z
				 M85.334,85.335c0-11.76,9.573-21.333,21.333-21.333h256c11.76,0,21.333,9.573,21.333,21.333v140.967
				C336.325,263.747,276.672,311.2,249.532,335.22c-2.573,2.281-7.938,6.115-14.865,6.115c-5.063,0-9.948-2.052-14.531-6.115
				c-27.391-24.253-87.199-71.901-134.802-109.352V85.335z M64.001,153.542v55.579c-14.77-11.568-27.335-21.357-35.604-27.786
				C36.676,174.891,49.231,165.108,64.001,153.542z M448.334,426.668c0,11.76-9.573,21.333-21.333,21.333h-384
				c-11.76,0-21.667-9.573-21.667-21.333V203.113c44.49,34.63,147.754,115.396,184.656,148.086
				c8.479,7.5,18.396,11.469,28.677,11.469c10.354,0,20.656-4.073,29.01-11.469c38.414-34.008,143.335-115.977,184.656-148.092
				V426.668z"/>
			<path d="M245.334,149.335h85.333c5.896,0,10.667-4.771,10.667-10.667s-4.771-10.667-10.667-10.667h-85.333
				c-5.896,0-10.667,4.771-10.667,10.667S239.438,149.335,245.334,149.335z"/>
			<path d="M245.334,213.335h85.333c5.896,0,10.667-4.771,10.667-10.667s-4.771-10.667-10.667-10.667h-85.333
				c-5.896,0-10.667,4.771-10.667,10.667S239.438,213.335,245.334,213.335z"/>
			<path d="M298.667,266.668c0-5.896-4.771-10.667-10.667-10.667H181.334c-5.896,0-10.667,4.771-10.667,10.667
				s4.771,10.667,10.667,10.667h106.667C293.896,277.335,298.667,272.564,298.667,266.668z"/>
			<path d="M170.667,211.37c12.389-4.418,21.333-16.147,21.333-30.035c0-17.646-14.354-32-32-32
				c-5.885,0-10.667-4.781-10.667-10.667s4.781-10.667,10.667-10.667h21.333c5.896,0,10.667-4.771,10.667-10.667
				c0-5.896-4.771-10.667-10.667-10.667h-10.667c0-5.896-4.771-10.667-10.667-10.667c-5.896,0-10.667,4.771-10.667,10.667v1.965
				c-12.389,4.418-21.333,16.147-21.333,30.035c0,17.646,14.354,32,32,32c5.885,0,10.667,4.781,10.667,10.667
				c0,5.885-4.781,10.667-10.667,10.667h-21.333c-5.896,0-10.667,4.771-10.667,10.667s4.771,10.667,10.667,10.667h10.667
				c0,5.896,4.771,10.667,10.667,10.667c5.896,0,10.667-4.771,10.667-10.667V211.37z"/>
		</g>
	</g>
</g>
<g>
</g>
<g>
</g>
<g>
</g>
<g>
</g>
<g>
</g>
<g>
</g>
<g>
</g>
<g>
</g>
<g>
</g>
<g>
</g>
<g>
</g>
<g>
</g>
<g>
</g>
<g>
</g>
<g>
</g>
</svg>
