<?xml version="1.0" encoding="utf-8"?>
<!-- Generator: Adobe Illustrator 22.1.0, SVG Export Plug-In . SVG Version: 6.00 Build 0)  -->
<svg version="1.1" id="Layer_1" xmlns="http://www.w3.org/2000/svg" xmlns:xlink="http://www.w3.org/1999/xlink" x="0px" y="0px"
	 viewBox="0 0 100 100" style="enable-background:new 0 0 100 100;" xml:space="preserve">
<style type="text/css">
	.st0{fill:none;}
</style>
<g>
	<g>
		<g>
			<path class="st0" d="M27.8,57.1c0,0-3.6-0.1-4.8,0c-1.6,0.2-7.3,6.3,0,10c1.1,0.5,4.8,0.2,4.8,0.2V57.1z"/>
			<path d="M25.7,68.3c-1.1,0-2.4-0.1-3.1-0.4c-4.1-2.1-4.3-5-4-6.5c0.5-2.7,3-5,4.3-5.1c1.2-0.1,4.8,0,4.9,0l0.8,0v11.9l-0.8,0.1
				C27.5,68.2,26.6,68.3,25.7,68.3z M24.8,57.9c-0.7,0-1.3,0-1.7,0.1c-0.6,0.1-2.5,1.8-2.8,3.9c-0.3,1.8,0.8,3.4,3.1,4.6
				c0.5,0.2,2.1,0.3,3.6,0.2v-8.7C26.3,57.9,25.5,57.9,24.8,57.9z"/>
		</g>
		<g>
			<path class="st0" d="M82.5,57.1c0,0,3.6-0.1,4.8,0c1.6,0.2,7.3,6.3,0,10c-1.1,0.5-4.8,0-4.8,0V57.1z"/>
			<path d="M85.5,68.3c-1.2,0-2.6-0.2-3.1-0.3l-0.7-0.1V56.3l0.8,0c0.2,0,3.7-0.1,4.9,0c1.3,0.1,3.8,2.4,4.3,5.1
				c0.3,1.5,0.2,4.4-4,6.5C87.2,68.2,86.4,68.3,85.5,68.3z M83.3,66.4c1.5,0.2,3.1,0.2,3.6,0c2.4-1.2,3.4-2.7,3.1-4.6
				c-0.3-2.1-2.3-3.8-2.8-3.9c-0.7-0.1-2.6-0.1-3.9,0V66.4z"/>
		</g>
		<g>
			<path class="st0" d="M49.8,88.2c0,0-0.1,3.6,0,4.8c0.2,1.6,6.3,7.3,10,0c0.5-1.1,0-4.8,0-4.8H49.8z"/>
			<path d="M55.1,97.5c-0.4,0-0.7,0-1-0.1c-2.7-0.5-5-3-5.1-4.3c-0.1-1.2,0-4.8,0-4.9l0-0.8h11.6l0.1,0.7c0.1,0.9,0.5,4.1-0.1,5.3
				C58.9,96.8,56.6,97.5,55.1,97.5z M50.6,89.1c0,1.2-0.1,3.1,0,3.9c0.1,0.6,1.8,2.5,3.9,2.8c1.8,0.3,3.4-0.8,4.6-3.1
				c0.2-0.4,0.2-2.1,0-3.6H50.6z"/>
		</g>
		<g>
			<path class="st0" d="M81.9,74.6c0,4.3-6.2,13.6-16.7,13.6c-11.3,0-10.1,0-10.1,0h-0.7c0,0,1.2,0-10.1,0
				c-10.5,0-16.7-9.3-16.7-13.6c0-7.2,0-26.6,0-26.6h46.3c0,0,1.5-0.2,1.7,1.9s0,4.2,0,4.2s0.1,1.9,1.7,1.9c1.6,0,4.5,0.2,4.5,0.2
				S81.9,67.4,81.9,74.6z"/>
			<path d="M65.3,89.1H55.2l10.1-1.7c9.8,0,15.8-8.8,15.8-12.7V56.9c-1,0-2.6-0.1-3.6-0.1c-1.8,0-2.5-1.6-2.5-2.7
				c0-0.1,0.2-2.2,0-4.2c0-0.3-0.1-0.7-0.4-0.9c-0.2-0.1-0.4-0.1-0.4-0.1l0,0l-45.5,0v25.8c0,3.9,6,12.7,15.8,12.7h10.1l-10.1,1.7
				C33.8,89.1,27,79.6,27,74.7V47.2h47.1c0,0,0.8-0.1,1.6,0.5c0.6,0.5,0.9,1.2,1,2.1c0.2,2.1,0,4.2,0,4.3c0,0.1,0.1,0.9,0.8,0.9
				c1.6,0,4.5,0.2,4.5,0.2l0.8,0v19.4C82.8,79.6,76,89.1,65.3,89.1z M55.2,89.1h-0.7l0-1.7h0.6V89.1z"/>
		</g>
		<g>
			<path class="st0" d="M27,48c0,0-40.4-21.5,0-43.9c0,0-0.8,5,2.8,8c3.4,2.9,29.9,2.1,35.6,2c1.1,0,2.1,0.1,3.2,0.3
				c3.6,0.9,12.1,3.8,13.7,15.4l1,25.9l-5.8,0.2c0,0-1.8-0.2-1.7-1.9c0.1-1.7,0-4.2,0-4.2s0.3-1.4-1.7-1.9S27,48,27,48z"/>
			<path d="M77.5,56.8c-1.1-0.1-2.7-0.9-2.6-2.7c0.1-1.7,0-4.1,0-4.1c0-0.3,0-0.8-1-1c-1.6-0.3-28.9-0.2-46.9,0l-0.2,0l-0.2-0.1
				c-0.7-0.4-18.3-9.9-18.4-23.2c-0.1-7.9,6.1-15.4,18.4-22.3l1.5-0.9l-0.3,1.7c0,0-0.7,4.6,2.5,7.2c2.3,1.9,19.3,2.3,35,1.8
				c1.2,0,2.3,0.1,3.4,0.4c8.2,2.1,13.2,7.7,14.3,16.1l1.1,26.9L77.5,56.8z M76.6,50c0,0,0.1,2.4,0,4.1c0,0.8,0.8,1,0.9,1l4.8-0.2
				l-1-25.1c-1-7.7-5.4-12.7-13-14.6c-0.9-0.2-1.9-0.4-2.9-0.3c-9.7,0.3-32.7,0.7-36.2-2.2c-2.6-2.2-3.1-5.3-3.2-7.2
				c-10.8,6.3-16.2,13-16.2,20C10,37.2,25.4,46.1,27.2,47.2c5.6-0.1,45-0.4,47.1,0C76.5,47.7,76.8,49.3,76.6,50z"/>
		</g>
		<g>
			<g>
				<path d="M43.4,69.9c6.5,0,8.7-5.7,9.6-8.1l0.1-0.1c0.2-0.5,0.3-0.8,0.5-1.1c0.1-0.2,0.4-0.3,0.6-0.3c0.2,0,0.5,0.1,0.6,0.3
					c0.2,0.3,0.3,0.7,0.5,1.1l0.1,0.1c0.9,2.4,3.1,8.1,9.6,8.1l0-0.3v0.3c0,0,0,0,0,0c2.3,0,4.1-0.8,5.4-2.4c2.2-2.6,2.4-6.7,2-7.9
					c-0.9-2.7-4.3-4-6.3-4.6c-1.1-0.3-3.4-0.5-6.7-0.5c-2.7,0-5.2,0.1-5.2,0.1c0,0-2.5-0.1-5.3-0.1c-3.3,0-5.5,0.2-6.7,0.5
					c-2,0.6-5.4,1.9-6.3,4.6c-0.4,1.2-0.2,5.3,2,7.9C39.3,69.1,41.1,69.9,43.4,69.9z M58.3,65.1"/>
			</g>
		</g>
		<g>
			<path d="M54.6,81.7c-0.2,0-0.3,0-0.5,0c-3.9-0.2-6.5-3.4-6.6-3.6l1.3-1.1c0,0,2.2,2.7,5.3,2.9c2.1,0.1,4.3-0.9,6.4-3l1.2,1.2
				C59.5,80.5,57.1,81.7,54.6,81.7z"/>
		</g>
		<path d="M48.9,77.1c-0.9-0.7-1.8,0.3-1.3,1.1L48.9,77.1z"/>
		<path d="M60.6,77c1-0.6,1.7,0.6,1.2,1.2L60.6,77z"/>
	</g>
	<polygon points="64.9,89.1 64.9,87.4 46.1,87.4 43.5,89.1 	"/>
</g>
</svg>
