<svg xmlns="http://www.w3.org/2000/svg" viewBox="0 0 156 156">
  <defs>
    <style>
      .cls-1, .cls-4 {
        fill: none;
      }

      .cls-1 {
        stroke: #525252;
        stroke-width: 2px;
      }

      .cls-2 {
        fill: #525252;
      }

      .cls-3 {
        stroke: none;
      }
    </style>
  </defs>
  <g id="live_track" data-name="live track" transform="translate(-260 -367)">
    <g id="Rectangle_8" data-name="Rectangle 8" class="cls-1" transform="translate(260 367)">
      <rect class="cls-3" width="156" height="156" rx="15"/>
      <rect class="cls-4" x="1" y="1" width="154" height="154" rx="14"/>
    </g>
    <g id="_002-business" data-name="002-business" transform="translate(298.998 412.741)">
      <g id="Group_3" data-name="Group 3" transform="translate(0.002)">
        <g id="Group_2" data-name="Group 2">
          <path id="Path_3" data-name="Path 3" class="cls-2" d="M75.815,0H2.448A2.445,2.445,0,0,0,0,2.446v61.14a2.445,2.445,0,0,0,2.446,2.446H41.577V63.585H2.448V2.446H75.815v61.14H70.924v2.446h4.891a2.445,2.445,0,0,0,2.446-2.446V2.446A2.446,2.446,0,0,0,75.815,0Z" transform="translate(-0.002)"/>
        </g>
      </g>
      <g id="Group_5" data-name="Group 5" transform="translate(7.339 46.466)">
        <g id="Group_4" data-name="Group 4">
          <path id="Path_4" data-name="Path 4" class="cls-2" d="M59.007,304H49.225A1.223,1.223,0,0,0,48,305.223v9.782a1.223,1.223,0,0,0,1.223,1.223h9.782a1.223,1.223,0,0,0,1.223-1.223v-9.782A1.223,1.223,0,0,0,59.007,304Zm-1.223,9.782H50.448v-7.337h7.337Z" transform="translate(-48.002 -304)"/>
        </g>
      </g>
      <g id="Group_7" data-name="Group 7" transform="translate(22.012 48.912)">
        <g id="Group_6" data-name="Group 6">
          <rect id="Rectangle_1" data-name="Rectangle 1" class="cls-2" width="2.446" height="2.446"/>
        </g>
      </g>
      <g id="Group_9" data-name="Group 9" transform="translate(26.903 48.912)">
        <g id="Group_8" data-name="Group 8">
          <rect id="Rectangle_2" data-name="Rectangle 2" class="cls-2" width="2.446" height="2.446"/>
        </g>
      </g>
      <g id="Group_11" data-name="Group 11" transform="translate(22.012 53.803)">
        <g id="Group_10" data-name="Group 10">
          <rect id="Rectangle_3" data-name="Rectangle 3" class="cls-2" width="14.674" height="2.446"/>
        </g>
      </g>
      <g id="Group_13" data-name="Group 13" transform="translate(7.701 46.825)">
        <g id="Group_12" data-name="Group 12" transform="translate(0)">
          <rect id="Rectangle_4" data-name="Rectangle 4" class="cls-2" width="13.835" height="2.446" transform="translate(0 9.782) rotate(-45)"/>
        </g>
      </g>
      <g id="Group_15" data-name="Group 15" transform="translate(26.903 1.223)">
        <g id="Group_14" data-name="Group 14">
          <path id="Path_5" data-name="Path 5" class="cls-2" d="M198.012,8V31.8l-2.446,1.632-3-1.993a1.223,1.223,0,0,0-1.355,0l-2.99,1.993-2.988-1.993a1.223,1.223,0,0,0-1.357,0l-2.986,1.993L178.448,31.8V8H176V32.456a1.223,1.223,0,0,0,.538,1.015l3.668,2.446a1.223,1.223,0,0,0,1.357,0l2.987-1.993,2.988,1.993a1.223,1.223,0,0,0,1.356,0l2.991-1.993,3,2a1.228,1.228,0,0,0,1.356,0l3.668-2.446a1.223,1.223,0,0,0,.545-1.019V8Z" transform="translate(-176.002 -8)"/>
        </g>
      </g>
      <g id="Group_17" data-name="Group 17" transform="translate(28.126 6.114)">
        <g id="Group_16" data-name="Group 16">
          <rect id="Rectangle_5" data-name="Rectangle 5" class="cls-2" width="22.01" height="2.446"/>
        </g>
      </g>
      <g id="Group_19" data-name="Group 19" transform="translate(1.225 7.337)">
        <g id="Group_18" data-name="Group 18">
          <rect id="Rectangle_6" data-name="Rectangle 6" class="cls-2" width="22.01" height="2.446"/>
        </g>
      </g>
      <g id="Group_21" data-name="Group 21" transform="translate(55.028 7.337)">
        <g id="Group_20" data-name="Group 20">
          <rect id="Rectangle_7" data-name="Rectangle 7" class="cls-2" width="22.01" height="2.446"/>
        </g>
      </g>
      <g id="Group_23" data-name="Group 23" transform="translate(41.577 35.461)">
        <g id="Group_22" data-name="Group 22">
          <path id="Path_6" data-name="Path 6" class="cls-2" d="M286.676,232A14.674,14.674,0,0,0,272,246.673c0,.57.156,14.113,13.809,27.766a1.222,1.222,0,0,0,1.729,0c13.652-13.652,13.809-27.2,13.809-27.766A14.674,14.674,0,0,0,286.676,232Zm0,39.829c-12.031-12.592-12.228-25.017-12.228-25.155a12.228,12.228,0,0,1,24.456,0C298.9,246.8,298.713,259.229,286.676,271.829Z" transform="translate(-272.002 -232)"/>
        </g>
      </g>
      <g id="Group_25" data-name="Group 25" transform="translate(48.914 42.798)">
        <g id="Group_24" data-name="Group 24">
          <path id="Path_7" data-name="Path 7" class="cls-2" d="M327.339,280a7.337,7.337,0,1,0,7.337,7.337A7.337,7.337,0,0,0,327.339,280Zm0,12.228a4.891,4.891,0,1,1,4.891-4.891A4.891,4.891,0,0,1,327.339,292.228Z" transform="translate(-320.002 -280)"/>
        </g>
      </g>
    </g>
  </g>
</svg>
