<svg xmlns="http://www.w3.org/2000/svg" width="145.867" height="186.932" viewBox="0 0 145.867 186.932">
  <g id="Group_4500" data-name="Group 4500" transform="translate(1728.081 -3289.148)">
    <path id="Path_3305" data-name="Path 3305" d="M-1583.4,3348.56c-6.2-36.941-40.208-62.242-79.381-59.157-35.333,2.8-65.107,35.053-65.3,71-.091,16.5,5.327,31.483,13.289,45.707,10.424,18.616,25.09,33.834,39.3,49.4,6.293,6.9,12.816,13.58,19.431,20.568,1.367-1.3,2.4-2.111,3.237-3.086,17.531-20.487,35.363-40.711,52.442-61.559C-1585.461,3393.2-1579.44,3372.091-1583.4,3348.56Zm-71.993,62.554a48.88,48.88,0,0,1-48.894-49.225,48.789,48.789,0,0,1,49.346-49.245,49.037,49.037,0,0,1,49.275,49.446C-1605.747,3389.482-1627.75,3411.164-1655.394,3411.114Z" transform="translate(0 0)" fill="#fefefe"/>
    <path id="Path_3306" data-name="Path 3306" d="M-1663.233,3312.524a40.916,40.916,0,0,1,41.121,41.264,40.956,40.956,0,0,1-41.493,40.9,40.78,40.78,0,0,1-40.8-41.075A40.7,40.7,0,0,1-1663.233,3312.524Z" transform="translate(8.284 8.27)" fill="#f8ba1a"/>
  </g>
</svg>
