<svg xmlns="http://www.w3.org/2000/svg" xmlns:xlink="http://www.w3.org/1999/xlink" viewBox="0 0 333.18 265.928">
  <defs>
    <style>
      .cls-1 {
        fill: #ba9b89;
      }

      .cls-2 {
        fill: #49505a;
      }

      .cls-3 {
        fill: #2c3440;
      }

      .cls-4 {
        fill: #242b2b;
      }

      .cls-5 {
        fill: #3a4141;
      }

      .cls-6 {
        fill: #1f2626;
      }

      .cls-6, .cls-8 {
        opacity: 0.52;
      }

      .cls-7 {
        fill: url(#radial-gradient);
      }

      .cls-8 {
        fill: #8ec85e;
      }

      .cls-9 {
        fill: #faf9e6;
      }

      .cls-10, .cls-19, .cls-27, .cls-35, .cls-43 {
        opacity: 0.5;
      }

      .cls-10 {
        fill: url(#linear-gradient);
      }

      .cls-11 {
        fill: url(#linear-gradient-2);
      }

      .cls-12 {
        fill: #604935;
      }

      .cls-13 {
        fill: url(#linear-gradient-3);
      }

      .cls-14, .cls-16, .cls-18, .cls-22, .cls-24, .cls-26, .cls-30, .cls-32, .cls-34, .cls-38, .cls-40, .cls-42, .cls-46, .cls-48, .cls-50 {
        opacity: 0.29;
      }

      .cls-14 {
        fill: url(#linear-gradient-4);
      }

      .cls-15 {
        fill: url(#linear-gradient-5);
      }

      .cls-16 {
        fill: url(#linear-gradient-6);
      }

      .cls-17 {
        fill: url(#linear-gradient-7);
      }

      .cls-18 {
        fill: url(#linear-gradient-8);
      }

      .cls-19 {
        fill: url(#linear-gradient-9);
      }

      .cls-20 {
        fill: url(#linear-gradient-10);
      }

      .cls-21 {
        fill: url(#linear-gradient-11);
      }

      .cls-22 {
        fill: url(#linear-gradient-12);
      }

      .cls-23 {
        fill: url(#linear-gradient-13);
      }

      .cls-24 {
        fill: url(#linear-gradient-14);
      }

      .cls-25 {
        fill: url(#linear-gradient-15);
      }

      .cls-26 {
        fill: url(#linear-gradient-16);
      }

      .cls-27 {
        fill: url(#linear-gradient-17);
      }

      .cls-28 {
        fill: url(#linear-gradient-18);
      }

      .cls-29 {
        fill: url(#linear-gradient-19);
      }

      .cls-30 {
        fill: url(#linear-gradient-20);
      }

      .cls-31 {
        fill: url(#linear-gradient-21);
      }

      .cls-32 {
        fill: url(#linear-gradient-22);
      }

      .cls-33 {
        fill: url(#linear-gradient-23);
      }

      .cls-34 {
        fill: url(#linear-gradient-24);
      }

      .cls-35 {
        fill: url(#linear-gradient-25);
      }

      .cls-36 {
        fill: url(#linear-gradient-26);
      }

      .cls-37 {
        fill: url(#linear-gradient-27);
      }

      .cls-38 {
        fill: url(#linear-gradient-28);
      }

      .cls-39 {
        fill: url(#linear-gradient-29);
      }

      .cls-40 {
        fill: url(#linear-gradient-30);
      }

      .cls-41 {
        fill: url(#linear-gradient-31);
      }

      .cls-42 {
        fill: url(#linear-gradient-32);
      }

      .cls-43 {
        fill: url(#linear-gradient-33);
      }

      .cls-44 {
        fill: url(#linear-gradient-34);
      }

      .cls-45 {
        fill: url(#linear-gradient-35);
      }

      .cls-46 {
        fill: url(#linear-gradient-36);
      }

      .cls-47 {
        fill: url(#linear-gradient-37);
      }

      .cls-48 {
        fill: url(#linear-gradient-38);
      }

      .cls-49 {
        fill: url(#linear-gradient-39);
      }

      .cls-50 {
        fill: url(#linear-gradient-40);
      }

      .cls-51 {
        fill: none;
      }

      .cls-52 {
        fill: #f26b3c;
      }
    </style>
    <radialGradient id="radial-gradient" cx="197.634" cy="254.533" r="233.93" gradientTransform="translate(57.422 70.05) scale(0.58 0.369)" gradientUnits="userSpaceOnUse">
      <stop offset="0" stop-color="#c4db74"/>
      <stop offset="1" stop-color="#81c459"/>
    </radialGradient>
    <linearGradient id="linear-gradient" x1="-3.286" y1="-0.054" x2="-3.734" y2="0.689" gradientUnits="objectBoundingBox">
      <stop offset="0.141" stop-color="#231f20"/>
      <stop offset="1" stop-color="#fff" stop-opacity="0"/>
    </linearGradient>
    <linearGradient id="linear-gradient-2" x1="-46.206" y1="0.507" x2="-44.6" y2="0.497" gradientUnits="objectBoundingBox">
      <stop offset="0.036" stop-color="#a77657"/>
      <stop offset="1" stop-color="#4e3e2d"/>
    </linearGradient>
    <linearGradient id="linear-gradient-3" x1="-7.525" y1="0.499" x2="-6.844" y2="0.499" gradientUnits="objectBoundingBox">
      <stop offset="0.061" stop-color="#6ab33e"/>
      <stop offset="1" stop-color="#217738"/>
    </linearGradient>
    <linearGradient id="linear-gradient-4" x1="-7.13" y1="-0.001" x2="-7.13" y2="0.999" gradientUnits="objectBoundingBox">
      <stop offset="0.511" stop-color="#231f20"/>
      <stop offset="1" stop-color="#fff" stop-opacity="0"/>
    </linearGradient>
    <linearGradient id="linear-gradient-5" x1="-8.053" y1="0.5" x2="-7.371" y2="0.5" xlink:href="#linear-gradient-3"/>
    <linearGradient id="linear-gradient-6" x1="-7.658" y1="-0.001" x2="-7.658" y2="1" gradientUnits="objectBoundingBox">
      <stop offset="0.466" stop-color="#231f20"/>
      <stop offset="1" stop-color="#fff" stop-opacity="0"/>
    </linearGradient>
    <linearGradient id="linear-gradient-7" x1="-9.828" y1="0.5" x2="-9.155" y2="0.5" xlink:href="#linear-gradient-3"/>
    <linearGradient id="linear-gradient-8" x1="-9.469" y1="0" x2="-9.469" y2="1" xlink:href="#linear-gradient"/>
    <linearGradient id="linear-gradient-9" x1="-3.275" y1="-0.055" x2="-3.721" y2="0.69" xlink:href="#linear-gradient"/>
    <linearGradient id="linear-gradient-10" x1="-46.202" y1="0.506" x2="-44.596" y2="0.497" xlink:href="#linear-gradient-2"/>
    <linearGradient id="linear-gradient-11" x1="-7.547" y1="0.5" x2="-6.864" y2="0.5" xlink:href="#linear-gradient-3"/>
    <linearGradient id="linear-gradient-12" x1="-7.152" y1="-0.001" x2="-7.152" y2="1.001" xlink:href="#linear-gradient-4"/>
    <linearGradient id="linear-gradient-13" x1="-8.03" y1="0.499" x2="-7.349" y2="0.499" xlink:href="#linear-gradient-3"/>
    <linearGradient id="linear-gradient-14" x1="-7.635" y1="-0.001" x2="-7.635" y2="0.999" xlink:href="#linear-gradient-6"/>
    <linearGradient id="linear-gradient-15" x1="-9.827" y1="0.5" x2="-9.154" y2="0.5" xlink:href="#linear-gradient-3"/>
    <linearGradient id="linear-gradient-16" x1="-9.468" y1="0" x2="-9.468" y2="1" xlink:href="#linear-gradient"/>
    <linearGradient id="linear-gradient-17" x1="-3.274" y1="-0.054" x2="-3.721" y2="0.691" xlink:href="#linear-gradient"/>
    <linearGradient id="linear-gradient-18" x1="-46.198" y1="0.507" x2="-44.592" y2="0.497" xlink:href="#linear-gradient-2"/>
    <linearGradient id="linear-gradient-19" x1="-7.526" y1="0.499" x2="-6.845" y2="0.499" xlink:href="#linear-gradient-3"/>
    <linearGradient id="linear-gradient-20" x1="-7.132" y1="0" x2="-7.132" y2="0.999" xlink:href="#linear-gradient-4"/>
    <linearGradient id="linear-gradient-21" x1="-8.055" y1="0.5" x2="-7.372" y2="0.5" xlink:href="#linear-gradient-3"/>
    <linearGradient id="linear-gradient-22" x1="-7.66" y1="0" x2="-7.66" y2="1" xlink:href="#linear-gradient-6"/>
    <linearGradient id="linear-gradient-23" x1="-9.791" y1="0.501" x2="-9.121" y2="0.501" xlink:href="#linear-gradient-3"/>
    <linearGradient id="linear-gradient-24" x1="-9.434" y1="0.001" x2="-9.434" y2="1.001" xlink:href="#linear-gradient"/>
    <linearGradient id="linear-gradient-25" x1="-3.28" y1="-0.056" x2="-3.727" y2="0.689" xlink:href="#linear-gradient"/>
    <linearGradient id="linear-gradient-26" x1="-46.207" y1="0.507" x2="-44.602" y2="0.498" xlink:href="#linear-gradient-2"/>
    <linearGradient id="linear-gradient-27" x1="-7.525" y1="0.5" x2="-6.844" y2="0.5" xlink:href="#linear-gradient-3"/>
    <linearGradient id="linear-gradient-28" x1="-7.131" y1="0" x2="-7.131" y2="1" xlink:href="#linear-gradient-4"/>
    <linearGradient id="linear-gradient-29" x1="-8.054" y1="0.5" x2="-7.371" y2="0.5" xlink:href="#linear-gradient-3"/>
    <linearGradient id="linear-gradient-30" x1="-7.658" y1="0" x2="-7.658" y2="1" xlink:href="#linear-gradient-6"/>
    <linearGradient id="linear-gradient-31" x1="-9.828" y1="0.501" x2="-9.156" y2="0.501" xlink:href="#linear-gradient-3"/>
    <linearGradient id="linear-gradient-32" x1="-9.47" y1="0.001" x2="-9.47" y2="1.001" xlink:href="#linear-gradient"/>
    <linearGradient id="linear-gradient-33" x1="-3.275" y1="-0.055" x2="-4.051" y2="1.239" gradientUnits="objectBoundingBox">
      <stop offset="0.393" stop-color="#231f20"/>
      <stop offset="1" stop-color="#fff" stop-opacity="0"/>
    </linearGradient>
    <linearGradient id="linear-gradient-34" x1="-46.201" y1="0.508" x2="-44.595" y2="0.498" xlink:href="#linear-gradient-2"/>
    <linearGradient id="linear-gradient-35" x1="-7.547" y1="0.5" x2="-6.864" y2="0.5" xlink:href="#linear-gradient-3"/>
    <linearGradient id="linear-gradient-36" x1="-7.152" y1="0" x2="-7.152" y2="1" xlink:href="#linear-gradient-4"/>
    <linearGradient id="linear-gradient-37" x1="-8.029" y1="0.501" x2="-7.349" y2="0.501" xlink:href="#linear-gradient-3"/>
    <linearGradient id="linear-gradient-38" x1="-7.635" y1="0.001" x2="-7.635" y2="1.001" xlink:href="#linear-gradient-6"/>
    <linearGradient id="linear-gradient-39" x1="-9.827" y1="0.499" x2="-9.154" y2="0.499" xlink:href="#linear-gradient-3"/>
    <linearGradient id="linear-gradient-40" x1="-9.468" y1="-0.001" x2="-9.468" y2="0.999" xlink:href="#linear-gradient"/>
  </defs>
  <g id="XMLID_1_" transform="translate(0 0)">
    <path id="XMLID_115_" class="cls-1" d="M14.3,370l.052-11.5a3.723,3.723,0,0,0,2.142,3.031l-.052,11.5A3.617,3.617,0,0,1,14.3,370Z" transform="translate(-6.827 -171.165)"/>
    <g id="XMLID_7_" transform="translate(0 57.533)">
      <g id="XMLID_112_" transform="translate(0.033 3.71)">
        <path id="XMLID_114_" class="cls-2" d="M331.12,187.274,121.367,309.186a11.189,11.189,0,0,1-10.294,0L2.225,246.323c-2.874-1.672-2.874-4.337-.052-5.957L211.925,118.454a11.19,11.19,0,0,1,10.294,0S333.942,185.655,331.12,187.274Z" transform="translate(-0.062 -117.2)"/>
      </g>
      <path id="XMLID_111_" class="cls-3" d="M333.18,245.857a.314.314,0,0,1-.052.209c0,.052-.052.1-.052.209,0,.052-.052.157-.052.209s-.052.1-.052.157c-.052.052-.052.157-.1.209s-.052.1-.1.157c-.052.1-.1.157-.157.261-.052.052-.052.1-.1.157l-.314.314c-.052.052-.052.1-.1.1-.052.052-.157.1-.209.209-.052.052-.157.1-.209.157-.1.052-.157.1-.261.157s-.157.1-.261.157L121.337,370.538c-.209.1-.47.261-.679.366-.052.052-.157.052-.209.1-.209.052-.366.157-.575.209-.052,0-.157.052-.209.052-.1.052-.261.052-.366.1a2.264,2.264,0,0,0-.261.052c-.157.052-.261.052-.418.1-.1,0-.157.052-.261.052a4.572,4.572,0,0,1-.836.1h-.261a1.447,1.447,0,0,0-.47.052H115.38a.663.663,0,0,1-.314-.052.889.889,0,0,1-.366-.052c-.1,0-.209-.052-.314-.052s-.261-.052-.366-.052-.209-.052-.314-.052c-.157-.052-.314-.052-.47-.1-.1,0-.157-.052-.261-.052a4.6,4.6,0,0,1-.784-.261c-.052,0-.052-.052-.1-.052-.366-.157-.679-.314-.993-.47L2.195,307.675a3.723,3.723,0,0,1-2.142-3.031L0,316.14a3.723,3.723,0,0,0,2.142,3.031L110.99,382.034h0c.314.157.627.314.993.47a.051.051,0,0,1,.052.052h.052a4.6,4.6,0,0,0,.784.261h.052c.052,0,.1.052.209.052.157.052.314.052.47.1.052,0,.1,0,.1.052a.192.192,0,0,1,.157.052c.1,0,.261.052.366.052a.192.192,0,0,1,.157.052h.157c.1,0,.261.052.366.052h1.777a1.447,1.447,0,0,0,.47-.052h.261c.261-.052.575-.052.836-.1h.052c.1,0,.157-.052.261-.052.157-.052.261-.052.418-.1.1,0,.209-.052.314-.052.1-.052.261-.052.366-.1h.1a.182.182,0,0,0,.1-.052c.209-.052.366-.157.575-.209.052-.052.157-.052.209-.1a2.817,2.817,0,0,0,.679-.366L331.09,260.122c.052,0,.052-.052.1-.052a.271.271,0,0,1,.209-.1c.1-.052.157-.1.261-.157.052-.052.157-.1.209-.157s.157-.1.209-.209a.051.051,0,0,0,.052-.052c.052-.052.052-.052.052-.1l.314-.314.052-.052.052-.052c.052-.1.1-.157.157-.261,0-.052.052-.052.052-.1v-.052c.052-.052.052-.157.1-.209,0-.052.052-.1.052-.157v-.052c0-.052.052-.157.052-.209s.052-.1.052-.157v-.47l.052-11.5A.192.192,0,0,1,333.18,245.857Z" transform="translate(0 -174.842)"/>
      <g id="XMLID_95_" transform="translate(31.876 17.506)">
        <g id="XMLID_108_" transform="translate(20.902 129.437)">
          <path id="XMLID_110_" class="cls-4" d="M125.56,411a8.812,8.812,0,0,1-4.494-1.1L103.09,399.556a3.219,3.219,0,0,1-.052-6.009l1.933-1.15a9.37,9.37,0,0,1,4.494-1.1,8.812,8.812,0,0,1,4.494,1.1l17.976,10.347a3.219,3.219,0,0,1,.052,6.009l-1.933,1.15A8.812,8.812,0,0,1,125.56,411Z" transform="translate(-101 -391.3)"/>
          <path id="XMLID_109_" class="cls-5" d="M132.238,404.151c2.3,1.306,2.3,3.449.052,4.807l-1.933,1.15a9.187,9.187,0,0,1-8.256,0l-17.976-10.347c-2.3-1.306-2.3-3.449,0-4.808l1.933-1.15a9.187,9.187,0,0,1,8.256,0Z" transform="translate(-101.668 -392.028)"/>
        </g>
        <g id="XMLID_102_" transform="translate(223.3 20.458)">
          <g id="Group_58" data-name="Group 58">
            <path id="XMLID_105_" class="cls-6" d="M506.34,191.241a1,1,0,0,1,0,1.881,3.652,3.652,0,0,1-3.292,0l-14.057-8.1a1,1,0,0,1,0-1.881,3.652,3.652,0,0,1,3.292,0Z" transform="translate(-488.325 -182.75)"/>
          </g>
        </g>
        <g id="XMLID_97_" transform="translate(245.718 33.365)">
          <g id="Group_59" data-name="Group 59">
            <path id="XMLID_100_" class="cls-6" d="M535.183,207.842a1,1,0,0,1,0,1.881,3.652,3.652,0,0,1-3.292,0,1,1,0,0,1,0-1.881A3.653,3.653,0,0,1,535.183,207.842Z" transform="translate(-531.225 -207.45)"/>
          </g>
        </g>
        <path id="XMLID_96_" class="cls-7" d="M338.528,204.9l-171.345,99.6L61,243.146,232.345,143.6Z" transform="translate(-61 -143.6)"/>
      </g>
      <path id="XMLID_94_" class="cls-8" d="M224.6,289.142l24.665,14.422L284.8,284.543l10.608,6.375,21.843-13.168-30.674-18.185,5.644-2.822-7.054-5.644Z" transform="translate(-107.234 -177.42)"/>
      <path id="XMLID_88_" class="cls-9" d="M308.679,227.733l-27.7-12.123-52.778-27.068-4.755-3.4c4.755-2.613,16.356-8.988,28.27-15.572,6.689-3.658,13.43-7.42,19.178-10.556l-4.755-2.717c-7.316,4.024-16.408,9.04-24.769,13.639-6.636,3.658-12.8,7.054-17.349,9.563-1.933,1.045-3.553,1.986-4.808,2.665l-2.508-1.777-.1-.052h0l-6.114-5.069-4.807,2.77,4.024,3.344-17.035,10.294a60.092,60.092,0,0,0-6.793-2.09l-11.966,6.95a31.19,31.19,0,0,1,3.188.47,44.183,44.183,0,0,1,9.2,2.717,54.247,54.247,0,0,1,5.226,2.561,28.064,28.064,0,0,1,2.77,1.777c.052.052.1.052.157.1h0a21.743,21.743,0,0,1,4.494,4.128,13.763,13.763,0,0,1,3.135,10.138,24.739,24.739,0,0,1-4.389,11.183,38.99,38.99,0,0,1-8.936,8.936,101.016,101.016,0,0,1-11.653,7.629c-2.717,1.568-6.584,4.285-8.518,5.278-.314,0-27.225-16.042-44.1-26.18L107.6,235.049l105.713,61.557,17.244-10.033-8.622-4.755,27.9-15.05,9.354,3.188,4.86-2.822L254.96,264l17.871-9.667a6.008,6.008,0,0,1,4.546-.261l5.7,2.038,4.86-2.822-7.107-2.508a15.976,15.976,0,0,0-6.532-.836,14.286,14.286,0,0,0-6.062,1.62l-21.059,11.392c.052,0,.052,0,.1-.052-.052.052-.157.052-.261.1l-29.942,16.147L178.72,257.937c1.463-.732,4.233-2.195,6.062-3.292a141.015,141.015,0,0,0,14.632-9.667c4.7-3.658,8.936-7.629,11.6-11.81a39.218,39.218,0,0,0,4.7-9.824c1.463-4.912,1.515-9.772-.575-14.37a24.748,24.748,0,0,0-7.368-9.092l15.206-9.04,53.928,27.748,28.375,12.385,13.482,4.337,4.912-2.822Zm-105.19-30.778c-.47-.261-.888-.575-1.411-.836-1.254-.732-2.613-1.411-4.024-2.09l15.781-9.51,4.86,3.449Z" transform="translate(-51.373 -132.158)"/>
      <g id="XMLID_78_" transform="translate(174.846 4.964)">
        <path id="XMLID_87_" class="cls-10" d="M362.975,210.733l7.263-3.031-3.71.836,1.672-1.1-1.777.261,1.933-.993-4.076.888.366-1.1-1.411.418,5.382-3.449s.157-.575-.732-.575a5.643,5.643,0,0,0-2.09.157l-3.971,2.717h0l-2.352,1.515.366-1.306-2.352,1.463-1.2-.732-1.359,1.515-.523-1.359-2.77,1.986-.784-1.15-2.247,3.135-.366-.209-.941.784-1.15-.366-2.979,4.233-.47-.418-1.568,1.15-.418-.523-6.114,8.883,21.059-8.831-1.515.261.732-.47-.679.052,10.242-4.285-2.142.418,2.3-1.045Z" transform="translate(-334.6 -159.366)"/>
        <path id="XMLID_86_" class="cls-11" d="M397.54,183.993c0,.47-.732.836-1.62.836h0c-.888,0-1.62-.366-1.62-.836V164.136c0-.47.732-.836,1.62-.836h0c.888,0,1.62.366,1.62.836Z" transform="translate(-363.104 -140.464)"/>
        <path id="XMLID_85_" class="cls-12" d="M397.588,190.348v-9.2a5.593,5.593,0,0,0-.836-.732,3.811,3.811,0,0,0-2.351-.627v6.95a4.513,4.513,0,0,0,.523.836,15.134,15.134,0,0,0,1.777,1.881C396.961,189.774,397.274,190.035,397.588,190.348Z" transform="translate(-363.151 -148.335)"/>
        <path id="XMLID_84_" class="cls-13" d="M388.767,140,379.1,163.672l2.561-2.3-.314,4.076,2.613-2.77-.941,3.083,2.352-1.515.052,3.031,1.986-3.292,1.359,3.4.993-2.561,1.306,1.411,1.254-2.247,2.77,1.777-.418-2.038,1.359.523.052-2.3,2.4,1.724Z" transform="translate(-355.846 -129.34)"/>
        <path id="XMLID_83_" class="cls-14" d="M388.767,140,379.1,163.672l2.561-2.3-.314,4.076,2.613-2.77-.941,3.083,2.352-1.515.052,3.031,1.986-3.292,1.359,3.4.993-2.561,1.306,1.411,1.254-2.247,2.77,1.777-.418-2.038,1.359.523.052-2.3,2.4,1.724Z" transform="translate(-355.846 -129.34)"/>
        <path id="XMLID_82_" class="cls-15" d="M389.34,129.4l-9.04,22.209,1.672-.732-.314,1.672,3.188-1.881-.888,2.874,2.195-1.411.052,2.874,1.881-3.135,1.254,3.188.941-2.352,1.2,1.306,1.2-2.142,2.56,1.672-.366-1.881,2.77,1.2-.679-2.142,1.463.888Z" transform="translate(-356.419 -124.279)"/>
        <path id="XMLID_81_" class="cls-16" d="M389.34,129.4l-9.04,22.209,1.672-.732-.314,1.672,3.188-1.881-.888,2.874,2.195-1.411.052,2.874,1.881-3.135,1.254,3.188.941-2.352,1.2,1.306,1.2-2.142,2.56,1.672-.366-1.881,2.77,1.2-.679-2.142,1.463.888Z" transform="translate(-356.419 -124.279)"/>
        <path id="XMLID_80_" class="cls-17" d="M390.42,119.6,383,137.785l1.2-1.045-.261,2.4L386.71,137l-.732,2.4,1.777-1.2.052,2.351,1.515-2.508,1.1,2.561.732-1.933.993,1.1.993-1.724,2.09,1.359-.314-1.568,1.777.366.052-.993,1.1.575Z" transform="translate(-357.708 -119.6)"/>
        <path id="XMLID_79_" class="cls-18" d="M390.42,119.6,383,137.785l1.2-1.045-.261,2.4L386.71,137l-.732,2.4,1.777-1.2.052,2.351,1.515-2.508,1.1,2.561.732-1.933.993,1.1.993-1.724,2.09,1.359-.314-1.568,1.777.366.052-.993,1.1.575Z" transform="translate(-357.708 -119.6)"/>
      </g>
      <g id="XMLID_68_" transform="translate(203.9)">
        <path id="XMLID_77_" class="cls-19" d="M418.679,201.233l7.264-3.031-3.71.836,1.672-1.1-1.777.261,1.933-.993-4.076.888.366-1.1-1.411.418,5.382-3.449s.157-.575-.732-.575a5.644,5.644,0,0,0-2.09.157l-3.971,2.717h0l-2.352,1.515.366-1.306-2.352,1.463-1.2-.732-1.359,1.515-.523-1.359-2.77,1.986-.784-1.15-2.247,3.135-.366-.209-.941.784-1.15-.366-2.979,4.233-.47-.418-1.568,1.15-.418-.523-6.218,8.831,21.059-8.831-1.515.261.732-.47-.679.052,10.242-4.285-2.142.418,2.3-1.045Z" transform="translate(-390.2 -149.866)"/>
        <path id="XMLID_76_" class="cls-20" d="M453.24,174.493c0,.47-.732.836-1.62.836h0c-.888,0-1.62-.366-1.62-.836V154.636c0-.47.732-.836,1.62-.836h0c.888,0,1.62.366,1.62.836Z" transform="translate(-418.751 -130.964)"/>
        <path id="XMLID_75_" class="cls-12" d="M453.288,180.748v-9.2a5.594,5.594,0,0,0-.836-.732,3.812,3.812,0,0,0-2.352-.627v6.95a4.513,4.513,0,0,0,.523.836,15.137,15.137,0,0,0,1.777,1.881A7.135,7.135,0,0,0,453.288,180.748Z" transform="translate(-418.799 -138.787)"/>
        <path id="XMLID_74_" class="cls-21" d="M444.567,130.5,434.9,154.172l2.561-2.3-.314,4.076,2.561-2.77-.941,3.083,2.352-1.515.052,3.031,1.986-3.292,1.411,3.344.993-2.508,1.254,1.411,1.306-2.247,2.717,1.777-.418-2.038,1.411.523.052-2.3,2.352,1.724Z" transform="translate(-411.542 -119.84)"/>
        <path id="XMLID_73_" class="cls-22" d="M444.567,130.5,434.9,154.172l2.561-2.3-.314,4.076,2.561-2.77-.941,3.083,2.352-1.515.052,3.031,1.986-3.292,1.411,3.344.993-2.508,1.254,1.411,1.306-2.247,2.717,1.777-.418-2.038,1.411.523.052-2.3,2.352,1.724Z" transform="translate(-411.542 -119.84)"/>
        <path id="XMLID_72_" class="cls-23" d="M445.092,119.9,436,142.109l1.672-.732-.314,1.62,3.188-1.829-.888,2.874,2.195-1.411.052,2.822,1.881-3.083,1.306,3.188.888-2.352,1.2,1.306,1.2-2.142L451,144.042l-.418-1.881,2.77,1.2-.679-2.142,1.515.888Z" transform="translate(-412.067 -114.779)"/>
        <path id="XMLID_71_" class="cls-24" d="M445.092,119.9,436,142.109l1.672-.732-.314,1.62,3.188-1.829-.888,2.874,2.195-1.411.052,2.822,1.881-3.083,1.306,3.188.888-2.352,1.2,1.306,1.2-2.142L451,144.042l-.418-1.881,2.77,1.2-.679-2.142,1.515.888Z" transform="translate(-412.067 -114.779)"/>
        <path id="XMLID_70_" class="cls-25" d="M446.12,110.1l-7.42,18.185,1.2-1.045-.209,2.4,2.717-2.142-.732,2.4,1.829-1.2v2.351l1.568-2.508,1.045,2.561.732-1.933.993,1.1.993-1.724,2.09,1.359-.313-1.568,1.829.366v-.993l1.1.575Z" transform="translate(-413.356 -110.1)"/>
        <path id="XMLID_69_" class="cls-26" d="M446.12,110.1l-7.42,18.185,1.2-1.045-.209,2.4,2.717-2.142-.732,2.4,1.829-1.2v2.351l1.568-2.508,1.045,2.561.732-1.933.993,1.1.993-1.724,2.09,1.359-.313-1.568,1.829.366v-.993l1.1.575Z" transform="translate(-413.356 -110.1)"/>
      </g>
      <g id="XMLID_58_" transform="translate(222.712 16.251)">
        <path id="XMLID_67_" class="cls-27" d="M454.679,232.333l7.263-3.031-3.71.836,1.672-1.1-1.777.261,1.933-.993-4.076.888.366-1.1-1.411.418,5.382-3.449s.157-.575-.732-.575a5.643,5.643,0,0,0-2.09.157l-3.971,2.717h0l-2.352,1.515.366-1.306-2.352,1.463-1.2-.732-1.359,1.515-.523-1.359-2.77,1.986-.784-1.15-2.247,3.135-.366-.209-.941.784-1.15-.366-2.979,4.233-.47-.418-1.568,1.15-.418-.523-6.218,8.831,21.059-8.831-1.515.261.732-.47-.679.052,10.242-4.285-2.143.418,2.3-1.045Z" transform="translate(-426.2 -180.966)"/>
        <path id="XMLID_66_" class="cls-28" d="M489.24,205.593c0,.47-.732.836-1.62.836h0c-.888,0-1.62-.366-1.62-.836V185.736c0-.47.732-.836,1.62-.836h0c.888,0,1.62.366,1.62.836Z" transform="translate(-454.751 -162.064)"/>
        <path id="XMLID_65_" class="cls-12" d="M489.288,211.948v-9.2a5.6,5.6,0,0,0-.836-.732,3.812,3.812,0,0,0-2.352-.627v6.95a4.51,4.51,0,0,0,.523.836,15.13,15.13,0,0,0,1.777,1.881C488.66,211.374,488.974,211.635,489.288,211.948Z" transform="translate(-454.799 -169.935)"/>
        <path id="XMLID_64_" class="cls-29" d="M480.567,161.6,470.9,185.324l2.56-2.352-.314,4.076,2.561-2.77-.941,3.083,2.352-1.515.052,3.031,2.038-3.292,1.359,3.4.993-2.508,1.254,1.359,1.306-2.247,2.717,1.777-.418-2.038,1.411.523.052-2.3,2.4,1.777Z" transform="translate(-447.542 -150.94)"/>
        <path id="XMLID_63_" class="cls-30" d="M480.567,161.6,470.9,185.324l2.56-2.352-.314,4.076,2.561-2.77-.941,3.083,2.352-1.515.052,3.031,2.038-3.292,1.359,3.4.993-2.508,1.254,1.359,1.306-2.247,2.717,1.777-.418-2.038,1.411.523.052-2.3,2.4,1.777Z" transform="translate(-447.542 -150.94)"/>
        <path id="XMLID_62_" class="cls-31" d="M481.14,151l-9.04,22.209,1.62-.732-.261,1.672,3.135-1.881-.888,2.926,2.247-1.463v2.874l1.881-3.083,1.306,3.135.941-2.352,1.15,1.306,1.254-2.09,2.56,1.672-.418-1.933,2.77,1.2-.679-2.142,1.515.888Z" transform="translate(-448.115 -145.879)"/>
        <path id="XMLID_61_" class="cls-32" d="M481.14,151l-9.04,22.209,1.62-.732-.261,1.672,3.135-1.881-.888,2.926,2.247-1.463v2.874l1.881-3.083,1.306,3.135.941-2.352,1.15,1.306,1.254-2.09,2.56,1.672-.418-1.933,2.77,1.2-.679-2.142,1.515.888Z" transform="translate(-448.115 -145.879)"/>
        <path id="XMLID_60_" class="cls-33" d="M482.12,141.2l-7.42,18.185,1.254-1.045-.261,2.4,2.717-2.142-.732,2.4,1.829-1.15.052,2.3,1.515-2.508,1.045,2.561.784-1.933.941,1.1.993-1.724,2.09,1.359-.314-1.568,1.829.418.052-1.045,1.1.575Z" transform="translate(-449.356 -141.2)"/>
        <path id="XMLID_59_" class="cls-34" d="M482.12,141.2l-7.42,18.185,1.254-1.045-.261,2.4,2.717-2.142-.732,2.4,1.829-1.15.052,2.3,1.515-2.508,1.045,2.561.784-1.933.941,1.1.993-1.724,2.09,1.359-.314-1.568,1.829.418.052-1.045,1.1.575Z" transform="translate(-449.356 -141.2)"/>
      </g>
      <g id="XMLID_37_" transform="translate(205.886 61.818)">
        <path id="XMLID_57_" class="cls-35" d="M422.427,319.633l7.263-3.031-3.71.836,1.672-1.1-1.777.261,1.933-.993-4.076.888.366-1.1-1.411.418,5.382-3.449s.157-.575-.732-.575a5.644,5.644,0,0,0-2.09.157l-3.971,2.717h0l-2.352,1.515.366-1.306-2.351,1.463-1.2-.732-1.359,1.515-.523-1.359-2.77,1.986-.784-1.15-2.247,3.135-.366-.209-.941.784-1.15-.366-2.979,4.233-.47-.418-1.568,1.15-.418-.523L394,333.219l21.059-8.831-1.515.261.732-.47-.679.052,10.242-4.285-2.142.418,2.3-1.045Z" transform="translate(-394 -268.214)"/>
        <path id="XMLID_56_" class="cls-36" d="M457.04,292.793c0,.47-.732.836-1.62.836h0c-.888,0-1.62-.366-1.62-.836V272.936c0-.47.732-.836,1.62-.836h0c.888,0,1.62.366,1.62.836Z" transform="translate(-422.551 -249.264)"/>
        <path id="XMLID_54_" class="cls-12" d="M457.088,299.148v-9.2a5.589,5.589,0,0,0-.836-.732,3.812,3.812,0,0,0-2.352-.627v6.95a4.512,4.512,0,0,0,.523.836,15.137,15.137,0,0,0,1.777,1.881C456.46,298.574,456.774,298.835,457.088,299.148Z" transform="translate(-422.599 -257.135)"/>
        <path id="XMLID_53_" class="cls-37" d="M448.267,248.8,438.6,272.524l2.561-2.352-.314,4.076,2.613-2.77-.941,3.135,2.352-1.568.052,3.031,1.986-3.292,1.359,3.4.993-2.508,1.306,1.411,1.254-2.3,2.77,1.829-.418-2.09,1.359.523.052-2.247,2.4,1.724Z" transform="translate(-415.294 -238.14)"/>
        <path id="XMLID_52_" class="cls-38" d="M448.267,248.8,438.6,272.524l2.561-2.352-.314,4.076,2.613-2.77-.941,3.135,2.352-1.568.052,3.031,1.986-3.292,1.359,3.4.993-2.508,1.306,1.411,1.254-2.3,2.77,1.829-.418-2.09,1.359.523.052-2.247,2.4,1.724Z" transform="translate(-415.294 -238.14)"/>
        <path id="XMLID_51_" class="cls-39" d="M448.84,238.2l-9.04,22.209,1.672-.679-.314,1.62,3.188-1.881-.888,2.926,2.195-1.463.052,2.874,1.881-3.083,1.254,3.135.941-2.352,1.2,1.306,1.2-2.09,2.561,1.672-.366-1.933,2.769,1.2-.679-2.142,1.463.888Z" transform="translate(-415.867 -233.079)"/>
        <path id="XMLID_47_" class="cls-40" d="M448.84,238.2l-9.04,22.209,1.672-.679-.314,1.62,3.188-1.881-.888,2.926,2.195-1.463.052,2.874,1.881-3.083,1.254,3.135.941-2.352,1.2,1.306,1.2-2.09,2.561,1.672-.366-1.933,2.769,1.2-.679-2.142,1.463.888Z" transform="translate(-415.867 -233.079)"/>
        <path id="XMLID_46_" class="cls-41" d="M449.868,228.4,442.5,246.637l1.2-1.1-.261,2.4,2.717-2.09-.679,2.352,1.777-1.15.052,2.3,1.515-2.508,1.045,2.561.784-1.881.993,1.045.993-1.724,2.09,1.359-.314-1.568,1.777.418.052-1.045,1.1.627Z" transform="translate(-417.156 -228.4)"/>
        <path id="XMLID_44_" class="cls-42" d="M449.868,228.4,442.5,246.637l1.2-1.1-.261,2.4,2.717-2.09-.679,2.352,1.777-1.15.052,2.3,1.515-2.508,1.045,2.561.784-1.881.993,1.045.993-1.724,2.09,1.359-.314-1.568,1.777.418.052-1.045,1.1.627Z" transform="translate(-417.156 -228.4)"/>
      </g>
      <g id="XMLID_23_" transform="translate(60.094 50.374)">
        <path id="XMLID_35_" class="cls-43" d="M143.479,297.633l7.263-3.031-3.71.836,1.672-1.1-1.777.261,1.933-.993-4.076.888.366-1.1-1.411.418,5.382-3.449s.157-.575-.732-.575a5.645,5.645,0,0,0-2.09.157l-3.971,2.717h0l-2.352,1.515.366-1.306-2.351,1.463-1.2-.732-1.359,1.515-.523-1.359-2.77,1.986-.784-1.15-2.247,3.135-.366-.209-.941.784-1.15-.366-2.979,4.233-.47-.418-1.568,1.15-.418-.523L115,311.219l21.059-8.831-1.515.261.732-.47-.679.052,10.242-4.285-2.142.418,2.3-1.045Z" transform="translate(-115 -246.266)"/>
        <path id="XMLID_34_" class="cls-44" d="M178.04,270.793c0,.47-.732.836-1.62.836h0c-.888,0-1.62-.366-1.62-.836V250.936c0-.47.732-.836,1.62-.836h0c.888,0,1.62.366,1.62.836Z" transform="translate(-143.551 -227.317)"/>
        <path id="XMLID_33_" class="cls-12" d="M178.088,277.148v-9.2a5.594,5.594,0,0,0-.836-.732,3.811,3.811,0,0,0-2.351-.627v7a4.514,4.514,0,0,0,.523.836,15.137,15.137,0,0,0,1.777,1.881C177.461,276.574,177.774,276.887,178.088,277.148Z" transform="translate(-143.599 -235.187)"/>
        <path id="XMLID_32_" class="cls-45" d="M169.367,226.8,159.7,250.524l2.561-2.352-.314,4.128,2.561-2.822-.941,3.135,2.351-1.568.052,3.083,1.986-3.292,1.411,3.344.993-2.508,1.254,1.411,1.306-2.247,2.717,1.777-.418-2.038,1.411.47.052-2.247,2.351,1.724Z" transform="translate(-136.342 -216.192)"/>
        <path id="XMLID_31_" class="cls-46" d="M169.367,226.8,159.7,250.524l2.561-2.352-.314,4.128,2.561-2.822-.941,3.135,2.351-1.568.052,3.083,1.986-3.292,1.411,3.344.993-2.508,1.254,1.411,1.306-2.247,2.717,1.777-.418-2.038,1.411.47.052-2.247,2.351,1.724Z" transform="translate(-136.342 -216.192)"/>
        <path id="XMLID_28_" class="cls-47" d="M169.892,216.2,160.8,238.461l1.672-.732-.314,1.62,3.188-1.881-.888,2.926,2.195-1.463.052,2.874,1.881-3.083,1.306,3.135.888-2.352,1.2,1.306,1.254-2.09,2.561,1.672-.418-1.933,2.77,1.254-.679-2.142,1.515.888Z" transform="translate(-136.867 -211.131)"/>
        <path id="XMLID_27_" class="cls-48" d="M169.892,216.2,160.8,238.461l1.672-.732-.314,1.62,3.188-1.881-.888,2.926,2.195-1.463.052,2.874,1.881-3.083,1.306,3.135.888-2.352,1.2,1.306,1.254-2.09,2.561,1.672-.418-1.933,2.77,1.254-.679-2.142,1.515.888Z" transform="translate(-136.867 -211.131)"/>
        <path id="XMLID_25_" class="cls-49" d="M170.92,206.5l-7.42,18.185,1.2-1.045-.209,2.4,2.717-2.142-.732,2.352,1.829-1.15v2.352l1.568-2.561,1.045,2.613.732-1.933.993,1.045.993-1.724,2.09,1.359-.314-1.568,1.829.418v-.993l1.1.575Z" transform="translate(-138.156 -206.5)"/>
        <path id="XMLID_24_" class="cls-50" d="M170.92,206.5l-7.42,18.185,1.2-1.045-.209,2.4,2.717-2.142-.732,2.352,1.829-1.15v2.352l1.568-2.561,1.045,2.613.732-1.933.993,1.045.993-1.724,2.09,1.359-.314-1.568,1.829.418v-.993l1.1.575Z" transform="translate(-138.156 -206.5)"/>
      </g>
      <g id="XMLID_10_" transform="translate(23.946 130.665)">
        <g id="XMLID_18_">
          <g id="Group_60" data-name="Group 60">
            <g id="XMLID_20_">
              <path id="Path_118" data-name="Path 118" class="cls-9" d="M63.84,368.641a1,1,0,0,1,0,1.881,3.652,3.652,0,0,1-3.292,0l-14.057-8.1a1,1,0,0,1,0-1.881,3.652,3.652,0,0,1,3.292,0Z" transform="translate(-45.825 -360.15)"/>
            </g>
          </g>
        </g>
        <g id="XMLID_11_" transform="translate(72.008 41.543)">
          <g id="Group_61" data-name="Group 61">
            <g id="XMLID_13_">
              <path id="Path_119" data-name="Path 119" class="cls-9" d="M201.588,448.141a1,1,0,0,1,0,1.881,3.652,3.652,0,0,1-3.292,0l-14-8.1a1,1,0,0,1,0-1.881,3.652,3.652,0,0,1,3.292,0Z" transform="translate(-183.625 -439.65)"/>
            </g>
          </g>
        </g>
      </g>
      <path id="XMLID_8_" class="cls-8" d="M100.716,318.5l-10.556,6.375,5.173,4.546L87.6,334.7l25.448,14.736,6.584-2.77,21.216,13.743,8.1-3.135-4.337-6.218,6.114-4.389Z" transform="translate(-41.824 -209.6)"/>
    </g>
    <g id="XMLID_3_" transform="translate(132.258 0)">
      <path id="XMLID_6_" class="cls-51" d="M253.1,34.332a34.28,34.28,0,0,0,5.9,19.23h0c8,15.99,15.154,24.665,21.477,45.619,2.822,9.406,6.95,26.075,6.95,26.075s4.128-16.669,6.95-26.075c6.323-20.9,13.43-29.577,21.477-45.619h0A34.327,34.327,0,1,0,253.1,34.332Z" transform="translate(-253.1 0)"/>
      <path id="Subtraction_1" data-name="Subtraction 1" class="cls-52" d="M-803.389-80.932h0c-1.28-5.028-3.716-14.408-5.643-20.741-4.458-14.774-9.364-23.556-14.558-32.853l-.125-.225-.317-.565c-2.108-3.762-4.287-7.653-6.477-12.081l-.052-.157-.052-.052a32.557,32.557,0,0,1-5.644-18.446,32.583,32.583,0,0,1,2.594-12.793,32.922,32.922,0,0,1,7.067-10.467,32.922,32.922,0,0,1,10.467-7.067,32.582,32.582,0,0,1,12.794-2.594,32.581,32.581,0,0,1,12.793,2.594,32.922,32.922,0,0,1,10.467,7.067,32.922,32.922,0,0,1,7.067,10.467,32.581,32.581,0,0,1,2.594,12.793,32.563,32.563,0,0,1-5.644,18.446l-.052.052-.052.157c-2.368,4.737-4.68,8.87-6.845,12.7l-.006.011c-5.238,9.376-10.185,18.232-14.678,33.066C-799.515-95.856-801.8-87.188-803.389-80.932Zm0-103.1a17.812,17.812,0,0,0-6.977,1.409,17.864,17.864,0,0,0-5.7,3.841,17.864,17.864,0,0,0-3.841,5.7,17.812,17.812,0,0,0-1.409,6.977,17.812,17.812,0,0,0,1.409,6.977,17.864,17.864,0,0,0,3.841,5.7,17.864,17.864,0,0,0,5.7,3.841,17.812,17.812,0,0,0,6.977,1.408,17.812,17.812,0,0,0,6.977-1.408,17.863,17.863,0,0,0,5.7-3.841,17.863,17.863,0,0,0,3.841-5.7,17.811,17.811,0,0,0,1.409-6.977,17.811,17.811,0,0,0-1.409-6.977,17.863,17.863,0,0,0-3.841-5.7,17.863,17.863,0,0,0-5.7-3.841A17.812,17.812,0,0,0-803.39-184.028Z" transform="translate(837.721 200.436)"/>
    </g>
  </g>
</svg>
