<svg xmlns="http://www.w3.org/2000/svg" viewBox="0 0 24 24">
  <defs>
    <style>
      .cls-1 {
        fill: #444;
      }
    </style>
  </defs>
  <path id="logout" class="cls-1" d="M17.773,19.787l3.453-3.453H8.333V13.667H21.227l-3.453-3.453,1.893-1.88L26.333,15l-6.667,6.667-1.893-1.88M24.333,3A2.667,2.667,0,0,1,27,5.667v6.227L24.333,9.227V5.667H5.667V24.333H24.333v-3.56L27,18.107v6.227A2.667,2.667,0,0,1,24.333,27H5.667A2.666,2.666,0,0,1,3,24.333V5.667A2.657,2.657,0,0,1,5.667,3Z" transform="translate(-3 -3)"/>
</svg>
