<svg id="Group_222" data-name="Group 222" xmlns="http://www.w3.org/2000/svg" viewBox="0 0 44.833 52.792">
  <defs>
    <style>
      .cls-1 {
        fill: #ed7a48;
      }
    </style>
  </defs>
  <path id="Path_256" data-name="Path 256" class="cls-1" d="M0,164.3v26.277a15.011,15.011,0,0,0,15.014,15.014h14.8a15.011,15.011,0,0,0,15.014-15.014V164.3Zm31.4,1.519a1.554,1.554,0,1,1-1.554,1.554A1.55,1.55,0,0,1,31.4,165.819Zm-17.947,0a1.554,1.554,0,1,1-1.554,1.554A1.55,1.55,0,0,1,13.453,165.819Zm20.789,21.062a11.617,11.617,0,0,1-.6,2.751,11.117,11.117,0,0,1-1.722,3.164,9.969,9.969,0,0,1-2.555,2.3,11.992,11.992,0,0,1-3.22,1.407,13.845,13.845,0,0,1-3.689.483,13.008,13.008,0,0,1-4.851-.875,11.028,11.028,0,0,1-3.766-2.464,11.211,11.211,0,0,1-2.45-3.808,13.228,13.228,0,0,1-.875-4.914,13.444,13.444,0,0,1,.861-4.886,10.721,10.721,0,0,1,2.45-3.794,11.1,11.1,0,0,1,3.829-2.45,13.51,13.51,0,0,1,4.991-.875,12.344,12.344,0,0,1,6.258,1.54,10.681,10.681,0,0,1,4.263,4.781,12.1,12.1,0,0,1,.812,2.331H27.544a5.713,5.713,0,0,0-2.044-2.695,5.125,5.125,0,0,0-2.856-.819,5.807,5.807,0,0,0-2.422.5,5.29,5.29,0,0,0-1.862,1.421,6.931,6.931,0,0,0-1.211,2.226,9.007,9.007,0,0,0-.441,2.9,9.254,9.254,0,0,0,.378,2.695,6.129,6.129,0,0,0,1.134,2.149,5.161,5.161,0,0,0,1.876,1.407,6.286,6.286,0,0,0,2.6.5,7.1,7.1,0,0,0,1.694-.2,4.484,4.484,0,0,0,1.47-.637,3.61,3.61,0,0,0,1.071-1.134,4.52,4.52,0,0,0,.574-1.694H22.637v-4.6H34.4C34.39,184.8,34.341,185.894,34.243,186.881Z" transform="translate(0 -152.799)"/>
  <g id="Group_198" data-name="Group 198" transform="translate(13.481)">
    <path id="Path_257" data-name="Path 257" class="cls-1" d="M193.857,9.709a1.429,1.429,0,0,1-.238-.021,1.256,1.256,0,0,1-1-1.463C193.612,3,196.867,0,201.557,0c4.711,0,7.973,3,8.939,8.225a1.253,1.253,0,0,1-2.464.462c-.525-2.821-2.072-6.174-6.475-6.174-4.382,0-5.936,3.36-6.468,6.181A1.258,1.258,0,0,1,193.857,9.709Z" transform="translate(-192.597 0)"/>
  </g>
</svg>
