<svg xmlns="http://www.w3.org/2000/svg" viewBox="0 0 30.296 38.39">
  <defs>
    <style>
      .cls-1, .cls-2 {
        stroke: none;
      }
    </style>
  </defs>
  <g id="map_pin" data-name="map pin" transform="translate(0.05 0.05)">
    <g id="Group_42" data-name="Group 42" transform="translate(0 0)">
      <g id="Path_19" data-name="Path 19" transform="translate(-37.259 0)">
        <path class="cls-1" d="M 52.35703659057617 38.31546401977539 C 51.85962295532227 38.31546401977539 51.39849472045898 38.04651641845703 51.15360641479492 37.61357498168945 L 46.24253463745117 28.93304634094238 C 43.67859649658203 27.79953002929688 41.48068618774414 25.97425651550293 39.88589477539062 23.65408515930176 C 38.15101623535156 21.13019561767578 37.23400497436523 18.17160415649414 37.23400497436523 15.09816551208496 C 37.23400497436523 6.759224891662598 44.01822662353516 -0.02499493770301342 52.35715484619141 -0.02499493770301342 C 60.69608306884766 -0.02499493770301342 67.48030853271484 6.759224891662598 67.48030853271484 15.09816551208496 C 67.48030853271484 18.17181587219238 66.56321716308594 21.13040542602539 64.82817840576172 23.65408515930176 C 63.23338317871094 25.97426795959473 61.03547286987305 27.79953002929688 58.4715461730957 28.93304634094238 L 53.56048583984375 37.61357498168945 C 53.3155632019043 38.04651641845703 52.85442352294922 38.31546401977539 52.35703659057617 38.31546401977539 Z M 52.35715484619141 2.74050498008728 C 45.54311370849609 2.74050498008728 39.99949645996094 8.284125328063965 39.99949645996094 15.09816551208496 C 39.99949645996094 20.16392517089844 43.03482437133789 24.6632251739502 47.73234558105469 26.56066513061523 C 48.02114486694336 26.67746543884277 48.26463317871094 26.89101600646973 48.41798400878906 27.16199493408203 L 52.35715484619141 34.1246337890625 L 56.29632568359375 27.16199493408203 C 56.44951629638672 26.89107513427734 56.6930046081543 26.67751502990723 56.98192596435547 26.56066513061523 C 61.67946624755859 24.6632251739502 64.71479797363281 20.16392517089844 64.71479797363281 15.09816551208496 C 64.71479797363281 8.284125328063965 59.17118453979492 2.74050498008728 52.35715484619141 2.74050498008728 Z"/>
        <path class="cls-2" d="M 52.35703659057617 38.29046630859375 C 52.84627532958984 38.29046630859375 53.29778671264648 38.02716445922852 53.53872299194336 37.60126495361328 L 58.45386505126953 28.91352462768555 C 61.01945495605469 27.78094482421875 63.20901489257812 25.96558570861816 64.80757141113281 23.63992500305176 C 66.53984832763672 21.12026596069336 67.45530700683594 18.16646575927734 67.45530700683594 15.09816551208496 C 67.45530700683594 6.772994995117188 60.68220520019531 5.061645424575545e-06 52.35715484619141 5.061645424575545e-06 C 44.03197479248047 5.061645424575545e-06 37.25900650024414 6.772994995117188 37.25900650024414 15.09816551208496 C 37.25900650024414 18.16646575927734 38.17444610595703 21.12015533447266 39.906494140625 23.63992500305176 C 41.50505447387695 25.96558570861816 43.69462585449219 27.78094482421875 46.26021575927734 28.91352462768555 L 51.17536544799805 37.60126495361328 C 51.41627502441406 38.02716445922852 51.86781311035156 38.29046630859375 52.35703659057617 38.29046630859375 M 52.35715484619141 2.715505123138428 C 59.18498611450195 2.715505123138428 64.73979187011719 8.27032470703125 64.73979187011719 15.09816551208496 C 64.73979187011719 20.17418479919434 61.69833374023438 24.68256568908691 56.99129486083984 26.5838451385498 C 56.70660400390625 26.69898414611816 56.46917343139648 26.9071044921875 56.31808471679688 27.1743049621582 L 52.35715484619141 34.1754035949707 L 48.39622497558594 27.1743049621582 C 48.24501419067383 26.9071044921875 48.00768661499023 26.69898414611816 47.72298431396484 26.5838451385498 C 43.01595306396484 24.68256568908691 39.97449493408203 20.17418479919434 39.97449493408203 15.09816551208496 C 39.97449493408203 8.27032470703125 45.52930450439453 2.715505123138428 52.35715484619141 2.715505123138428 M 52.35703659057617 38.3404655456543 C 51.85063552856445 38.3404655456543 51.38116455078125 38.06665420532227 51.13184356689453 37.62588500976562 L 46.22484588623047 28.95255470275879 C 43.65989303588867 27.81691551208496 41.46114349365234 25.98997116088867 39.86529541015625 23.66824531555176 C 38.12753295898438 21.14017486572266 37.20900344848633 18.17668533325195 37.20900344848633 15.09816551208496 C 37.20900344848633 6.745445251464844 44.00443649291992 -0.04999493807554245 52.35715484619141 -0.04999493807554245 C 60.70987319946289 -0.04999493807554245 67.50530242919922 6.745445251464844 67.50530242919922 15.09816551208496 C 67.50530242919922 18.17689514160156 66.58669281005859 21.1403751373291 64.84877777099609 23.66825485229492 C 63.2529296875 25.98997116088867 61.05417633056641 27.81692504882812 58.48923110961914 28.95255470275879 L 53.58224487304688 37.62588500976562 C 53.33289337158203 38.06665420532227 52.8634147644043 38.3404655456543 52.35703659057617 38.3404655456543 Z M 52.35715484619141 2.765505075454712 C 45.55690383911133 2.765505075454712 40.02449417114258 8.297915458679199 40.02449417114258 15.09816551208496 C 40.02449417114258 20.1536750793457 43.05368423461914 24.64387512207031 47.74171447753906 26.53748512268066 C 48.03573608398438 26.65639495849609 48.28362655639648 26.87380599975586 48.43974304199219 27.1496753692627 L 52.35715484619141 34.07386016845703 L 56.27456665039062 27.14968490600586 C 56.43052673339844 26.87387466430664 56.67841339111328 26.65645599365234 56.9725456237793 26.53749465942383 C 61.66060638427734 24.64388465881348 64.68979644775391 20.15368461608887 64.68979644775391 15.09816551208496 C 64.68979644775391 8.297915458679199 59.15739440917969 2.765505075454712 52.35715484619141 2.765505075454712 Z"/>
      </g>
      <g id="Path_20" data-name="Path 20" transform="translate(-114.363 -76.444)">
        <path class="cls-1" d="M 129.4615325927734 97.1890869140625 C 126.3033676147461 97.1890869140625 123.734016418457 94.61972808837891 123.734016418457 91.46155548095703 C 123.734016418457 88.30337524414062 126.3033676147461 85.7340087890625 129.4615325927734 85.7340087890625 C 132.6197052001953 85.7340087890625 135.1890716552734 88.30337524414062 135.1890716552734 91.46155548095703 C 135.1890716552734 94.61972808837891 132.6197052001953 97.1890869140625 129.4615325927734 97.1890869140625 Z M 129.4615325927734 88.49952697753906 C 127.8282241821289 88.49952697753906 126.4994354248047 89.82828521728516 126.4994354248047 91.46155548095703 C 126.4994354248047 93.09482574462891 127.8282241821289 94.42359161376953 129.4615325927734 94.42359161376953 C 131.0948028564453 94.42359161376953 132.4235534667969 93.09482574462891 132.4235534667969 91.46155548095703 C 132.4235534667969 89.82828521728516 131.0948028564453 88.49952697753906 129.4615325927734 88.49952697753906 Z"/>
        <path class="cls-2" d="M 129.4615325927734 97.16408538818359 C 132.6059722900391 97.16408538818359 135.1640777587891 94.60601043701172 135.1640777587891 91.46155548095703 C 135.1640777587891 88.31711578369141 132.6059722900391 85.75901031494141 129.4615325927734 85.75901031494141 C 126.3171005249023 85.75901031494141 123.7590179443359 88.31711578369141 123.7590179443359 91.46155548095703 C 123.7590179443359 94.60601043701172 126.3171005249023 97.16408538818359 129.4615325927734 97.16408538818359 M 129.4615325927734 88.47452545166016 C 131.1086273193359 88.47452545166016 132.4485626220703 89.81444549560547 132.4485626220703 91.46155548095703 C 132.4485626220703 93.10865020751953 131.1086273193359 94.44858551025391 129.4615325927734 94.44858551025391 C 127.8144073486328 94.44858551025391 126.4744415283203 93.10865020751953 126.4744415283203 91.46155548095703 C 126.4744415283203 89.81444549560547 127.8144073486328 88.47452545166016 129.4615325927734 88.47452545166016 M 129.4615325927734 97.21408843994141 C 126.2895889282227 97.21408843994141 123.7090148925781 94.63351440429688 123.7090148925781 91.46155548095703 C 123.7090148925781 88.28958892822266 126.2895889282227 85.70900726318359 129.4615325927734 85.70900726318359 C 132.6334991455078 85.70900726318359 135.2140808105469 88.28958892822266 135.2140808105469 91.46155548095703 C 135.2140808105469 94.63351440429688 132.6334991455078 97.21408843994141 129.4615325927734 97.21408843994141 Z M 129.4615325927734 88.52452850341797 C 127.8420104980469 88.52452850341797 126.5244369506836 89.84207916259766 126.5244369506836 91.46155548095703 C 126.5244369506836 93.08103942871094 127.8420104980469 94.39859008789062 129.4615325927734 94.39859008789062 C 131.0810089111328 94.39859008789062 132.3985595703125 93.08103942871094 132.3985595703125 91.46155548095703 C 132.3985595703125 89.84207916259766 131.0810089111328 88.52452850341797 129.4615325927734 88.52452850341797 Z"/>
      </g>
    </g>
  </g>
</svg>
