<svg xmlns="http://www.w3.org/2000/svg" width="258.342" height="212.371" viewBox="0 0 258.342 212.371">
  <g id="Group_4499" data-name="Group 4499" transform="translate(417.689 -3432.389)">
    <path id="Path_3158" data-name="Path 3158" d="M-356.029,3498.11v.01c.64.08,1.29.15,1.94.23C-354.729,3498.26-355.379,3498.18-356.029,3498.11Zm0,.02v-.01c-.01-.01-.01-.01-.02-.01h-.01c-.03,0-.07-.01-.1-.01l.15.11C-356.019,3498.18-356.019,3498.16-356.029,3498.13Z"/>
    <path id="Path_3159" data-name="Path 3159" d="M-272.379,3644.76h-64.79c0-5.05-.51-9.9.09-14.61,3.13-24.57-8.96-41.99-26.08-57.36-6.55-5.87-12.49-12.43-18.56-18.81-4.77-5.01-5.47-10.83-2.62-17.09,4.4-9.68,8.5-19.53,13.4-28.96,2.96-5.71,6.63-11.64,14.93-9.72l-.15-.11.13.03c1.12.22,2.23.45,3.35.68,1.66.34,3.33.68,4.99,1.03q4.17.87,8.34,1.72c2.81.58,5.61,1.14,8.42,1.69s5.62,1.08,8.43,1.58c3.87.69,4.72,2.18,4.27,5.97-1.45,12.21-1.48,11.7-13.04,15.69-7.51,2.59-13.53,1.08-18.64-2.91-1.86,5.97-3.67,11.73-5.78,18.47,5.05,0,10.29-.12,15.53.08,1.65.06,3.77.5,4.84,1.59,11.92,12.09,23.67,24.33,35.89,36.96-2.88,3.32-5.66,6.52-9.07,10.46,7.8.54,8.02,6.39,9.43,11.6a157.049,157.049,0,0,0,6.68,19.78c-.69-6.08-1.07-12.21-2.18-18.22-1-5.46-1.54-10.31,4.97-12.2-4.26-15.07-17.43-22.2-26.83-32.59,16.39,6.41,32.52,12.73,49.53,19.39C-279.359,3599.4-273.259,3622.05-272.379,3644.76Z" fill="#fff"/>
    <path id="Path_3160" data-name="Path 3160" d="M-159.929,3610.95c-1.65-5.45-4.8-9.91-9.95-12.58-2.49-1.3-3.43-2.81-3.41-5.77.04-8.24-5.13-14.37-13.38-14.39-6.56-.01-11.47-1.53-14.66-7.24a7.528,7.528,0,0,1-.99-4.85c1.13-4.83,2.99-9.5,4.05-14.35,1.86-8.47.22-12.02-7.26-16.62-10.49-6.47-22.04-9.23-34.27-9.1-10.82.12-14.07,2.86-15.93,13.58-.77,4.41-2.94,5.71-7.23,5.45a9.984,9.984,0,0,0-6.39,2.1c-4.98,4.13-9.57,8.71-14.55,13.33-3.01-2.86-5.67-5.59-8.56-8.06a18.616,18.616,0,0,0-5.26-3.22c-4.29-1.66-8.82-2.71-13-4.57-3.74-1.67-7.15-4.08-11-6.34-2.47,3.06-4.7,5.81-7.31,9.04,3.98,3.02,7.11,6.18,10.87,8.13,28.61,14.84,58.56,24.5,91.35,22.62,8.02-.46,15.91-1.14,22.49-7.54,2.19,2.73,4.08,5.09,6.15,7.67-4.99,2.57-9.71,4.86-9.19,10.7.21,2.37,1.74,5.55,3.65,6.63,2.97,1.68,6.38.19,8.05-2.92a17.622,17.622,0,0,0,1.5-6.66,32.9,32.9,0,0,0-.41-5.68c13.93-1.79,21.62,4.68,18.41,15.04-9.87-.53-12.39.3-13.17,4.49-.6,3.2.6,5.6,3.63,6.85,4.1,1.7,7.15-.27,12.24-8.03,6.61,2.98,10.99,7.74,11.95,14.54,1.41,10.01-6.45,12.31-15.08,14.48C-165.6,3630.19-156.989,3620.63-159.929,3610.95Zm-50.77-61.94c-12.22,1.77-23.71-1.08-34.5-6.89a13.95,13.95,0,0,1-3.14-2.44c-3.17-3.16-2.74-6.04,1.55-7.55,3.22-1.12,6.77-1.33,10.17-1.95,10.04.74,19.53,2.98,28.07,8.16,2.14,1.3,3.34,4.16,4.97,6.31C-205.949,3546.16-208.169,3548.65-210.7,3549.01Zm13.08,42.65a6.59,6.59,0,0,1-5.49,1.81c-1.09-.25-2.33-3.11-2.24-4.74.25-4.55,3.4-6.75,7.78-7.85C-195.439,3584.67-194.939,3588.42-197.619,3591.66Zm12.74,12.83a5.612,5.612,0,0,1-2.13-4.71c.56-3,5.52-3.52,10.43-1.41C-178.439,3603.61-181.769,3606.27-184.879,3604.49Z" fill="#f8ba1a"/>
    <path id="Path_3161" data-name="Path 3161" d="M-356.849,3467.88c-5.36-16.14-15.96-27.9-31.45-34.72-3.08-1.35-8.28-.86-11.15.94-4.96,3.13-9.08,7.73-13.14,12.1-5.23,5.61-6.59,12.36-3.37,19.42,3.98,8.75,7.85,17.64,12.83,25.83a101.208,101.208,0,0,0,23.97,27.03c3.1-2.97,2.77-5.12-.13-8-6.08-6.05-11.68-12.59-17.48-18.92.27-.23.54-.45.8-.67,6.73,6.84,13.46,13.69,19.93,20.27,5.07-5.86,9.47-10.95,14.12-16.32-6.85-7.77-6.91-8.4,1.32-15C-356.519,3476.56-355.309,3472.5-356.849,3467.88Zm-10.14,7.59a24.286,24.286,0,0,1-7.03-3.61,60.163,60.163,0,0,1-19.15-23.16,21.885,21.885,0,0,1-1.76-5.68c-.66-4.26,1.2-5.94,5.36-5.15,9.95,1.88,28.13,23.27,28.22,33.19C-361.309,3475.03-363.159,3476.67-366.989,3475.47Z" fill="#f8ba1a"/>
    <path id="Path_3162" data-name="Path 3162" d="M-277.879,3511.85c-6.01,10.93-12.48,21.62-19.16,32.16-.78,1.23-4.24,2.01-5.72,1.35-5.7-2.54-11.1-5.76-16.43-8.62,9.98-14.52,14.49-30.95,25.23-44.64,5.52,4.29,10.79,7.81,15.24,12.18C-277.269,3505.71-276.839,3509.96-277.879,3511.85Z" fill="#fff"/>
    <path id="Path_3163" data-name="Path 3163" d="M-264.019,3537.95c-5.67,5.61-11.61,10.95-17.33,16.51-1.97,1.93-3.34,1.84-5.37-.07-7.61-7.14-7.67-7.07-2.55-16,4.22-7.36,8.39-14.74,12.66-22.06,1.23-2.11,2.77-4.03,4.67-6.76,3.48,3.66,6.37,6.4,8.9,9.44C-258.159,3524.89-258.539,3532.54-264.019,3537.95Z" fill="#fff"/>
    <path id="Path_3164" data-name="Path 3164" d="M-356.049,3498.11c.01,0,.01,0,.02.01v.01c.01.03.01.05.02.08l-.15-.11c.03,0,.07.01.1.01Z" fill="#fff"/>
    <path id="Path_3165" data-name="Path 3165" d="M-326.139,3479.35c-2.66,6.06-4.78,12.36-7.52,18.38a5.361,5.361,0,0,1-4.28,2.4c-.57-.04-1.14-.08-1.71-.13-.41-.03-.81-.06-1.22-.1-1.31-.12-2.61-.25-3.91-.4-1.52-.17-3.04-.36-4.56-.55-.94-.11-1.87-.23-2.81-.36-1.29-.16-2.59-.32-3.88-.47v-.01a9.6,9.6,0,0,0-.27-.98c-.08-.27-.17-.53-.25-.8a4.77,4.77,0,0,1-.32-2.87c2.01-5.78,4.4-11.42,6.72-17.09,1.25-3.08,3.5-4.91,6.94-4.46,4.9.65,9.8,1.39,14.64,2.35C-325.829,3474.8-324.819,3476.33-326.139,3479.35Z" fill="#fff"/>
    <path id="Path_3166" data-name="Path 3166" d="M-301.249,3496.75c-3.84,7.52-7.64,15.06-11.5,22.57a24.26,24.26,0,0,1-2.64,3.02c.31-6.87.56-12.28.83-18.26-5.3-.94-10.43-1.85-16.34-2.9,2.56-7.22,4.83-14.07,7.48-20.77.95-2.4,3.1-3.31,5.75-1.84,4.5,2.49,9.17,4.7,13.56,7.38A8.111,8.111,0,0,1-301.249,3496.75Z" fill="#fff"/>
    <path id="Path_3167" data-name="Path 3167" d="M-345.609,3637.15c-.25.34-.51.68-.76,1.02-23.1-14.86-46.19-29.72-69.97-45.02,3.12-3.59,5.69-6.55,8.65-9.95C-386.759,3601.39-366.179,3619.27-345.609,3637.15Z" fill="#f8ba1a"/>
    <path id="Path_3168" data-name="Path 3168" d="M-357.5,3632.77c-.13.28-.27.56-.41.84-18.43-7.32-36.87-14.63-55.94-22.2,2.03-3.21,3.83-6.06,5.87-9.29C-390.869,3612.51-374.179,3622.64-357.5,3632.77Z" fill="#f8ba1a"/>
    <path id="Path_3169" data-name="Path 3169" d="M-366.549,3611.64c-.31.27-.61.55-.91.82-12.85-13.57-25.7-27.14-39.16-41.35,2.84-1.76,5.04-3.12,7.65-4.74C-388,3581.68-377.279,3596.66-366.549,3611.64Z" fill="#f8ba1a"/>
    <path id="Path_3170" data-name="Path 3170" d="M-226.809,3609.39c-11.56,9.21-22.73,18.09-33.9,26.98-.34-.36-.69-.72-1.03-1.08,8.97-10.88,17.94-21.77,27.21-33.01C-231.779,3604.81-229.519,3606.9-226.809,3609.39Z" fill="#f8ba1a"/>
    <path id="Path_3171" data-name="Path 3171" d="M-205.9,3613.57c-16.17,7.29-31.77,14.32-47.36,21.35-.17-.31-.34-.62-.5-.93,14.22-8.93,28.45-17.86,43.15-27.08C-209.049,3609.11-207.679,3611.04-205.9,3613.57Z" fill="#f8ba1a"/>
    <path id="Path_3172" data-name="Path 3172" d="M-323.759,3529.3c-.71,4.12-1.24,7.16-1.89,10.94-3.7-1.04-7.04-1.98-11.63-3.28C-332.239,3534.1-328.429,3531.95-323.759,3529.3Z" fill="#fff"/>
  </g>
</svg>
