<svg xmlns="http://www.w3.org/2000/svg" viewBox="0 0 331.882 303.585">
  <defs>
    <style>
      .cls-1 {
        fill: #d67041;
      }

      .cls-2 {
        fill: #fff;
      }

      .cls-3 {
        fill: #e7e7e9;
      }

      .cls-4 {
        fill: #454e57;
      }

      .cls-5 {
        fill: #b9b9bc;
      }

      .cls-6 {
        fill: #2e3640;
      }

      .cls-7 {
        fill: #9e9e9e;
      }

      .cls-8 {
        fill: #fffefe;
      }

      .cls-9 {
        fill: #30363f;
      }

      .cls-10 {
        fill: #49505a;
      }

      .cls-11 {
        fill: #73bdc5;
      }

      .cls-12 {
        fill: #5e9ca4;
      }

      .cls-13 {
        fill: #eac78f;
      }

      .cls-14 {
        fill: #282828;
      }
    </style>
  </defs>
  <g id="Group_57" data-name="Group 57" transform="translate(-6.508 -45.886)">
    <rect id="Rectangle_151" data-name="Rectangle 151" class="cls-1" width="185.907" height="254.233" transform="matrix(0.963, -0.27, 0.27, 0.963, 6.508, 96.062)"/>
    <rect id="Rectangle_152" data-name="Rectangle 152" class="cls-2" width="169.151" height="235.401" transform="matrix(0.963, -0.27, 0.27, 0.963, 16.755, 101.615)"/>
    <rect id="Rectangle_153" data-name="Rectangle 153" class="cls-3" width="84.551" height="235.401" transform="matrix(0.963, -0.27, 0.27, 0.963, 16.772, 101.591)"/>
    <path id="Path_85" data-name="Path 85" class="cls-4" d="M196.678,120.922l-27.572,7.726a9.56,9.56,0,0,0,.676-4.974,9.8,9.8,0,1,0-19.46,2.366,9.705,9.705,0,0,0,3.96,6.712L128.4,140l5.456,19.412,68.278-19.122Zm-37.374-1.98a6.01,6.01,0,1,1-5.215,6.712A6.055,6.055,0,0,1,159.3,118.942Z" transform="translate(-66.399 -59.5)"/>
    <path id="Path_86" data-name="Path 86" class="cls-5" d="M287.5,239.188c.483,1.593.29,3.042-.435,3.235l-61.47,17.818c-.676.193-1.642-.917-2.076-2.511h0c-.483-1.594-.29-3.042.435-3.235l61.47-17.818c.676-.193,1.593.917,2.076,2.511Z" transform="translate(-115.448 -122.38)"/>
    <path id="Path_87" data-name="Path 87" class="cls-5" d="M281.246,257.527c.483,1.593.193,3.09-.628,3.284l-71.9,20.812c-.821.241-1.835-.869-2.27-2.463h0c-.483-1.593-.193-3.09.628-3.284l71.9-20.812c.773-.241,1.787.869,2.27,2.463Z" transform="translate(-106.639 -131.883)"/>
    <path id="Path_88" data-name="Path 88" class="cls-5" d="M350.23,496.181c.435,1.5.145,2.946-.676,3.187l-71.9,20.812c-.821.241-1.835-.821-2.27-2.318h0c-.435-1.5-.145-2.946.676-3.187l71.948-20.812c.773-.241,1.787.821,2.221,2.318Z" transform="translate(-142.304 -255.372)"/>
    <path id="Path_89" data-name="Path 89" class="cls-5" d="M355.93,515.941c.435,1.5.145,2.946-.676,3.187l-71.9,20.764c-.821.241-1.835-.821-2.27-2.318h0c-.435-1.5-.145-2.945.676-3.187l71.9-20.812c.821-.193,1.835.821,2.27,2.366Z" transform="translate(-145.252 -265.57)"/>
    <path id="Path_90" data-name="Path 90" class="cls-5" d="M314.135,371.5c.386,1.255,0,2.511-.773,2.752l-71.9,20.812c-.821.241-1.738-.628-2.125-1.883h0c-.386-1.255,0-2.511.773-2.752l71.9-20.86c.773-.193,1.738.628,2.125,1.931Z" transform="translate(-123.689 -191.099)"/>
    <path id="Path_91" data-name="Path 91" class="cls-5" d="M329.968,389.2c.386,1.255.1,2.463-.579,2.656L267.146,409.87c-.676.193-1.545-.676-1.931-1.932h0c-.386-1.255-.1-2.463.579-2.656l62.243-18.011c.724-.193,1.594.676,1.932,1.931Z" transform="translate(-137.06 -200.254)"/>
    <path id="Path_92" data-name="Path 92" class="cls-5" d="M320.04,352.488c.386,1.255.1,2.463-.579,2.656l-61.615,17.818c-.676.193-1.545-.676-1.932-1.932h0c-.386-1.255-.1-2.463.579-2.656l61.615-17.818c.676-.241,1.545.628,1.932,1.931Z" transform="translate(-132.251 -181.261)"/>
    <path id="Path_93" data-name="Path 93" class="cls-6" d="M146.187,268.345l-5.408-3.09a1.078,1.078,0,0,0-1.449.386L127.4,286.549l-11.01-6.036a1.078,1.078,0,0,0-1.449.386l-3.09,5.408a1.078,1.078,0,0,0,.386,1.449l17.432,9.513a1.078,1.078,0,0,0,1.449-.386l2.221-3.863h0l.338-.579.531-.917v-.048l12.362-21.729A.966.966,0,0,0,146.187,268.345Z" transform="translate(-57.772 -137.099)"/>
    <path id="Path_94" data-name="Path 94" class="cls-6" d="M184.587,401.045l-5.408-3.09a1.078,1.078,0,0,0-1.449.386L165.8,419.249l-11.01-6.036a1.078,1.078,0,0,0-1.449.386l-3.09,5.408a1.078,1.078,0,0,0,.386,1.449l17.432,9.513a1.078,1.078,0,0,0,1.449-.386l2.221-3.863h0l.338-.579.531-.917v-.048l12.362-21.729A.966.966,0,0,0,184.587,401.045Z" transform="translate(-77.63 -205.722)"/>
    <path id="Path_95" data-name="Path 95" class="cls-6" d="M221.387,528.145l-5.408-3.09a1.078,1.078,0,0,0-1.449.386L202.6,546.349l-11.01-5.939a1.078,1.078,0,0,0-1.449.386l-3.09,5.408a1.078,1.078,0,0,0,.386,1.449l17.432,9.513a1.078,1.078,0,0,0,1.449-.386l2.221-3.863h0l.338-.579.531-.917v-.048l12.362-21.729A1.052,1.052,0,0,0,221.387,528.145Z" transform="translate(-96.66 -271.448)"/>
    <g id="Group_53" data-name="Group 53" transform="translate(193.044 71.46)">
      <g id="Group_52" data-name="Group 52">
        <path id="Path_106" data-name="Path 106" class="cls-3" d="M586.641,179.245a71.461,71.461,0,0,1-.724,10.237,70.651,70.651,0,0,1-69.872,60.359c-1.014,0-2.028-.048-3.042-.048a70.628,70.628,0,1,1,73.638-70.548Z" transform="translate(-443.372 -106.62)"/>
        <path id="Path_107" data-name="Path 107" class="cls-2" d="M513.873,104.5a72.658,72.658,0,0,0-3.139,145.249c.773.048,1.5.048,2.27.048l-2.076-2.076L508.8,245.6a68.614,68.614,0,1,1,73.687-68.423,67.645,67.645,0,0,1-.483,8.257l1.787,1.787L585.58,189a11.266,11.266,0,0,0,.193-1.255,70.371,70.371,0,0,0,.773-10.575A72.808,72.808,0,0,0,513.873,104.5Z" transform="translate(-441.2 -104.5)"/>
      </g>
      <path id="Path_108" data-name="Path 108" class="cls-7" d="M657.929,275.625a73,73,0,0,1-71.659,60.842H585.4l-2.076-2.076-2.125-2.125c.676.048,1.4.1,2.076.145.966.048,1.98.048,2.994.048a68.933,68.933,0,0,0,67.892-58.621c.1-.579.145-1.159.193-1.738l1.787,1.787Z" transform="translate(-513.598 -191.17)"/>
      <path id="Path_109" data-name="Path 109" class="cls-5" d="M587.8,234.664c-.048.579-.145,1.159-.193,1.738a68.934,68.934,0,0,1-67.892,58.621c-1.014,0-1.98-.048-2.994-.048-.724-.048-1.4-.048-2.076-.145L452.5,232.056,552.89,199.8Z" transform="translate(-447.044 -153.782)"/>
      <path id="Path_110" data-name="Path 110" class="cls-8" d="M451.256,254.961h24.53a.047.047,0,0,0,.048-.048v-9.947a.969.969,0,0,0-.966-.966H451.353a5.585,5.585,0,0,0-5.553,5.553h0A5.5,5.5,0,0,0,451.256,254.961Z" transform="translate(-443.579 -176.639)"/>
      <circle id="Ellipse_12" data-name="Ellipse 12" class="cls-8" cx="42.3" cy="42.3" r="42.3" transform="translate(30.373 30.325)"/>
      <path id="Path_111" data-name="Path 111" class="cls-9" d="M589.224,217.46a35.015,35.015,0,1,1-3.815-15.838A34.931,34.931,0,0,1,589.224,217.46Z" transform="translate(-481.639 -144.836)"/>
      <path id="Path_112" data-name="Path 112" class="cls-10" d="M593.516,224.079a34.883,34.883,0,0,1-62,21.971A34.884,34.884,0,0,1,589.7,208.241,35.155,35.155,0,0,1,593.516,224.079Z" transform="translate(-485.931 -151.455)"/>
    </g>
    <g id="Group_55" data-name="Group 55" transform="translate(21.606 223.21)">
      <g id="Group_54" data-name="Group 54" transform="translate(5.822 7.169)">
        <path id="Path_113" data-name="Path 113" class="cls-6" d="M57.041,485.261,158.059,595.646a1.667,1.667,0,0,0,2.318.145l6.277-5.746a1.66,1.66,0,0,0,.048-2.318L65.685,477.341a1.281,1.281,0,0,0-.29-.241l-8.6,7.871A1.28,1.28,0,0,1,57.041,485.261Z" transform="translate(-56.8 -477.1)"/>
        <path id="Path_114" data-name="Path 114" class="cls-11" d="M170.559,592.362l2.559-2.318a1.66,1.66,0,0,0,.048-2.318L72.149,477.341a1.281,1.281,0,0,0-.29-.241L69.3,479.418a.849.849,0,0,1,.241.193l.048.048L170.607,590.044A1.658,1.658,0,0,1,170.559,592.362Z" transform="translate(-63.264 -477.1)"/>
        <path id="Path_115" data-name="Path 115" class="cls-12" d="M63.341,484.994,164.359,595.379c.628.676,1.3,1.062,1.545.869l2.221-2.028c.241-.193-.1-.917-.724-1.594L66.384,482.241l-.048-.048L66.142,482,63.1,484.752Z" transform="translate(-60.058 -479.634)"/>
      </g>
      <path id="Path_116" data-name="Path 116" class="cls-13" d="M59.31,469.527s-13.907-7.581-14.438-7.147c-.483.435,5.794,15.017,5.794,15.017Z" transform="translate(-44.796 -462.31)"/>
      <path id="Path_117" data-name="Path 117" class="cls-14" d="M49.986,464.594s-4.974-2.608-5.215-2.318c-.29.338,1.835,5.408,1.835,5.408Z" transform="translate(-44.744 -462.253)"/>
    </g>
  </g>
</svg>
