<svg xmlns="http://www.w3.org/2000/svg" viewBox="0 0 24 26.639">
  <defs>
    <style>
      .cls-1 {
        fill: #444;
      }
    </style>
  </defs>
  <path id="orders" class="cls-1" d="M24.333,3.66H18.76a4,4,0,0,0-7.52,0H5.667A2.667,2.667,0,0,0,3,6.326V24.993A2.667,2.667,0,0,0,5.667,27.66H24.333A2.667,2.667,0,0,0,27,24.993V6.326A2.667,2.667,0,0,0,24.333,3.66M15,3.66a1.333,1.333,0,1,1-1.333,1.333A1.333,1.333,0,0,1,15,3.66M8.333,8.993H21.667V6.326h2.667V24.993H5.667V6.326H8.333V8.993m13.333,5.333H8.333V11.66H21.667v2.667M19,19.66H8.333V16.993H19Z" transform="translate(-3 -1.021)"/>
</svg>
