<?xml version="1.0" encoding="utf-8"?>
<!-- Generator: Adobe Illustrator 22.1.0, SVG Export Plug-In . SVG Version: 6.00 Build 0)  -->
<svg version="1.1" id="Layer_1" xmlns="http://www.w3.org/2000/svg" xmlns:xlink="http://www.w3.org/1999/xlink" x="0px" y="0px"
	 viewBox="0 0 100 100" style="enable-background:new 0 0 100 100;" xml:space="preserve">
<style type="text/css">
	.st0{fill:none;}
</style>
<g>
	<g>
		<polygon class="st0" points="10.7,53.1 22.7,53.1 30.9,59.3 39.3,54 69.8,53.9 75.2,56.2 82.9,53.7 87.6,53.1 87.6,44.6 11,44.6 
					"/>
		<g>
			<path class="st0" d="M3.8,43.6h90.6c0,0,1.7-19.7-19.7-30.9c-3.3-1.7-6.9-2.6-10.6-2.6H34.8C34.8,10.1,5.7,13.1,3.8,43.6z"/>
			<path d="M95.3,44.6H2.7l0.1-1c2-31,31.6-34.4,31.9-34.4l29.4,0c3.8,0,7.6,0.9,11,2.7c21.7,11.3,20.3,31.6,20.3,31.8L95.3,44.6z
				 M4.8,42.6h88.6c0-3.9-1-19.5-19.2-29c-3.1-1.6-6.6-2.5-10.1-2.5H34.8C33.7,11.2,7.3,14.3,4.8,42.6z"/>
		</g>
		<line class="st0" x1="3.8" y1="76.1" x2="94.4" y2="76.1"/>
		<g>
			<path class="st0" d="M3.8,76.1l91-0.3c0,0-0.1,14-8.8,14c-8.7,0-69.9,0-69.9,0S3.8,91.2,3.8,76.1z"/>
			<path d="M15.3,90.9c-1.6,0-5.2-0.3-8.2-3c-2.8-2.6-4.3-6.5-4.3-11.8v-1h1l92-0.3l0,1c0,0.6-0.2,15-9.7,15H16.1
				C16.1,90.9,15.8,90.9,15.3,90.9z M4.8,77.1c0.2,4.2,1.4,7.3,3.6,9.3c3.2,2.9,7.5,2.5,7.6,2.5l70,0c6.4,0,7.5-9,7.7-12.1L4.8,77.1
				z"/>
		</g>
		<g>
			<path class="st0" d="M3.8,66.1c0,0,8.2-5.7,13.8,0s13.5,0,13.5,0s7.5-6.5,13.9,0s13.3-0.2,13.3-0.2S64,60.3,71,66
				c7.1,5.8,13.5,0,13.5,0s5.6-4.5,9.8,0c0,0,4.6-7.5,0-9.7c-4.6-2.1-10-4.6-14.8-1.1c-2,1.4-3.5,1.5-5.4,0.9
				c-3.5-1.7-10.8-2.4-12.5-2.6l-19.5,0c-2.2,0-3.5,0.7-6,2.3c0,0-3.7,3.5-5.2,3.5c-2.5,0-8.3-5.4-8.3-5.4c-0.4-0.2-0.9-0.3-1.3-0.3
				H9.7C9.7,53.5,2.5,53.9,3.8,66.1z"/>
			<path d="M51.1,69.9c-2.1,0-4.5-0.8-6.9-3.1c-5.8-5.7-12.3-0.2-12.6,0.1c-3,2.2-9.9,5-14.8-0.1c-4.9-5.1-12.4,0.1-12.5,0.1l-1.4,1
				l-0.2-1.7C2.3,61.2,3,57.5,5.1,55c2-2.3,4.4-2.5,4.6-2.5h11.7c0.6,0,1.2,0.2,1.8,0.5l0.2,0.1c2.3,2.1,6.2,5.1,7.6,5.1
				c0,0,0,0,0,0c0.6,0,2.8-1.5,4.6-3.2c2.7-1.7,4.2-2.5,6.7-2.5h19.5c2.8,0.3,9.5,1,13,2.7c1.4,0.4,2.6,0.5,4.4-0.8
				c5.3-3.8,11.1-1.1,15.8,1c1.2,0.6,2,1.5,2.4,2.7c1,3.4-1.8,8.2-2,8.4l-0.7,1.1l-0.9-0.9c-3.6-3.8-8.3-0.1-8.5,0.1
				c0,0-7.1,6.2-14.7,0c-6.3-5.1-11.3-0.4-11.5-0.2C58.9,66.7,55.5,69.9,51.1,69.9z M38.5,62.2c2.3,0,4.8,0.8,7.1,3.2
				c5.7,5.7,11.7,0.1,11.9-0.2c0.1-0.1,6.5-6.2,14.1,0.1c6.3,5.2,11.9,0.2,12.2,0c2-1.6,6.5-3.6,10.2-0.8c0.8-1.6,1.7-4.1,1.2-5.7
				c-0.2-0.7-0.6-1.2-1.3-1.5c-4.4-2.1-9.5-4.4-13.8-1.2c-2.1,1.5-3.9,1.8-6.3,1c-3.4-1.6-10.3-2.4-12.3-2.6l-19.4,0
				c-1.9,0-2.9,0.5-5.5,2.1c-0.8,0.8-3.9,3.6-5.8,3.6c0,0,0,0,0,0c-2.6,0-7.6-4.4-8.9-5.6c-0.2-0.1-0.5-0.2-0.7-0.2H9.7
				c0,0-1.7,0.1-3.1,1.9c-1.4,1.7-2.1,4.5-1.9,8c3.5-1.9,9.4-3.4,13.6,1c4.9,5.1,12.1-0.1,12.2-0.1C30.4,65.3,34,62.2,38.5,62.2z"/>
		</g>
		<g>
			<path d="M10,44.6l-0.3,9L10,44.6z"/>
			<polygon points="10.7,53.6 8.7,53.5 9,44.5 11,44.6 			"/>
		</g>
		<g>
			<path d="M88.6,44.6v9V44.6z"/>
			<rect x="87.6" y="44.6" width="2" height="9"/>
		</g>
		<g>
			<path class="st0" d="M5.2,65.2c0,0-0.8,2-0.8,5.4c0,4.6,0.8,5.5,0.8,5.5h87.6c0,0,1.8-8.3,0-10.9c0,0-2.5-3.6-11.9,2.8
				s-8.4-10.3-22.7-2.1S44.6,57,31,66.1S17.5,57.8,5.2,65.2z"/>
			<path d="M93.7,77.1H4.8l-0.3-0.3c-0.3-0.4-1.1-1.7-1.1-6.1c0-3.6,0.9-5.7,0.9-5.8l0.1-0.3l0.3-0.2c6.5-3.9,10-1.4,13.1,0.8
				c3.3,2.4,6.1,4.4,12.6,0.1c7.4-4.9,11.2-2.5,14.5-0.4c3.2,2,6.2,4,12.8,0.2c8.4-4.8,12.1-1.5,15,1.1c2.4,2.1,4,3.5,7.6,1
				c9.9-6.8,13-3,13.3-2.6c2,2.9,0.3,10.7,0.2,11.6L93.7,77.1z M5.8,75.1h86.2c0.6-3.1,1-7.8,0-9.3l0,0c0,0-2.3-2.6-10.6,3.1
				c-4.9,3.4-7.7,0.9-10-1.2c-2.7-2.4-5.6-5-12.7-0.9c-7.6,4.4-11.4,1.9-14.8-0.2c-3.2-2-6-3.8-12.4,0.3c-7.6,5.1-11.5,2.3-14.9-0.1
				c-2.9-2.1-5.5-3.9-10.7-0.9c-0.2,0.6-0.7,2.3-0.7,4.7C5.4,73.2,5.7,74.5,5.8,75.1z"/>
		</g>
	</g>
	<circle cx="22.1" cy="23.6" r="2.1"/>
	<circle cx="29.5" cy="30.8" r="2.1"/>
	<circle cx="35.6" cy="23.6" r="2.1"/>
	<circle cx="42.4" cy="30.8" r="2.1"/>
	<circle cx="49.1" cy="23.6" r="2.1"/>
	<circle cx="55.3" cy="30.8" r="2.1"/>
	<circle cx="62.8" cy="23.6" r="2.1"/>
	<circle cx="69.1" cy="30.8" r="2.1"/>
	<circle cx="75.8" cy="23.6" r="2.1"/>
</g>
</svg>
