<svg xmlns="http://www.w3.org/2000/svg" viewBox="0 0 28.174 24.599">
  <g id="resto" transform="translate(0 -31.05)">
    <g id="Group_1" data-name="Group 1" transform="translate(0 31.05)">
      <path id="Path_1" data-name="Path 1" d="M253.928,263.75H250.1a1.9,1.9,0,0,0-1.9,1.9v2.936a1.9,1.9,0,0,0,1.9,1.9h3.828a1.9,1.9,0,0,0,1.9-1.9V265.65A1.9,1.9,0,0,0,253.928,263.75Zm.518,4.836a.52.52,0,0,1-.518.518H250.1a.52.52,0,0,1-.518-.518V265.65a.52.52,0,0,1,.518-.518h3.828a.52.52,0,0,1,.518.518Z" transform="translate(-233.912 -250.354)"/>
      <path id="Path_2" data-name="Path 2" d="M28.174,39.11a.641.641,0,0,0-.092-.34L23.891,31.4a.7.7,0,0,0-.6-.351H4.876a.683.683,0,0,0-.6.351L.092,38.77A.7.7,0,0,0,0,39.11a4.041,4.041,0,0,0,2.418,3.7V54.958a.693.693,0,0,0,.691.691H25.059a.693.693,0,0,0,.691-.691V42.892a.3.3,0,0,0-.006-.075A4.052,4.052,0,0,0,28.174,39.11ZM5.279,32.437h17.61L26.165,38.2H2.009Zm14.772,7.138a2.655,2.655,0,0,1-5.227,0Zm-6.7,0a2.659,2.659,0,0,1-5.233,0Zm-11.928,0H6.661a2.659,2.659,0,0,1-5.233,0ZM11.606,54.267H7.634V46.812a.984.984,0,0,1,.984-.984h2.009a.984.984,0,0,1,.984.984v7.455Zm12.763,0H12.987V46.812a2.37,2.37,0,0,0-2.366-2.366H8.612a2.37,2.37,0,0,0-2.366,2.366v7.461H3.8V43.145c.081.006.161.006.242.006a4.036,4.036,0,0,0,3.35-1.785,4.037,4.037,0,0,0,6.7,0,4.027,4.027,0,0,0,6.689,0,4.036,4.036,0,0,0,3.35,1.785c.081,0,.155-.006.236-.006V54.267Zm-.236-12.5a2.654,2.654,0,0,1-2.614-2.188h5.233A2.67,2.67,0,0,1,24.133,41.769Z" transform="translate(0 -31.05)"/>
    </g>
  </g>
</svg>
