<?xml version="1.0" encoding="utf-8"?>
<!-- Generator: Adobe Illustrator 22.1.0, SVG Export Plug-In . SVG Version: 6.00 Build 0)  -->
<svg version="1.1" id="Layer_1" xmlns="http://www.w3.org/2000/svg" xmlns:xlink="http://www.w3.org/1999/xlink" x="0px" y="0px"
	 viewBox="0 0 100 100" style="enable-background:new 0 0 100 100;" xml:space="preserve">
<style type="text/css">
	.st0{fill:none;stroke:#000000;stroke-width:0.25;stroke-miterlimit:10;}
</style>
<g>
	<path class="st0" d="M52.6,54"/>
	<g>
		<path d="M82.5,96l-15.1-0.1l0-1.7l15.1,0.1c0.7,0,1.2-0.5,1.2-1.2V42.6c0,0-0.1-2.2-0.8-3.9c-0.3-0.6-1.3-1.5-2.4-2.3
			c-1.4-1.2-3.1-2.5-3.9-4.1c-0.2-0.4-0.3-0.8-0.3-1.1V11.7h2.2V7c0-0.1,0-0.7-0.5-1.3c-0.6-0.7-2.4-1.8-7.3-1.6
			c-4.7-0.2-6.6,0.8-7.4,1.6c-0.6,0.6-0.6,1.2-0.6,1.2l0,4.8h2.2v19.4c0,0.3,0,0.7-0.3,1.1c-0.7,1.5-2.4,2.8-3.8,4
			c-1,0.8-2.1,1.7-2.4,2.4c-0.8,1.7-0.8,3.6-0.8,3.6v5.9h-1.7v-5.9c0-0.1,0-2.3,0.9-4.3c0.4-1,1.6-1.9,2.9-3
			c1.3-1.1,2.8-2.3,3.4-3.6c0-0.1,0-0.2,0-0.3V13.4H61V7c0,0-0.1-1.2,1-2.4c1.5-1.6,4.4-2.3,8.6-2.2c4.3-0.2,7.2,0.6,8.6,2.2
			c1.1,1.2,0.9,2.3,0.9,2.5l0,6.3H78v17.8c0,0,0,0.2,0.1,0.4c0.7,1.3,2.2,2.5,3.5,3.6c1.3,1,2.4,1.9,2.8,2.9c0.9,2,0.9,4.4,0.9,4.5
			v50.6C85.3,94.8,84.1,96,82.5,96z"/>
		<path d="M78,24.1H63.2V11.7H78V24.1z M64.9,22.4h11.4v-9.1H64.9V22.4z"/>
		<path d="M82.5,96l-15.1-0.1l0-1.7l15.1,0.1c0.7,0,1.2-0.5,1.2-1.2v-42H65.4c-1.1,5.4-2.5,16-0.3,30.1l-1.6,0.3
			c-2.3-15-0.7-26.1,0.5-31.4l0.1-0.6h21.3v43.6C85.3,94.8,84.1,96,82.5,96z"/>
		<path d="M82.5,96l-15.1-0.1l0-1.7l15.1,0.1c0.7,0,1.2-0.5,1.2-1.2V82.3H64.3v-1.7h21.1v12.5C85.3,94.8,84.1,96,82.5,96z"/>
	</g>
	<path d="M65.5,50.6l-1.6-0.4c0.1-0.5,0.2-0.8,0.3-1.2h-7.4v-1.7H66l-0.1,1.5C65.8,49.3,65.7,49.8,65.5,50.6z"/>
	<path d="M67.4,96H13.6l0.3-1c0.1-0.3,7.8-28.8,0.4-46.4l-0.5-1.2h43V49H16.2c6.2,16.4,0.9,40-0.5,45.3h50.5
		c-1.2-4.1-2.2-8.5-2.8-12.7l1.6-0.3c0.7,4.5,1.7,9.1,3.1,13.5l0,0.2v0.8L67.4,96z"/>
	<path d="M28,59.9c-1.9,0-3.4-1.5-3.4-3.4c0-1.9,1.5-3.4,3.4-3.4c1.9,0,3.4,1.5,3.4,3.4C31.4,58.4,29.9,59.9,28,59.9z M28,54.8
		c-0.9,0-1.7,0.8-1.7,1.7c0,0.9,0.8,1.7,1.7,1.7s1.7-0.8,1.7-1.7C29.7,55.6,28.9,54.8,28,54.8z"/>
	<path d="M53.8,59.9c-1.9,0-3.4-1.5-3.4-3.4c0-1.9,1.5-3.4,3.4-3.4c1.9,0,3.4,1.5,3.4,3.4C57.1,58.4,55.6,59.9,53.8,59.9z
		 M53.8,54.8c-0.9,0-1.7,0.8-1.7,1.7c0,0.9,0.8,1.7,1.7,1.7c0.9,0,1.7-0.8,1.7-1.7C55.5,55.6,54.7,54.8,53.8,54.8z"/>
	<path d="M54.6,54h-1.7v-9.8c0-7.2-5.4-13-12.1-13s-12.1,5.8-12.1,13V54h-1.7v-9.8c0-8.1,6.1-14.7,13.7-14.7
		c7.6,0,13.7,6.6,13.7,14.7V54z"/>
	<path class="st0" d="M21.5,36.9"/>
	<path d="M44.2,91.6c-0.6,0-1.2-0.3-1.8-0.6c-0.4-0.2-0.9-0.4-1.1-0.4c0,0,0,0,0,0c-0.4,0-0.8,0.2-1.3,0.4c-0.7,0.3-1.6,0.7-2.5,0.4
		c-5.3-1.6-9-6.8-9-12.5c0-5.7,3.4-10.7,8.2-12c1.1-0.3,2.1,0.1,2.9,0.5c0.5,0.2,1.1,0.5,1.6,0.5c0.5,0,1-0.2,1.6-0.5
		c0.9-0.4,1.8-0.8,3-0.6c5,1.1,8.6,6.2,8.6,12.2c0,5.9-3.9,10.9-9.7,12.6C44.5,91.6,44.3,91.6,44.2,91.6z M41.3,89
		c0.6,0,1.2,0.3,1.8,0.6c0.3,0.2,1,0.5,1.1,0.4c5.1-1.5,8.5-5.9,8.5-11c0-5.1-3.1-9.6-7.3-10.6c-0.6-0.1-1.2,0.1-2,0.5
		c-0.7,0.3-1.4,0.6-2.2,0.6c-0.9,0-1.6-0.3-2.2-0.6c-0.7-0.3-1.2-0.5-1.8-0.4c-4.1,1.1-7,5.5-7,10.5c0,5.1,3.2,9.6,7.8,11
		c0.3,0.1,0.8-0.1,1.3-0.3c0.5-0.2,1.2-0.5,1.9-0.6C41.2,89,41.2,89,41.3,89z"/>
	<path d="M40.8,69.4l0.2-1.5c0-0.2,0.9-5.1,6.6-7.5l1.3-0.5l-0.2,1.4c0,0.2-0.6,5-6.6,7.6L40.8,69.4z M46.5,62.8
		c-1.7,1.1-2.6,2.4-3.2,3.5C45.1,65.1,46,63.8,46.5,62.8z"/>
	<path d="M41.4,68.2c0,0,0.2-3.4-4.3-4.8C37.2,63.4,36.8,67.1,41.4,68.2z"/>
	<path class="st0" d="M67.9,44.3"/>
</g>
</svg>
