<?xml version="1.0" encoding="utf-8"?>
<!-- Generator: Adobe Illustrator 22.1.0, SVG Export Plug-In . SVG Version: 6.00 Build 0)  -->
<svg version="1.1" id="Layer_1" xmlns="http://www.w3.org/2000/svg" xmlns:xlink="http://www.w3.org/1999/xlink" x="0px" y="0px"
	 viewBox="0 0 100 100" style="enable-background:new 0 0 100 100;" xml:space="preserve">
<style type="text/css">
	.st0{fill:none;stroke:#000000;stroke-width:0.25;stroke-miterlimit:10;}
	.st1{fill:#161616;}
	.st2{fill:#B91F08;}
	.st3{fill:#D69F58;}
	.st4{fill:#EDED51;}
	.st5{fill:#FFFFFF;}
	.st6{fill:#F97B26;}
	.st7{fill:#006837;}
</style>
<g>
	<path class="st0" d="M53.2,54.8"/>
	<g>
		<g>
			<path class="st1" d="M71.5,3.3c9.4-0.3,8.9,3.8,8.9,3.8v5.7h-2.2l0,18.8c0,0.3,0,0.5,0.2,0.7c1.4,2.8,5.6,4.8,6.4,6.6
				c0.8,1.9,0.9,4.3,0.9,4.3V50v44.8c0,1.1-0.9,2-2,2l-24.1-0.2c-1.1,0-2-0.9-2-2V49.7V43c0,0,0-2.2,0.9-4.1c0.8-1.8,5-3.9,6.4-6.6
				c0.1-0.2,0.1-0.4,0.1-0.6l0-18.9h-2.2V7.1C62.6,7.1,62.1,3,71.5,3.3"/>
			<path d="M83.6,97.6C83.6,97.6,83.6,97.6,83.6,97.6l-24.1-0.2c-1.6,0-2.9-1.3-2.9-2.9V43c0-0.1,0-2.4,0.9-4.4c0.5-1,1.6-1.9,2.9-3
				c1.3-1.1,2.9-2.3,3.6-3.7c0-0.1,0-0.2,0-0.3V13.6h-2.2V7.1c0,0-0.1-1.2,1-2.4c1.5-1.6,4.4-2.4,8.8-2.2c4.4-0.2,7.3,0.6,8.8,2.2
				c1.1,1.2,1,2.4,1,2.5l0,6.4H79v18c0,0.1,0,0.3,0.1,0.3c0.7,1.3,2.2,2.6,3.5,3.7c1.3,1.1,2.4,2,2.9,3c0.9,2,0.9,4.5,0.9,4.6v51.5
				c0,0.8-0.3,1.5-0.8,2C85.1,97.3,84.4,97.6,83.6,97.6z M63.5,11.9h2.2v19.7c0,0.4-0.1,0.7-0.2,1c-0.8,1.7-2.5,3-4,4.2
				c-1,0.8-2.1,1.7-2.4,2.4C58.3,41,58.3,43,58.3,43v51.5c0,0.7,0.5,1.2,1.2,1.2l24.1,0.2c0,0,0,0,0,0c0.3,0,0.6-0.1,0.8-0.3
				c0.2-0.2,0.3-0.5,0.3-0.8V43.2c0,0,0-2.3-0.8-4c-0.3-0.6-1.4-1.5-2.4-2.4c-1.5-1.2-3.1-2.5-4-4.2c-0.2-0.3-0.3-0.7-0.3-1.1V11.9
				h2.2V7.1c0-0.1,0-0.7-0.6-1.3c-0.8-0.8-2.7-1.8-7.5-1.6h-0.1C66.8,4,64.8,4.9,64,5.8C63.4,6.4,63.5,7,63.5,7L63.5,11.9z"/>
		</g>
		<g>
			<polygon class="st2" points="65.4,23.6 78.2,23.6 78.2,12.7 64.9,12.7 64.9,23.6 			"/>
			<path d="M79,24.5H64V11.9h15V24.5z M65.7,22.8h11.6v-9.2H65.7V22.8z"/>
		</g>
		<g>
			<path class="st3" d="M57.4,51.2h28.2v43.5c0,1.1-0.9,2-2,2l-24.1-0.2c-1.1,0-2-0.9-2-2V51.2z"/>
			<path d="M83.6,97.6C83.6,97.6,83.6,97.6,83.6,97.6l-24.2-0.2c-1.6,0-2.8-1.3-2.8-2.9V50.3h29.8v44.4c0,0.8-0.3,1.5-0.8,2
				C85.1,97.3,84.3,97.6,83.6,97.6z M58.3,52v42.5c0,0.6,0.5,1.2,1.2,1.2l24.1,0.2c0,0,0,0,0,0c0.3,0,0.6-0.1,0.8-0.3
				c0.2-0.2,0.3-0.5,0.3-0.8V52H58.3z"/>
		</g>
		<g>
			<path class="st1" d="M58,82.8h27.6v11.9c0,1.1-0.9,2-2.1,2l-24.1-0.2c-1.1,0-2-0.9-2-2V82.8H58z"/>
			<path d="M83.6,97.6C83.6,97.6,83.5,97.6,83.6,97.6l-24.1-0.2c-1.6,0-2.9-1.3-2.9-2.9V82h29.8v12.7c0,0.8-0.3,1.5-0.9,2
				C85.1,97.3,84.3,97.6,83.6,97.6z M58.3,83.6v10.9c0,0.7,0.5,1.2,1.2,1.2l24.1,0.2c0.4-0.1,0.6-0.1,0.9-0.3
				c0.2-0.2,0.4-0.5,0.4-0.9v-11H58.3z"/>
		</g>
	</g>
	<g>
		<g>
			<path class="st4" d="M15,49l51,0c0.1,0,0,0,0,0.1c-0.2,1.7-5.9,20.3,2.3,47.7H14.7C14.7,96.7,22.8,67.4,15,49z"/>
			<path d="M69.4,97.6H13.6l0.3-1.1c0.1-0.3,8-29.3,0.4-47.2l-0.5-1.2l52.9,0l0.4,1.1l-0.3,0.2c0,0.2-0.1,0.4-0.1,0.6
				c-4,17.9-0.9,35.1,2.4,46.4L69.4,97.6z M15.8,95.9h51.4C63.8,84.5,61,67.5,65,49.8l-48.7,0C22.6,66.5,17.1,90.5,15.8,95.9z"/>
		</g>
		<g>
			<circle class="st5" cx="28.2" cy="57.4" r="2.6"/>
			<path d="M28.2,60.8c-1.9,0-3.4-1.5-3.4-3.4c0-1.9,1.5-3.4,3.4-3.4c1.9,0,3.4,1.5,3.4,3.4C31.6,59.3,30.1,60.8,28.2,60.8z
				 M28.2,55.7c-1,0-1.7,0.8-1.7,1.7c0,1,0.8,1.7,1.7,1.7c1,0,1.7-0.8,1.7-1.7C29.9,56.5,29.2,55.7,28.2,55.7z"/>
		</g>
		<g>
			<circle class="st5" cx="54.4" cy="57.4" r="2.6"/>
			<path d="M54.4,60.8c-1.9,0-3.4-1.5-3.4-3.4c0-1.9,1.5-3.4,3.4-3.4s3.4,1.5,3.4,3.4C57.8,59.3,56.3,60.8,54.4,60.8z M54.4,55.7
				c-1,0-1.7,0.8-1.7,1.7c0,1,0.8,1.7,1.7,1.7s1.7-0.8,1.7-1.7C56.1,56.5,55.4,55.7,54.4,55.7z"/>
		</g>
		<path d="M55.2,54.8h-1.7v-9.9c0-7.3-5.5-13.2-12.2-13.2s-12.3,5.9-12.3,13.2v9.9h-1.7v-9.9c0-8.2,6.2-14.9,13.9-14.9
			c7.7,0,13.9,6.7,13.9,14.9V54.8z"/>
		<path class="st0" d="M21.6,37.5"/>
		<g>
			<path class="st6" d="M54.1,80.2c0,5.8-4,10.5-9.2,12c-0.9,0.3-2.3-1-3.3-0.9c-1.3,0.1-2.4,1.2-3.5,0.9c-5-1.5-8.5-6.4-8.5-11.9
				c0-5.2,3.1-10.1,7.8-11.4c1.5-0.4,2.7,1,4.3,1c1.5,0,2.9-1.4,4.4-1.1C51,69.8,54.1,74.9,54.1,80.2z"/>
			<path d="M44.6,93.1c-0.6,0-1.2-0.3-1.8-0.6c-0.4-0.2-0.9-0.5-1.1-0.4c-0.4,0-0.9,0.2-1.3,0.4c-0.7,0.3-1.6,0.7-2.5,0.4
				c-5.4-1.6-9.1-6.9-9.1-12.8c0-5.8,3.4-10.9,8.4-12.2c1.1-0.3,2.1,0.1,2.9,0.5c0.5,0.2,1.1,0.5,1.6,0.5c0.5,0,1-0.2,1.6-0.5
				c0.9-0.4,1.9-0.8,3-0.6C51.3,69,55,74.2,55,80.2c0,6-4,11.1-9.8,12.8C45,93.1,44.8,93.1,44.6,93.1z M41.7,90.5
				c0.6,0,1.2,0.3,1.8,0.6c0.3,0.2,1,0.5,1.1,0.4c5.2-1.5,8.6-6,8.6-11.2c0-5.2-3.2-9.8-7.4-10.7c-0.6-0.2-1.3,0.1-2,0.5
				c-0.7,0.3-1.4,0.6-2.3,0.6c-0.9,0-1.6-0.3-2.3-0.6c-0.8-0.3-1.3-0.6-1.8-0.4c-4.1,1.1-7.2,5.6-7.2,10.6c0,5.1,3.3,9.7,7.9,11.1
				c0.3,0.1,0.8-0.1,1.3-0.3c0.6-0.2,1.2-0.5,1.9-0.6C41.6,90.5,41.7,90.5,41.7,90.5z"/>
		</g>
		<g>
			<path class="st7" d="M42.3,69.1c0,0,0.7-4.7,6.2-7C48.5,62.1,48,66.7,42.3,69.1z"/>
			<path d="M41.6,69.9l0.1-0.9c0-0.2,0.9-5,6.5-7.4l0.8-0.3L49,62.2c0,0.2-0.6,4.9-6.5,7.4L41.6,69.9z M47.7,63
				c-2.9,1.6-4.2,3.8-4.7,5.1C46.1,66.5,47.3,64.3,47.7,63z"/>
		</g>
		<path d="M41.9,69.3c0,0,0.2-3.5-4.3-4.9C37.5,64.4,37.2,68.2,41.9,69.3z"/>
	</g>
	<path class="st0" d="M68.8,45"/>
	<g>
		<path class="st2" d="M62.6,12.7h17.8V7.1c0,0-1.1-1-2.8-1.9C74.7,3.5,69.8,2,64.9,5.3c-0.7,0.5-1.5,1.1-2.2,1.8V12.7z"/>
		<path d="M81.3,13.6H61.8V6.7L62,6.5c0.8-0.7,1.5-1.4,2.4-1.9C69.9,1,75.3,2.9,78,4.4c1.8,1,2.9,2,3,2.1l0.3,0.2V13.6z M63.5,11.9
			h16.1V7.5c-0.4-0.3-1.2-1-2.4-1.6C74.3,4.3,69.9,3,65.3,6c-0.6,0.4-1.3,0.9-1.9,1.5V11.9z"/>
	</g>
</g>
</svg>
