<svg xmlns="http://www.w3.org/2000/svg" viewBox="0 0 22 20">
  <defs>
    <style>
      .cls-1 {
        fill: #444;
      }
    </style>
  </defs>
  <path id="translate" class="cls-1" d="M12.87,15.07l-2.54-2.51.03-.03A17.519,17.519,0,0,0,14.07,6H17V4H10V2H8V4H1V6H12.17A15.766,15.766,0,0,1,9,11.35,15.645,15.645,0,0,1,6.69,8h-2a17.562,17.562,0,0,0,2.98,4.56L2.58,17.58,4,19l5-5,3.11,3.11.76-2.04M18.5,10h-2L12,22h2l1.12-3h4.75L21,22h2L18.5,10m-2.62,7,1.62-4.33L19.12,17Z" transform="translate(-1 -2)"/>
</svg>
