<svg xmlns="http://www.w3.org/2000/svg" width="10.213" height="10.645" viewBox="0 0 10.213 10.645">
  <g id="discount" transform="translate(-10.359 0.002)">
    <g id="Group_226" data-name="Group 226" transform="translate(10.359 -0.002)">
      <g id="Group_225" data-name="Group 225" transform="translate(0 0)">
        <path id="Path_276" data-name="Path 276" d="M20.08,5.458a.312.312,0,0,1,0-.276l.4-.812a.924.924,0,0,0-.4-1.227l-.8-.424a.312.312,0,0,1-.162-.223l-.156-.89A.924.924,0,0,0,17.918.848l-.9.127A.312.312,0,0,1,16.76.889l-.65-.628a.924.924,0,0,0-1.29,0l-.65.629a.312.312,0,0,1-.262.085l-.9-.127a.924.924,0,0,0-1.044.758l-.156.89a.312.312,0,0,1-.162.223l-.8.424a.924.924,0,0,0-.4,1.227l.4.812a.312.312,0,0,1,0,.276l-.4.812a.924.924,0,0,0,.4,1.227l.8.424a.312.312,0,0,1,.162.223l.156.89a.923.923,0,0,0,.911.768.949.949,0,0,0,.133-.009l.9-.127a.312.312,0,0,1,.262.085l.65.628a.924.924,0,0,0,1.29,0l.65-.628a.312.312,0,0,1,.262-.085l.9.127a.924.924,0,0,0,1.044-.758l.156-.89a.312.312,0,0,1,.162-.223l.8-.424a.924.924,0,0,0,.4-1.227Zm-5.842-2.9a1.125,1.125,0,1,1-1.125,1.125A1.127,1.127,0,0,1,14.238,2.558Zm-.581,5.005a.307.307,0,0,1-.434-.434l4.052-4.052a.307.307,0,1,1,.434.434Zm3.037.52a1.125,1.125,0,1,1,1.125-1.125A1.127,1.127,0,0,1,16.693,8.083Z" transform="translate(-10.359 0.002)" fill="#16962f"/>
      </g>
    </g>
    <g id="Group_228" data-name="Group 228" transform="translate(16.182 6.446)">
      <g id="Group_227" data-name="Group 227">
        <path id="Path_277" data-name="Path 277" d="M290.964,310.141a.512.512,0,1,0,.512.512A.512.512,0,0,0,290.964,310.141Z" transform="translate(-290.452 -310.141)" fill="#16962f"/>
      </g>
    </g>
    <g id="Group_230" data-name="Group 230" transform="translate(13.726 3.172)">
      <g id="Group_229" data-name="Group 229">
        <path id="Path_278" data-name="Path 278" d="M172.845,152.646a.512.512,0,1,0,.512.512A.512.512,0,0,0,172.845,152.646Z" transform="translate(-172.333 -152.646)" fill="#16962f"/>
      </g>
    </g>
  </g>
</svg>
