<svg xmlns="http://www.w3.org/2000/svg" xmlns:xlink="http://www.w3.org/1999/xlink" width="150" height="150" viewBox="0 0 150 150">
  <defs>
    <clipPath id="clip-History">
      <rect width="150" height="150"/>
    </clipPath>
  </defs>
  <g id="History" clip-path="url(#clip-History)">
    <rect width="150" height="150" fill="#fff"/>
    <g id="clipboard" transform="translate(-14.737 18)">
      <g id="Group_95" data-name="Group 95" transform="translate(46.737 0)">
        <g id="Group_94" data-name="Group 94" transform="translate(0 0)">
          <path id="Path_32" data-name="Path 32" d="M118.695,11.888H107.171V8.717a2.366,2.366,0,0,0-2.366-2.366H98.511a8.731,8.731,0,0,0-16.8,0H75.416A2.366,2.366,0,0,0,73.05,8.717v3.289H61.526c-7.1,0-14.789,3.881-14.789,14.789v72.81c0,10.908,7.643,14.789,14.789,14.789h57.169c10.908,0,14.789-7.643,14.789-14.789V26.677C133.484,15.769,125.841,11.888,118.695,11.888Zm-40.913-.8h5.963a2.366,2.366,0,0,0,2.366-2.366,4,4,0,1,1,7.974,0,2.366,2.366,0,0,0,2.366,2.366h5.963v8.093H77.782Zm50.969,88.522c0,3.762-1.3,10.057-10.057,10.057H61.526c-3.762,0-10.057-1.3-10.057-10.057V26.677c0-8.755,6.294-10.057,10.057-10.057H73.074v4.733a2.366,2.366,0,0,0,2.366,2.366h29.365a2.366,2.366,0,0,0,2.366-2.366V16.621l11.524.118c3.762,0,10.057,1.3,10.057,10.057Z" transform="translate(-46.737 0)" fill="#2b324a"/>
        </g>
      </g>
      <g id="Group_97" data-name="Group 97" transform="translate(60.39 34.746)">
        <g id="Group_96" data-name="Group 96" transform="translate(0)">
          <path id="Path_33" data-name="Path 33" d="M149.971,117.473H95.263a2.366,2.366,0,0,0,0,4.733h54.708a2.366,2.366,0,0,0,0-4.733Z" transform="translate(-92.897 -117.473)" fill="#2b324a"/>
        </g>
      </g>
      <g id="Group_99" data-name="Group 99" transform="translate(60.39 46.388)">
        <g id="Group_98" data-name="Group 98" transform="translate(0)">
          <path id="Path_34" data-name="Path 34" d="M149.971,156.833H95.263a2.366,2.366,0,1,0,0,4.732h54.708a2.366,2.366,0,1,0,0-4.732Z" transform="translate(-92.897 -156.833)" fill="#2b324a"/>
        </g>
      </g>
      <g id="Group_101" data-name="Group 101" transform="translate(60.394 58.125)">
        <g id="Group_100" data-name="Group 100">
          <path id="Path_35" data-name="Path 35" d="M149.979,196.513H95.271a2.366,2.366,0,0,0,0,4.732h54.708a2.366,2.366,0,0,0,0-4.732Z" transform="translate(-92.908 -196.513)" fill="#2b324a"/>
        </g>
      </g>
      <g id="Group_103" data-name="Group 103" transform="translate(60.39 69.838)">
        <g id="Group_102" data-name="Group 102" transform="translate(0)">
          <path id="Path_36" data-name="Path 36" d="M149.971,236.113H95.263a2.366,2.366,0,1,0,0,4.732h54.708a2.366,2.366,0,1,0,0-4.732Z" transform="translate(-92.897 -236.113)" fill="#2b324a"/>
        </g>
      </g>
      <g id="Group_105" data-name="Group 105" transform="translate(60.39 81.574)">
        <g id="Group_104" data-name="Group 104" transform="translate(0)">
          <path id="Path_37" data-name="Path 37" d="M149.971,275.793H95.263a2.366,2.366,0,1,0,0,4.733h54.708a2.366,2.366,0,1,0,0-4.733Z" transform="translate(-92.897 -275.793)" fill="#2b324a"/>
        </g>
      </g>
    </g>
  </g>
</svg>
