<svg xmlns="http://www.w3.org/2000/svg" xmlns:xlink="http://www.w3.org/1999/xlink" width="150" height="150" viewBox="0 0 150 150">
  <defs>
    <clipPath id="clip-Restaurant">
      <rect width="150" height="150"/>
    </clipPath>
  </defs>
  <g id="Restaurant" clip-path="url(#clip-Restaurant)">
    <rect width="150" height="150" fill="#fff"/>
    <g id="tab_restaurant" transform="translate(10.202 35.144)">
      <g id="Group_82" data-name="Group 82" transform="translate(0)">
        <path id="Path_25" data-name="Path 25" d="M121.947,122.659H122a22.818,22.818,0,0,0,2.383-10.141c0-19.548-26.8-35.546-59.758-35.546s-59.784,16-59.784,35.647a22.818,22.818,0,0,0,2.383,10.141A9.837,9.837,0,0,0,9.758,142.08h2v2.941a11.207,11.207,0,0,0,12.3,12.271h81.131a11.207,11.207,0,0,0,12.22-12.271v-3.042h2a9.837,9.837,0,0,0,2.535-19.319ZM64.623,82.043c30.171,0,54.688,13.716,54.688,30.576a18.431,18.431,0,0,1-2.84,9.584H12.775a18.431,18.431,0,0,1-2.84-9.66C9.91,95.759,34.452,82.043,64.623,82.043Zm-9.584,45.231-9.989,10.4-5.4,5.578L25.959,127.274Zm-40.566,9.558H9.834a4.792,4.792,0,0,1,0-9.558h9.457l8.215,9.558Zm92.638,15.383a6.29,6.29,0,0,1-1.923.007H24.057c-7.124,0-7.124-5.35-7.124-7.124v-3.118H31.892l5.73,6.668a2.466,2.466,0,0,0,3.676.127l6.592-6.795h64.449v3.042A6.288,6.288,0,0,1,107.112,152.215ZM123.843,132.4a4.792,4.792,0,0,1-4.431,4.431H52.834l9.254-9.558h57.324A4.792,4.792,0,0,1,123.843,132.4Z" transform="translate(0 -76.972)" fill="#242a4b"/>
      </g>
    </g>
  </g>
</svg>
