<svg xmlns="http://www.w3.org/2000/svg" xmlns:xlink="http://www.w3.org/1999/xlink" width="150" height="150" viewBox="0 0 150 150">
  <defs>
    <clipPath id="clip-Supermarket">
      <rect width="150" height="150"/>
    </clipPath>
  </defs>
  <g id="Supermarket" clip-path="url(#clip-Supermarket)">
    <rect width="150" height="150" fill="#fff"/>
    <g id="shopping-bag_1_" data-name="shopping-bag (1)" transform="translate(-21.064 16.142)">
      <path id="Path_279" data-name="Path 279" d="M142.771,102.2l-6.786-76.476a2.907,2.907,0,0,0-2.929-2.661h-14.3a23.092,23.092,0,0,0-46.183,0h-14.3a2.942,2.942,0,0,0-2.929,2.661L48.55,102.2v.269c0,8.519,7.836,15.451,17.453,15.451h59.316c9.617,0,17.453-6.932,17.453-15.451ZM95.661,5.858a17.257,17.257,0,0,1,17.233,17.209H78.427A17.257,17.257,0,0,1,95.661,5.858Zm29.658,106.182H66c-6.347,0-11.521-4.223-11.595-9.471L60.95,28.926H72.569V39.2a2.929,2.929,0,1,0,5.858,0V28.926h34.467V39.2a2.929,2.929,0,1,0,5.858,0V28.926h11.619l6.542,73.669C136.84,107.818,131.665,112.041,125.319,112.041Z" fill="#242a4b"/>
    </g>
  </g>
</svg>
