<svg xmlns="http://www.w3.org/2000/svg" width="96.602" height="108.677" viewBox="0 0 96.602 108.677">
  <g id="Group_8693" data-name="Group 8693" transform="translate(4892 2584)">
    <g id="noun_Hexagon_220642" transform="translate(-4782.999 -2592.375) rotate(90)">
      <path id="Path_1481" data-name="Path 1481" d="M85.16,109H40.119a9.222,9.222,0,0,1-8.149-4.741L9.6,65.442a9.52,9.52,0,0,1,0-9.334L32.118,17.141A9.222,9.222,0,0,1,40.267,12.4H85.16a9.222,9.222,0,0,1,8.149,4.741l22.521,38.967a9.52,9.52,0,0,1,0,9.334L93.309,104.409A9.768,9.768,0,0,1,85.16,109Z" transform="translate(0 0)" fill="#eff5fc"/>
    </g>
    <g id="baby-products" transform="translate(-4894.974 -2566)">
      <path id="Path_1474" data-name="Path 1474" d="M217.917,48a2.042,2.042,0,1,0,2.042,2.042A2.042,2.042,0,0,0,217.917,48Zm0,2.722a.681.681,0,1,1,.681-.681A.681.681,0,0,1,217.917,50.722Z" transform="translate(-168.255 -29.278)" fill="#6089ba"/>
      <path id="Path_1475" data-name="Path 1475" d="M410.722,312h-2.042a.681.681,0,1,0,0,1.361h2.042a.681.681,0,1,0,0-1.361Z" transform="translate(-344.034 -270.817)" fill="#6089ba"/>
      <path id="Path_1476" data-name="Path 1476" d="M410.722,344h-2.042a.681.681,0,1,0,0,1.361h2.042a.681.681,0,1,0,0-1.361Z" transform="translate(-344.034 -300.095)" fill="#6089ba"/>
      <path id="Path_1477" data-name="Path 1477" d="M410.722,376h-2.042a.681.681,0,1,0,0,1.361h2.042a.681.681,0,1,0,0-1.361Z" transform="translate(-344.034 -329.372)" fill="#6089ba"/>
      <path id="Path_1478" data-name="Path 1478" d="M410.722,408h-2.042a.681.681,0,1,0,0,1.361h2.042a.681.681,0,1,0,0-1.361Z" transform="translate(-344.034 -358.65)" fill="#6089ba"/>
      <path id="Path_1479" data-name="Path 1479" d="M410.722,440h-2.042a.681.681,0,1,0,0,1.361h2.042a.681.681,0,1,0,0-1.361Z" transform="translate(-344.034 -387.927)" fill="#6089ba"/>
      <path id="Path_1480" data-name="Path 1480" d="M38.1,54.8a6.15,6.15,0,0,0,2.042-.35v.35a2.041,2.041,0,0,0,3.583,1.337,11.51,11.51,0,0,0,3.989.705h3.891a11.447,11.447,0,0,0,4.571-.938,3.39,3.39,0,0,0,2.342.938h8.167a3.407,3.407,0,0,0,3.4-3.4V42.544a6.124,6.124,0,0,0-2.756-5.112,2.721,2.721,0,0,0-.041-4.773,3.013,3.013,0,0,0,.074-.665,3.591,3.591,0,0,0-2.042-3.076V26.209a2.721,2.721,0,0,0-4-2.4A11.572,11.572,0,0,0,50.387,16h-1.45A11.571,11.571,0,0,0,37.394,26.775L36.287,42.819A6.126,6.126,0,0,0,38.1,54.8Zm4.764,0a.681.681,0,0,1-1.361,0V42.544a.681.681,0,1,1,1.361,0ZM44.228,45.3a1.655,1.655,0,0,1,.34-.036A2.387,2.387,0,0,1,46.6,46.9a.681.681,0,0,0,.624.41h3.133a1.361,1.361,0,1,1,0,2.722H47.22a.681.681,0,0,0-.624.41,2.387,2.387,0,0,1-2.028,1.632,1.655,1.655,0,0,1-.34-.036Zm24.5-2.758v10.89a2.044,2.044,0,0,1-2.042,2.042H58.521a2.044,2.044,0,0,1-2.042-2.042V42.544a4.77,4.77,0,0,1,4.764-4.764h2.722a4.77,4.77,0,0,1,4.764,4.764Zm-2.722-6.126H59.2a1.361,1.361,0,1,1,0-2.722h6.806a1.361,1.361,0,0,1,0,2.722ZM62.6,24.848a1.363,1.363,0,0,1,1.361,1.361v3.133a.681.681,0,0,0,.41.624,2.387,2.387,0,0,1,1.632,2.028,1.656,1.656,0,0,1-.036.34H59.238a1.654,1.654,0,0,1-.036-.34,2.387,2.387,0,0,1,1.632-2.028.681.681,0,0,0,.41-.624V26.209A1.363,1.363,0,0,1,62.6,24.848Zm-23.853,2.02a10.216,10.216,0,0,1,7.174-9.055A4.756,4.756,0,0,0,47,24.712a6.805,6.805,0,1,0,2.665-.544,3.4,3.4,0,0,1,0-6.806h.725a10.106,10.106,0,0,1,6.34,2.207,10.256,10.256,0,0,1,3.506,5.305,2.705,2.705,0,0,0-.352,1.336v2.709a3.591,3.591,0,0,0-2.042,3.076,3.017,3.017,0,0,0,.075.664,2.721,2.721,0,0,0-.042,4.774,6.124,6.124,0,0,0-2.755,5.112v10.89a3.384,3.384,0,0,0,.267,1.322,10.111,10.111,0,0,1-3.777.72H47.716a10.158,10.158,0,0,1-3.49-.611c0-.023,0-.046,0-.069v-1.38a3.022,3.022,0,0,0,.34.019,3.591,3.591,0,0,0,3.076-2.042h2.709a2.722,2.722,0,1,0,0-5.445H47.645a3.591,3.591,0,0,0-3.076-2.042,3.021,3.021,0,0,0-.34.019v-1.38a2.042,2.042,0,1,0-4.084,0v.35a6.138,6.138,0,0,0-2.042-.35c-.146,0-.289.007-.433.017Zm10.91-1.339a5.445,5.445,0,1,1-5.445,5.445,5.445,5.445,0,0,1,5.445-5.445ZM38.1,43.905a4.768,4.768,0,0,1,2.042.459v1.585a3.4,3.4,0,1,0,0,5.441v1.584A4.764,4.764,0,1,1,38.1,43.905Zm2.042,4.764A2.042,2.042,0,1,1,38.1,46.628a2.042,2.042,0,0,1,2.042,2.042Z" transform="translate(0 0)" fill="#6089ba"/>
    </g>
  </g>
</svg>
