<svg xmlns="http://www.w3.org/2000/svg" width="96.602" height="108.677" viewBox="0 0 96.602 108.677">
  <g id="Group_8696" data-name="Group 8696" transform="translate(4892 2588)">
    <g id="noun_Hexagon_220642" transform="translate(-4782.999 -2596.375) rotate(90)">
      <path id="Path_1481" data-name="Path 1481" d="M85.16,109H40.119a9.222,9.222,0,0,1-8.149-4.741L9.6,65.442a9.52,9.52,0,0,1,0-9.334L32.118,17.141A9.222,9.222,0,0,1,40.267,12.4H85.16a9.222,9.222,0,0,1,8.149,4.741l22.521,38.967a9.52,9.52,0,0,1,0,9.334L93.309,104.409A9.768,9.768,0,0,1,85.16,109Z" transform="translate(0 0)" fill="#09fdff"/>
    </g>
    <ellipse id="Ellipse_79" data-name="Ellipse 79" cx="35.392" cy="35.392" rx="35.392" ry="35.392" transform="translate(-4879 -2569)" fill="#548ef1" opacity="0.265"/>
    <g id="grocery" transform="translate(-4865 -2553)">
      <path id="Path_47" data-name="Path 47" d="M88.709,376a.709.709,0,0,0-.709.709v4.254a.709.709,0,0,0,1.418,0v-4.254A.709.709,0,0,0,88.709,376Z" transform="translate(-81.617 -345.514)" fill="#fff"/>
      <path id="Path_48" data-name="Path 48" d="M120.709,376a.709.709,0,0,0-.709.709v4.254a.709.709,0,0,0,1.418,0v-4.254A.709.709,0,0,0,120.709,376Z" transform="translate(-110.781 -345.514)" fill="#fff"/>
      <path id="Path_49" data-name="Path 49" d="M152.709,296a.709.709,0,0,0-.709.709v4.254a.709.709,0,0,0,1.418,0v-4.254A.709.709,0,0,0,152.709,296Z" transform="translate(-139.945 -272.604)" fill="#fff"/>
      <path id="Path_50" data-name="Path 50" d="M152.709,376a.709.709,0,0,0-.709.709v4.254a.709.709,0,0,0,1.418,0v-4.254A.709.709,0,0,0,152.709,376Z" transform="translate(-139.945 -345.514)" fill="#fff"/>
      <path id="Path_51" data-name="Path 51" d="M184.709,296a.709.709,0,0,0-.709.709v4.254a.709.709,0,0,0,1.418,0v-4.254A.709.709,0,0,0,184.709,296Z" transform="translate(-169.109 -272.604)" fill="#fff"/>
      <path id="Path_52" data-name="Path 52" d="M184.709,376a.709.709,0,0,0-.709.709v4.254a.709.709,0,0,0,1.418,0v-4.254A.709.709,0,0,0,184.709,376Z" transform="translate(-169.109 -345.514)" fill="#fff"/>
      <path id="Path_53" data-name="Path 53" d="M312.709,296a.709.709,0,0,0-.709.709v4.254a.709.709,0,1,0,1.418,0v-4.254A.709.709,0,0,0,312.709,296Z" transform="translate(-285.765 -272.604)" fill="#fff"/>
      <path id="Path_54" data-name="Path 54" d="M312.709,376a.709.709,0,0,0-.709.709v4.254a.709.709,0,0,0,1.418,0v-4.254A.709.709,0,0,0,312.709,376Z" transform="translate(-285.765 -345.514)" fill="#fff"/>
      <path id="Path_55" data-name="Path 55" d="M344.709,296a.709.709,0,0,0-.709.709v4.254a.709.709,0,1,0,1.418,0v-4.254A.709.709,0,0,0,344.709,296Z" transform="translate(-314.929 -272.604)" fill="#fff"/>
      <path id="Path_56" data-name="Path 56" d="M344.709,376a.709.709,0,0,0-.709.709v4.254a.709.709,0,0,0,1.418,0v-4.254A.709.709,0,0,0,344.709,376Z" transform="translate(-314.929 -345.514)" fill="#fff"/>
      <path id="Path_57" data-name="Path 57" d="M376.709,376a.709.709,0,0,0-.709.709v4.254a.709.709,0,0,0,1.418,0v-4.254A.709.709,0,0,0,376.709,376Z" transform="translate(-344.093 -345.514)" fill="#fff"/>
      <path id="Path_58" data-name="Path 58" d="M408.709,376a.709.709,0,0,0-.709.709v4.254a.709.709,0,0,0,1.418,0v-4.254A.709.709,0,0,0,408.709,376Z" transform="translate(-373.257 -345.514)" fill="#fff"/>
      <path id="Path_59" data-name="Path 59" d="M248.709,296a.709.709,0,0,0-.709.709v4.254a.709.709,0,1,0,1.418,0v-4.254A.709.709,0,0,0,248.709,296Z" transform="translate(-227.437 -272.604)" fill="#fff"/>
      <path id="Path_60" data-name="Path 60" d="M248.709,376a.709.709,0,0,0-.709.709v4.254a.709.709,0,0,0,1.418,0v-4.254A.709.709,0,0,0,248.709,376Z" transform="translate(-227.437 -345.514)" fill="#fff"/>
      <path id="Path_61" data-name="Path 61" d="M216.709,296a.709.709,0,0,0-.709.709v4.254a.709.709,0,1,0,1.418,0v-4.254A.709.709,0,0,0,216.709,296Z" transform="translate(-198.273 -272.604)" fill="#fff"/>
      <path id="Path_62" data-name="Path 62" d="M216.709,376a.709.709,0,0,0-.709.709v4.254a.709.709,0,0,0,1.418,0v-4.254A.709.709,0,0,0,216.709,376Z" transform="translate(-198.273 -345.514)" fill="#fff"/>
      <path id="Path_63" data-name="Path 63" d="M280.709,296a.709.709,0,0,0-.709.709v4.254a.709.709,0,1,0,1.418,0v-4.254A.709.709,0,0,0,280.709,296Z" transform="translate(-256.601 -272.604)" fill="#fff"/>
      <path id="Path_64" data-name="Path 64" d="M280.709,376a.709.709,0,0,0-.709.709v4.254a.709.709,0,0,0,1.418,0v-4.254A.709.709,0,0,0,280.709,376Z" transform="translate(-256.601 -345.514)" fill="#fff"/>
      <path id="Path_65" data-name="Path 65" d="M56.845,61.693l1.054-8.43a.709.709,0,0,0,.614-.7V48.307A.709.709,0,0,0,57.8,47.6h-1.8A4.251,4.251,0,0,0,53.3,40.532a4.253,4.253,0,0,0-6.481-4.9,5.757,5.757,0,0,0-4.61-2.216,5.686,5.686,0,0,0-5.122,3.027,4.253,4.253,0,0,0-5.513,4.063c0,.048,0,.1,0,.143a7.1,7.1,0,0,0-1.432.452,6.4,6.4,0,0,0-1.278-1.687,4.969,4.969,0,0,1-1.526-3.162h.688a.709.709,0,0,0,.709-.709V34.127A2.129,2.129,0,0,0,26.609,32H22.355a2.129,2.129,0,0,0-2.127,2.127v1.418a.709.709,0,0,0,.709.709h.688A4.968,4.968,0,0,1,20.1,39.416a6.319,6.319,0,0,0-2,4.636,2.118,2.118,0,0,0,.543,1.418,2.118,2.118,0,0,0-.543,1.418V47.6H16.683a.709.709,0,0,0-.709.709V52.56a.709.709,0,0,0,.614.7l1.057,8.455L16.234,64.3a2.123,2.123,0,0,0,2.125,3.129l.235,1.881A2.8,2.8,0,0,0,21.41,71.7H53.076a2.8,2.8,0,0,0,2.816-2.389l.239-1.911a2.1,2.1,0,0,0,1.273-.244,2.127,2.127,0,0,0,.849-2.886Zm.25-12.677v2.836H51.477L49.93,49.016Zm-.626,4.254-.786,6.292L52.25,53.269Zm-20.644-15.6a2.8,2.8,0,0,1,1.312.322.709.709,0,0,0,1-.4,4.205,4.205,0,0,1,4.067-2.755,4.33,4.33,0,0,1,3.833,2.208.709.709,0,0,0,1.153.145,2.836,2.836,0,0,1,4.94,1.9,2.8,2.8,0,0,1-.621,1.77A.709.709,0,0,0,52.219,42a2.836,2.836,0,1,1,.622,5.6H51.1a7.091,7.091,0,0,0-11.218-3.389q-.238.193-.459.405a7.088,7.088,0,0,0-6.431-4.106A2.839,2.839,0,0,1,35.825,37.672ZM49.591,47.6H39.075a5.672,5.672,0,0,1,10.517,0Zm-18.936-5.17a5.675,5.675,0,0,1,7.735,3.435,7.1,7.1,0,0,0-.822,1.735H30.862v-.709a2.118,2.118,0,0,0-.543-1.418,2.118,2.118,0,0,0,.543-1.418A6.438,6.438,0,0,0,30.656,42.427Zm16.986,6.588-1.349.736a.709.709,0,0,0-.283.962l.621,1.138H27.871l.6-1.109a.709.709,0,0,0-.283-.962l-1.4-.765Zm-26-14.889a.71.71,0,0,1,.709-.709h4.254a.71.71,0,0,1,.709.709v.709H21.646Zm5.16,4.963H22.157a6.407,6.407,0,0,0,.89-2.836h2.87A6.407,6.407,0,0,0,26.806,39.09Zm-5.795,1.418h6.94a4.912,4.912,0,0,1,1.493,3.545.71.71,0,0,1-.709.709H20.228a.71.71,0,0,1-.709-.709A4.912,4.912,0,0,1,21.012,40.508Zm-1.493,6.381a.71.71,0,0,1,.709-.709h8.508a.71.71,0,0,1,.709.709V47.6H19.519Zm-2.127,4.963V49.016h7.181l-1.547,2.836Zm4.861,1.418-3.445,6.316-.79-6.316ZM18.723,65.661a.71.71,0,0,1-.624.37.7.7,0,0,1-.338-.087.71.71,0,0,1-.283-.962l8.168-14.975,1.245.679Zm35.762,3.477a1.377,1.377,0,0,1-1.409,1.147H21.41A1.378,1.378,0,0,1,20,69.138l-.3-2.414a2.128,2.128,0,0,0,.269-.383l5.223-9.574v3.593a.709.709,0,1,0,1.418,0V56.105a.708.708,0,0,0-.672-.707L27.1,53.269H47.4L48.566,55.4a.708.708,0,0,0-.688.708v4.254a.709.709,0,0,0,1.418,0V56.737l5.222,9.574a2.126,2.126,0,0,0,.272.387Zm2.58-3.646a.709.709,0,0,1-1.3.139L47.594,50.657l1.245-.679,8.169,14.975a.7.7,0,0,1,.058.54Z" transform="translate(-15.971 -32)" fill="#fff"/>
    </g>
  </g>
</svg>
