<svg xmlns="http://www.w3.org/2000/svg" width="96.602" height="108.677" viewBox="0 0 96.602 108.677">
  <g id="Group_8713" data-name="Group 8713" transform="translate(4899 2584)">
    <g id="noun_Hexagon_220642" transform="translate(-4789.999 -2592.375) rotate(90)">
      <path id="Path_1481" data-name="Path 1481" d="M85.16,109H40.119a9.222,9.222,0,0,1-8.149-4.741L9.6,65.442a9.52,9.52,0,0,1,0-9.334L32.118,17.141A9.222,9.222,0,0,1,40.267,12.4H85.16a9.222,9.222,0,0,1,8.149,4.741l22.521,38.967a9.52,9.52,0,0,1,0,9.334L93.309,104.409A9.768,9.768,0,0,1,85.16,109Z" transform="translate(0 0)" fill="#eff5fc"/>
    </g>
    <g id="toner" transform="translate(-4859 -2550)">
      <path id="Path_71" data-name="Path 71" d="M3.222,3.4V8.236A3.409,3.409,0,0,0,.5,11.571V37.434a3.407,3.407,0,0,0,3.4,3.4h10.89a3.407,3.407,0,0,0,3.4-3.4V11.571a3.409,3.409,0,0,0-2.722-3.335V3.4a3.407,3.407,0,0,0-3.4-3.4H6.626A3.407,3.407,0,0,0,3.222,3.4Zm13.612,8.167V37.434a2.042,2.042,0,0,1-2.042,2.042H3.9a2.042,2.042,0,0,1-2.042-2.042V11.571A2.042,2.042,0,0,1,3.9,9.529h10.89A2.042,2.042,0,0,1,16.835,11.571ZM14.112,3.4V8.167H4.584V3.4A2.042,2.042,0,0,1,6.626,1.361h5.445A2.042,2.042,0,0,1,14.112,3.4Zm0,0" transform="translate(-0.5)" fill="#6089ba"/>
      <path id="Path_72" data-name="Path 72" d="M33.181,128a.681.681,0,0,0-.681.681v6.806a.681.681,0,0,0,.681.681h10.89a.681.681,0,0,0,.681-.681v-6.806a.681.681,0,0,0-.681-.681Zm10.209,6.806H33.861v-5.445H43.39Zm0,0" transform="translate(-29.778 -117.11)" fill="#6089ba"/>
    </g>
  </g>
</svg>
