<svg xmlns="http://www.w3.org/2000/svg" width="96.602" height="108.677" viewBox="0 0 96.602 108.677">
  <g id="Group_8690" data-name="Group 8690" transform="translate(4892 2588)">
    <g id="noun_Hexagon_220642" transform="translate(-4782.999 -2596.375) rotate(90)">
      <path id="Path_1481" data-name="Path 1481" d="M85.16,109H40.119a9.222,9.222,0,0,1-8.149-4.741L9.6,65.442a9.52,9.52,0,0,1,0-9.334L32.118,17.141A9.222,9.222,0,0,1,40.267,12.4H85.16a9.222,9.222,0,0,1,8.149,4.741l22.521,38.967a9.52,9.52,0,0,1,0,9.334L93.309,104.409A9.768,9.768,0,0,1,85.16,109Z" transform="translate(0 0)" fill="#09fdff"/>
    </g>
    <ellipse id="Ellipse_79" data-name="Ellipse 79" cx="35.392" cy="35.392" rx="35.392" ry="35.392" transform="translate(-4879 -2569)" fill="#548ef1" opacity="0.265"/>
    <path id="fast-food" d="M26.057,37.937H29.7a2.042,2.042,0,0,0,.548,2.2L35.877,45.3h0l.014.013,8.894,7.709h-.219a.686.686,0,0,0-.686.686v2.742a.686.686,0,0,0,.686.686h8.227a.686.686,0,0,0,.686-.686V53.7a.686.686,0,0,0-.686-.686V51.932l.367-.367a3.4,3.4,0,0,0,1-2.424v-4.2l2.485-5.467a2.047,2.047,0,0,0,.066-1.537H61.7a2.059,2.059,0,0,0,2.057-2.057V34.51a.686.686,0,0,0-.686-.686H60.334v-.686a14.413,14.413,0,0,0-14.4-14.4V17.371h.686a.686.686,0,0,0,0-1.371H41.139a.686.686,0,1,0,0,1.371h.686v1.371a14.413,14.413,0,0,0-14.4,14.4v.686H24.686A.686.686,0,0,0,24,34.51v1.371A2.059,2.059,0,0,0,26.057,37.937ZM31,38.374a.67.67,0,0,1,.639-.437h.391a.687.687,0,0,1,.624.4l.515,1.134h0l1.155,2.541-3.149-2.887A.67.67,0,0,1,31,38.374ZM52.107,55.762H45.252V54.39h6.855Zm3.246-17.51a.674.674,0,0,1,.048.655l-2.547,5.6a.687.687,0,0,0-.061.284v4.348a2.043,2.043,0,0,1-.6,1.454l-.568.568a.686.686,0,0,0-.2.485v1.371H46.879L36.9,44.373l-2.485-5.466a.686.686,0,0,1,.625-.969h.451a.682.682,0,0,1,.613.379l2.363,4.726a.686.686,0,0,0,.359.33l6.855,2.742a.685.685,0,0,0,.421.029l2.742-.686a.686.686,0,0,0,.436-.337L53,38.295a.686.686,0,0,1,.6-.357h1.17A.674.674,0,0,1,55.353,38.252Zm-17.9-.314H51.638L48.222,44.2l-2.236.559L39.579,42.2ZM43.2,17.371h1.371v1.371H43.2ZM28.8,33.139A13.04,13.04,0,0,1,41.824,20.113h4.113A13.04,13.04,0,0,1,58.963,33.139v.686H28.8ZM25.371,35.2H62.39v.686a.686.686,0,0,1-.686.686H26.057a.686.686,0,0,1-.686-.686Z" transform="translate(-4888 -2570)" fill="#fff"/>
  </g>
</svg>
