<svg xmlns="http://www.w3.org/2000/svg" width="64.113" height="64.104" viewBox="0 0 64.113 64.104"><defs><style>.a{fill:#fff;}.b{fill:#66e0f7;}.c{fill:#ff7b79;}</style></defs><g transform="translate(17.281 8.265)"><path class="a" d="M138,66.037a29.228,29.228,0,0,1,7.012,18.993v13.8H172.06V85.03a29.228,29.228,0,0,1,7.012-18.993Z" transform="translate(-138 -66.037)"/></g><path class="b" d="M105.506,17.049h43.076a3.506,3.506,0,1,0,0-7.012H105.506a3.506,3.506,0,1,0,0,7.012Z" transform="translate(-89.227 -8.785)"/><circle class="c" cx="21.049" cy="21.049" r="21.049" transform="translate(1.252 20.754)"/><g transform="translate(0 0)"><path d="M59.355.037h-15.9a1.252,1.252,0,0,0,0,2.5h15.9a2.254,2.254,0,0,1,0,4.508H16.279a2.254,2.254,0,0,1,0-4.508h15.9a1.252,1.252,0,0,0,0-2.5h-15.9a4.758,4.758,0,1,0,0,9.517h.413a28.11,28.11,0,0,1,5.251,9.99,22.3,22.3,0,1,0,21.61,15.535l6.9,6.9a1.252,1.252,0,0,0,2.138-.886v-13.8A28,28,0,0,1,58.939,9.554h.416a4.758,4.758,0,0,0,0-9.517ZM44.139,10.425l4.527,4.527-4.539,4.539-4.539-4.539,4.527-4.527.012-.013.012.013ZM37.282,54.768a27.593,27.593,0,0,1-3.175-11.675h7.95A19.713,19.713,0,0,1,37.282,54.768ZM2.545,43.092H10.5A27.593,27.593,0,0,1,7.32,54.768,19.713,19.713,0,0,1,2.545,43.092ZM7.32,28.912A27.594,27.594,0,0,1,10.5,40.588H2.545A19.713,19.713,0,0,1,7.32,28.912ZM24.05,17.87,31.5,10.425l.012-.013.012.013,4.527,4.527-5.982,5.982a22.127,22.127,0,0,0-5.493-1.28Q24.338,18.754,24.05,17.87ZM34.19,9.554h7.255l-3.627,3.627ZM23.553,40.588v-18.5A19.716,19.716,0,0,1,35.444,27.05,30.088,30.088,0,0,0,31.6,40.588Zm9.725-19.326,4.539-4.539,4.539,4.539L37.817,25.8ZM21.049,40.588H13A30.088,30.088,0,0,0,9.158,27.05a19.716,19.716,0,0,1,11.891-4.966ZM13,43.092h8.047V61.6A19.717,19.717,0,0,1,9.157,56.63,30.086,30.086,0,0,0,13,43.092Zm10.551,0H31.6A30.086,30.086,0,0,0,35.445,56.63,19.716,19.716,0,0,1,23.553,61.6v-18.5Zm10.554-2.5a27.594,27.594,0,0,1,3.175-11.676,19.712,19.712,0,0,1,4.775,11.676Zm5.481-13.016,4.539-4.539,4.539,4.539L44.127,32.11Zm10.555-2.064L45.9,21.262l4.539-4.539,1.148,1.148A30.476,30.476,0,0,0,50.143,25.507ZM28.825,9.554,23.081,15.3a30.669,30.669,0,0,0-3.234-5.744ZM45.9,33.881l4.191-4.191v8.382ZM52.553,15.3,46.809,9.554h8.976A30.473,30.473,0,0,0,52.553,15.3Z" transform="translate(0 -0.037)"/><path d="M293.252,2.541A1.253,1.253,0,0,0,294.5,1.289a1.252,1.252,0,1,0-2.138.885A1.262,1.262,0,0,0,293.252,2.541Z" transform="translate(-255.435 -0.037)"/></g></svg>