<svg xmlns="http://www.w3.org/2000/svg" width="75.204" height="63.868" viewBox="0 0 75.204 63.868"><defs><style>.a{fill:#9ce3bf;}.b{fill:#52cd8d;}.c{fill:#e8ab4c;}.d{fill:#fff;}.e{fill:#cad8eb;}.f{fill:#9eb6f4;}.g{fill:#6e91ef;}.h{fill:#efc17a;}</style></defs><g transform="translate(3.427 1.185)"><g transform="translate(56.207 48.411)"><path class="a" d="M418.078,389.222a5.514,5.514,0,0,0,.065-.846,5.611,5.611,0,0,0-5.631-5.484V381.73A5.489,5.489,0,0,0,406,376.342v13.074Z" transform="translate(-406 -376.246)"/></g><g transform="translate(56.207 48.411)"><path class="b" d="M409.281,385.068v-1.163A5.484,5.484,0,0,0,406,378.884v-2.542a5.489,5.489,0,0,1,6.512,5.387v1.163a5.611,5.611,0,0,1,5.631,5.484,5.507,5.507,0,0,1-.065.846l-3.326.054A5.672,5.672,0,0,0,409.281,385.068Z" transform="translate(-406 -376.246)"/></g><g transform="translate(48.519 0)"><path class="c" d="M353.658,46.656h4.395V57.6h-4.395Z" transform="translate(-353.658 -46.656)"/></g><g transform="translate(0 48.411)"><path class="a" d="M23.4,389.222a5.519,5.519,0,0,1-.065-.846,5.611,5.611,0,0,1,5.631-5.484V381.73a5.489,5.489,0,0,1,6.512-5.387v13.074Z" transform="translate(-23.332 -376.246)"/></g><g transform="translate(0 48.411)"><path class="b" d="M32.194,385.068v-1.163a5.484,5.484,0,0,1,3.28-5.022v-2.542a5.489,5.489,0,0,0-6.512,5.387v1.163a5.611,5.611,0,0,0-5.631,5.484,5.52,5.52,0,0,0,.065.846l3.326.054A5.672,5.672,0,0,1,32.194,385.068Z" transform="translate(-23.332 -376.246)"/></g><g transform="translate(12.107 11.225)"><path class="d" d="M105.8,169.023h44.065V140.417l-22.032-17.342-22.067,17.342Z" transform="translate(-105.761 -123.075)"/></g><g transform="translate(12.107 11.225)"><path class="e" d="M109.083,141.745l21.249-16.7-2.5-1.971-22.067,17.342.035,28.606h3.321Z" transform="translate(-105.761 -123.075)"/></g><g transform="translate(9.939 57.172)"><path class="f" d="M91,435.9h48.5v4.215H91Z" transform="translate(-91 -435.895)"/></g><g transform="translate(20.51 0.202)"><path class="g" d="M191.055,58.769,176.63,48.03,162.965,58.769" transform="translate(-162.965 -48.03)"/></g><g transform="translate(18.801 30.758)"><path class="h" d="M151.332,256.06h13.146v26.488H151.332Z" transform="translate(-151.332 -256.06)"/></g><g transform="translate(18.801 30.758)"><path class="c" d="M154.172,279.465v-23.4h-2.84v26.488h13.146v-3.083Z" transform="translate(-151.332 -256.06)"/></g><g transform="translate(7.736 10.941)"><path class="f" d="M107.921,121.143h20.955v17.626h-4.383l-22.055-17.342L80.371,138.769H76V121.143H96.905" transform="translate(-75.999 -121.143)"/></g><g transform="translate(7.736 10.941)"><path class="g" d="M101.98,121.143l-18.3,14.385H79.3V121.143H76v17.626h4.372l22.067-17.342Z" transform="translate(-75.999 -121.143)"/></g><g transform="translate(11.041 14.266)"><path class="d" d="M98.5,143.784h2.2v2.2H98.5Z" transform="translate(-98.499 -143.784)"/></g><g transform="translate(36.317 30.758)"><path class="f" d="M270.582,256.06h13.256v17.687H270.582Z" transform="translate(-270.582 -256.06)"/></g><g transform="translate(36.317 30.758)"><path class="g" d="M273.948,270.484V256.06h-3.366v17.687h13.256v-3.264Z" transform="translate(-270.582 -256.06)"/></g><g transform="translate(41.837 45.115)"><path class="d" d="M308.166,353.81h2.2v3.329h-2.2Z" transform="translate(-308.166 -353.81)"/></g><g transform="translate(41.837 40.709)"><path class="d" d="M308.166,323.81h2.2v2.2h-2.2Z" transform="translate(-308.166 -323.81)"/></g><g transform="translate(41.837 30.907)"><path class="d" d="M308.166,257.074h2.2v7.6h-2.2Z" transform="translate(-308.166 -257.074)"/></g><g transform="translate(11.041 18.599)"><path class="d" d="M98.5,173.283h2.2v4.5H98.5Z" transform="translate(-98.499 -173.283)"/></g></g><g transform="translate(0 0)"><path d="M72.865,100.253a6.9,6.9,0,0,0-5.618-6.434,6.852,6.852,0,0,0-6.512-6.731V69.441h4.406V49.612h-7.7V45.281h-2.2v4.331H53.048V40.875H55.24v2.2h2.2V38.671h-6.6V48.46L37.584,38.588,23.556,49.612H10.061V69.441h4.406V71.7h2.2V68.847L37.6,52.4,58.532,68.857V95.843H36.476V69.429H21.127V95.844H16.671V78.314h-2.2v8.77a6.832,6.832,0,0,0-6.512,6.734,6.878,6.878,0,0,0-5.619,6.434H0v2.2H75.2v-2.2Zm-7.821-4.321c2.665-.2,5.572,1.535,5.627,4.321h-7.7V95.844H60.736V89.277C64.038,89.266,65.479,92.977,65.044,95.932ZM15.153,67.238H12.265V51.815h19.8v-2.2H27.121l10.5-8.251L48.7,49.612H43.085v2.2H62.939V67.238h-2.9L37.6,49.6Zm8.176,4.394H34.272V95.844H23.33ZM60.736,98.047h.028v2.206h-46.3V98.047ZM10.159,95.932c-.464-2.959,1.1-6.63,4.308-6.651v6.563h-2.2v4.409H4.53C4.568,97.409,7.493,95.713,10.159,95.932Z" transform="translate(0 -38.588)"/><path d="M98.5,279.051h2.2v2.2H98.5Z" transform="translate(-84.031 -243.731)"/><path d="M218.5,204.306h2.2v2.2h-2.2Z" transform="translate(-186.405 -179.965)"/><path d="M248.5,204.306h2.2v2.2h-2.2Z" transform="translate(-211.999 -179.965)"/><path d="M203.333,338.984h2.2v2.2h-2.2Z" transform="translate(-173.467 -294.861)"/><path d="M278.5,204.306h2.2v2.2h-2.2Z" transform="translate(-237.592 -179.965)"/><path d="M263.083,268.45h15.459V248.56H263.083Zm2.2-17.687h11.053v15.484H265.286Z" transform="translate(-224.441 -217.719)"/></g></svg>