<svg xmlns="http://www.w3.org/2000/svg" viewBox="0 0 21.417 34.073">
  <defs>
    <style>
      .cls-1 {
        fill: #51aa1b;
        stroke: #51aa1b;
        stroke-width: 0.1px;
        fill-rule: evenodd;
      }
    </style>
  </defs>
  <path id="Path_9" data-name="Path 9" class="cls-1" d="M12.328,27.219a2.25,2.25,0,0,1-1.017.409l.135,5c0,.181-.018.368-.025.44s-.016.133-.025.184a.809.809,0,0,1-.787.723h0a.809.809,0,0,1-.794-.848V33.11s0-.213,0-.478l-.086-5.045a2.019,2.019,0,0,1-.737-.377C6.288,24.8,0,18.387,0,10.928A10.808,10.808,0,0,1,10.658,0,10.807,10.807,0,0,1,21.316,10.928C21.316,18.47,15.031,24.833,12.328,27.219Zm-1.67-25.6a9.209,9.209,0,0,0-9.081,9.311c0,2.261.821,8.249,8.427,15.042a3.6,3.6,0,0,0,.527.171l.143-.029a6.28,6.28,0,0,0,.677-.163c7.571-6.707,8.389-12.737,8.389-15.021A9.209,9.209,0,0,0,10.658,1.617Zm0,12.286a2.591,2.591,0,1,1,2.527-2.591A2.559,2.559,0,0,1,10.658,13.9Z" transform="translate(0.05 0.05)"/>
</svg>
