<svg xmlns="http://www.w3.org/2000/svg" viewBox="0 0 40.285 21.821">
  <defs>
    <style>
      .cls-1 {
        fill: #51aa1b;
      }
    </style>
  </defs>
  <g id="coupon" transform="translate(0 -117.338)">
    <g id="Group_2" data-name="Group 2" transform="translate(0 117.338)">
      <g id="Group_1" data-name="Group 1" transform="translate(0 0)">
        <path id="Path_1" data-name="Path 1" class="cls-1" d="M39.447,117.338h-27.7l-1.679,1.679-1.678-1.679H.84a.84.84,0,0,0-.84.839V138.32a.839.839,0,0,0,.84.839H8.393l1.678-1.677,1.679,1.677h27.7a.838.838,0,0,0,.838-.839V118.177A.839.839,0,0,0,39.447,117.338Zm-.839,20.143H12.445l-1.186-1.187-1.188-1.188-1.186,1.188L7.7,137.481H1.679V119.017H7.7L8.885,120.2l1.186,1.187,1.188-1.187,1.186-1.187H38.608Z" transform="translate(0 -117.338)"/>
      </g>
    </g>
    <g id="Group_4" data-name="Group 4" transform="translate(18.465 121.534)">
      <g id="Group_3" data-name="Group 3" transform="translate(0 0)">
        <path id="Path_2" data-name="Path 2" class="cls-1" d="M238.029,170.671a3.357,3.357,0,1,0,3.356,3.357A3.358,3.358,0,0,0,238.029,170.671Zm0,5.036a1.679,1.679,0,1,1,1.679-1.679A1.681,1.681,0,0,1,238.029,175.707Z" transform="translate(-234.672 -170.671)"/>
      </g>
    </g>
    <g id="Group_6" data-name="Group 6" transform="translate(25.178 128.249)">
      <g id="Group_5" data-name="Group 5" transform="translate(0 0)">
        <path id="Path_3" data-name="Path 3" class="cls-1" d="M323.358,256.005a3.357,3.357,0,1,0,3.357,3.356A3.357,3.357,0,0,0,323.358,256.005Zm0,5.036a1.678,1.678,0,1,1,1.678-1.679A1.679,1.679,0,0,1,323.358,261.041Z" transform="translate(-320 -256.005)"/>
      </g>
    </g>
    <g id="Group_8" data-name="Group 8" transform="translate(18.465 121.534)">
      <g id="Group_7" data-name="Group 7" transform="translate(0 0)">
        <path id="Path_4" data-name="Path 4" class="cls-1" d="M247.262,170.672a.838.838,0,0,0-.594.246l-11.749,11.75a.84.84,0,1,0,1.188,1.187L247.855,172.1a.839.839,0,0,0-.593-1.432Z" transform="translate(-234.672 -170.672)"/>
      </g>
    </g>
    <g id="Group_10" data-name="Group 10" transform="translate(9.233 122.374)">
      <g id="Group_9" data-name="Group 9" transform="translate(0 0)">
        <path id="Path_5" data-name="Path 5" class="cls-1" d="M118.182,181.338a.839.839,0,1,0,.84.839A.839.839,0,0,0,118.182,181.338Z" transform="translate(-117.343 -181.338)"/>
      </g>
    </g>
    <g id="Group_12" data-name="Group 12" transform="translate(9.233 125.731)">
      <g id="Group_11" data-name="Group 11" transform="translate(0 0)">
        <path id="Path_6" data-name="Path 6" class="cls-1" d="M118.182,224.005a.839.839,0,1,0,.84.839A.839.839,0,0,0,118.182,224.005Z" transform="translate(-117.343 -224.005)"/>
      </g>
    </g>
    <g id="Group_14" data-name="Group 14" transform="translate(9.233 129.088)">
      <g id="Group_13" data-name="Group 13" transform="translate(0 0)">
        <path id="Path_7" data-name="Path 7" class="cls-1" d="M118.182,266.672a.839.839,0,1,0,.84.84A.84.84,0,0,0,118.182,266.672Z" transform="translate(-117.343 -266.672)"/>
      </g>
    </g>
    <g id="Group_16" data-name="Group 16" transform="translate(9.233 132.446)">
      <g id="Group_15" data-name="Group 15">
        <path id="Path_8" data-name="Path 8" class="cls-1" d="M118.182,309.348a.839.839,0,1,0,.84.838A.839.839,0,0,0,118.182,309.348Z" transform="translate(-117.343 -309.348)"/>
      </g>
    </g>
  </g>
</svg>
