<svg xmlns="http://www.w3.org/2000/svg" viewBox="0 0 40.285 26.857">
  <defs>
    <style>
      .cls-1 {
        fill: #51aa1b;
      }
    </style>
  </defs>
  <g id="credit-card" transform="translate(0 -85.333)">
    <g id="Group_18" data-name="Group 18" transform="translate(0 85.333)">
      <g id="Group_17" data-name="Group 17" transform="translate(0 0)">
        <path id="Path_10" data-name="Path 10" class="cls-1" d="M36.089,85.333H4.2a4.2,4.2,0,0,0-4.2,4.2v18.464a4.2,4.2,0,0,0,4.2,4.2H36.089a4.2,4.2,0,0,0,4.2-4.2V89.529A4.2,4.2,0,0,0,36.089,85.333Zm2.518,22.661a2.521,2.521,0,0,1-2.518,2.518H4.2a2.521,2.521,0,0,1-2.518-2.518V89.529A2.521,2.521,0,0,1,4.2,87.012H36.089a2.521,2.521,0,0,1,2.518,2.518v18.464Z" transform="translate(0 -85.333)"/>
      </g>
    </g>
    <g id="Group_20" data-name="Group 20" transform="translate(0 90.369)">
      <g id="Group_19" data-name="Group 19" transform="translate(0 0)">
        <path id="Path_11" data-name="Path 11" class="cls-1" d="M39.446,149.333H.839a.84.84,0,0,0-.839.839v5.036a.84.84,0,0,0,.839.839H39.446a.84.84,0,0,0,.839-.839v-5.036A.84.84,0,0,0,39.446,149.333Zm-.839,5.036H1.679v-3.357H38.607v3.357Z" transform="translate(0 -149.333)"/>
      </g>
    </g>
    <g id="Group_22" data-name="Group 22" transform="translate(5.036 102.119)">
      <g id="Group_21" data-name="Group 21" transform="translate(0 0)">
        <path id="Path_12" data-name="Path 12" class="cls-1" d="M74.911,298.667H64.839a.839.839,0,1,0,0,1.679H74.911a.839.839,0,1,0,0-1.679Z" transform="translate(-64 -298.667)"/>
      </g>
    </g>
    <g id="Group_24" data-name="Group 24" transform="translate(5.036 105.476)">
      <g id="Group_23" data-name="Group 23" transform="translate(0 0)">
        <path id="Path_13" data-name="Path 13" class="cls-1" d="M74.911,341.333H64.839a.839.839,0,1,0,0,1.679H74.911a.839.839,0,1,0,0-1.679Z" transform="translate(-64 -341.333)"/>
      </g>
    </g>
    <g id="Group_26" data-name="Group 26" transform="translate(28.535 100.44)">
      <g id="Group_25" data-name="Group 25">
        <path id="Path_14" data-name="Path 14" class="cls-1" d="M366.863,277.333h-1.679a2.521,2.521,0,0,0-2.518,2.518v1.679a2.521,2.521,0,0,0,2.518,2.518h1.679a2.521,2.521,0,0,0,2.518-2.518v-1.679A2.521,2.521,0,0,0,366.863,277.333Zm.839,4.2a.84.84,0,0,1-.839.839h-1.679a.84.84,0,0,1-.839-.839v-1.679a.84.84,0,0,1,.839-.839h1.679a.84.84,0,0,1,.839.839Z" transform="translate(-362.667 -277.333)"/>
      </g>
    </g>
  </g>
</svg>
